<?xml version="1.0" encoding="UTF-8"?>
<svg version="1.1" xmlns="http://www.w3.org/2000/svg" width="725" height="244">
<path d="M0 0 C15.10724691 -0.02332969 30.21449243 -0.04097952 45.3217535 -0.05181217 C52.33584634 -0.05697498 59.349928 -0.06401739 66.36401367 -0.07543945 C73.12668068 -0.08644688 79.88933364 -0.09227619 86.65200996 -0.09487724 C89.2385228 -0.09673203 91.82503497 -0.10035367 94.41154289 -0.10573006 C98.02038855 -0.11293651 101.62918547 -0.11399111 105.23803711 -0.11352539 C106.3191275 -0.11712067 107.4002179 -0.12071594 108.5140686 -0.12442017 C109.98019341 -0.12235817 109.98019341 -0.12235817 111.47593689 -0.12025452 C112.33043899 -0.12117631 113.18494108 -0.1220981 114.06533718 -0.12304783 C116 0 116 0 117 1 C118.06119509 7.58972536 118.14509272 14.2576426 118.12939453 20.91601562 C118.13202301 22.31790131 118.13202301 22.31790131 118.13470459 23.74810791 C118.13906429 26.80084147 118.13620796 29.85351597 118.1328125 32.90625 C118.13348677 35.0395102 118.13445783 37.17277033 118.13571167 39.30603027 C118.13718027 43.75741311 118.1350594 48.20877577 118.13037109 52.66015625 C118.12464647 58.3745609 118.12797529 64.08891886 118.13394356 69.80332184 C118.13754818 74.19893754 118.13641152 78.59454206 118.13381577 82.99015808 C118.13314766 85.09856675 118.13397088 87.20697642 118.13629532 89.31538391 C118.13882319 92.24999712 118.13498059 95.18453319 118.12939453 98.11914062 C118.13141876 98.99391052 118.13344299 99.86868042 118.13552856 100.7699585 C118.1142698 106.77146041 118.1142698 106.77146041 117 109 C101.76236936 109.02332961 86.52473954 109.04097948 71.28709507 109.05181217 C64.21246813 109.056975 57.13785226 109.06401744 50.06323242 109.07543945 C43.24221122 109.08644681 36.42120156 109.09227618 29.60017204 109.09487724 C26.99133052 109.09673205 24.38248967 109.1003537 21.77365303 109.10573006 C18.13367448 109.11293643 14.49374425 109.11399111 10.85375977 109.11352539 C9.76331863 109.11712067 8.6728775 109.12071594 7.5493927 109.12442017 C6.56356201 109.1230455 5.57773132 109.12167084 4.56202698 109.12025452 C3.70015054 109.12117631 2.8382741 109.1220981 1.95028019 109.12304783 C0 109 0 109 -1 108 C-1.09753983 106.62581821 -1.12631616 105.24667279 -1.12698364 103.86903381 C-1.12980347 102.97864914 -1.13262329 102.08826447 -1.13552856 101.17089844 C-1.13350433 100.18645752 -1.1314801 99.2020166 -1.12939453 98.18774414 C-1.13114685 97.15693222 -1.13289917 96.1261203 -1.13470459 95.06407166 C-1.13912573 91.63774967 -1.13618398 88.21147881 -1.1328125 84.78515625 C-1.13348552 82.41483042 -1.13445552 80.04450467 -1.13571167 77.67417908 C-1.13718904 72.69822535 -1.13503302 67.72228954 -1.13037109 62.74633789 C-1.12467689 56.3557114 -1.12795062 49.96512693 -1.13394356 43.57450199 C-1.13755075 38.67703432 -1.1364098 33.77957666 -1.13381577 28.88210869 C-1.13314678 26.5252933 -1.13397395 24.16847701 -1.13629532 21.81166267 C-1.13882408 18.52163394 -1.13497789 15.23167398 -1.12939453 11.94165039 C-1.13141876 10.9592337 -1.13344299 9.97681702 -1.13552856 8.96463013 C-1.13270874 8.07142563 -1.12988892 7.17822113 -1.12698364 6.25794983 C-1.12660662 5.47941178 -1.12622959 4.70087374 -1.12584114 3.89874363 C-1 2 -1 2 0 0 Z M24 26 C23.979375 37.034375 23.95875 48.06875 23.9375 59.4375 C23.928396 62.92626709 23.91929199 66.41503418 23.90991211 70.00952148 C23.90699327 72.75504518 23.90444464 75.50056931 23.90234375 78.24609375 C23.89973038 78.9641066 23.897117 79.68211945 23.89442444 80.42189026 C23.88714429 82.52664519 23.88609267 84.63131842 23.88647461 86.73608398 C23.884254 87.92411118 23.88203339 89.11213837 23.87974548 90.33616638 C23.69637405 92.92120693 23.69637405 92.92120693 25 94 C27.08619022 94.09417773 29.17560477 94.11742878 31.26391602 94.11352539 C31.91755127 94.11367142 32.57118652 94.11381744 33.24462891 94.1139679 C35.41442128 94.11326883 37.58412879 94.10547678 39.75390625 94.09765625 C41.25463311 94.09579205 42.75536057 94.09436816 44.25608826 94.09336853 C48.21318226 94.08954352 52.17023978 94.0797134 56.12731934 94.06866455 C60.16234849 94.05845006 64.19738353 94.05387083 68.23242188 94.04882812 C76.15496469 94.03809111 84.07747781 94.0210149 92 94 C93.03935381 90.88193858 93.12679952 88.71645884 93.12939453 85.44628906 C93.13412277 83.73871429 93.13412277 83.73871429 93.13894653 81.99664307 C93.1369223 80.7654071 93.13489807 79.53417114 93.1328125 78.265625 C93.13424759 76.36583893 93.13424759 76.36583893 93.13571167 74.42767334 C93.13639291 71.74439091 93.13504354 69.06119919 93.13037109 66.37792969 C93.12469699 62.95401455 93.1279396 59.53017821 93.13394356 56.10626602 C93.13844938 52.82604963 93.1352829 49.54584243 93.1328125 46.265625 C93.13584885 44.43091644 93.13584885 44.43091644 93.13894653 42.55914307 C93.13579437 41.40815125 93.13264221 40.25715942 93.12939453 39.07128906 C93.12859894 38.06551819 93.12780334 37.05974731 93.12698364 36.02349854 C92.98589851 32.66424151 92.47548949 29.32842643 92 26 C69.56 26 47.12 26 24 26 Z " fill="#7F8085" transform="translate(21,74)"/>
<path d="M0 0 C0 0.66 0 1.32 0 2 C0.66 2 1.32 2 2 2 C2.144375 0.700625 2.28875 -0.59875 2.4375 -1.9375 C2.875 -5.875 2.875 -5.875 4 -7 C5.9943173 -7.09405142 7.99199543 -7.11743249 9.98852539 -7.11352539 C11.26977798 -7.11344986 12.55103058 -7.11337433 13.87110901 -7.11329651 C15.27995848 -7.10818909 16.68880756 -7.10297309 18.09765625 -7.09765625 C19.53112234 -7.09579202 20.96458907 -7.09436814 22.39805603 -7.09336853 C26.17759957 -7.08954372 29.9571049 -7.07971377 33.7366333 -7.06866455 C37.59069298 -7.05844963 41.44475882 -7.05387074 45.29882812 -7.04882812 C52.86590287 -7.03809146 60.43294609 -7.02101549 68 -7 C68.99 -4.69 69.98 -2.38 71 0 C71.78375 -0.969375 72.5675 -1.93875 73.375 -2.9375 C74.91288705 -4.83962346 75.79259913 -5.89629957 78 -7 C81.763882 -7.32135165 85.53659322 -7.32437846 89.3125 -7.375 C90.35857422 -7.41238281 91.40464844 -7.44976562 92.48242188 -7.48828125 C100.17067303 -7.5763707 100.17067303 -7.5763707 103.8046875 -5.05078125 C104.89136719 -3.54064453 104.89136719 -3.54064453 106 -2 C106.51167725 -1.3296875 107.02335449 -0.659375 107.55053711 0.03125 C109.34344332 2.3902165 111.08078658 4.78330845 112.8125 7.1875 C117.28652038 13.34998493 121.79641413 19.39328852 126.7421875 25.1875 C128 27 128 27 128 30 C121.65209101 30.85782554 115.39830546 31.11666261 109 30.8125 C107.1128125 30.72935547 107.1128125 30.72935547 105.1875 30.64453125 C102 30 102 30 100.6171875 27.98046875 C99.2197156 25.84802592 99.2197156 25.84802592 97.17285156 25.60864258 C94.81184485 25.46036804 92.4901061 25.45487874 90.125 25.5 C88.92037109 25.47679687 88.92037109 25.47679687 87.69140625 25.453125 C82.76003957 25.42928165 82.76003957 25.42928165 78.69140625 27.9765625 C74.25063859 31.31519479 69.22152594 30.76025343 63.8125 30.875 C62.15444336 30.94460937 62.15444336 30.94460937 60.46289062 31.015625 C54.4478231 31.2069299 54.4478231 31.2069299 52 31 C51.34 30.34 50.68 29.68 50 29 C49.67 29.33 49.34 29.66 49 30 C45.22245817 30.41130221 41.42010071 30.51685698 37.625 30.6875 C36.55765625 30.74744141 35.4903125 30.80738281 34.390625 30.86914062 C32.85535156 30.9397168 32.85535156 30.9397168 31.2890625 31.01171875 C30.34756348 31.05772217 29.40606445 31.10372559 28.43603516 31.15112305 C26 31 26 31 23 29 C22.65942383 26.66162109 22.65942383 26.66162109 22.70703125 23.7734375 C22.71669922 22.7421875 22.72636719 21.7109375 22.73632812 20.6484375 C22.76146484 19.56820312 22.78660156 18.48796875 22.8125 17.375 C22.82603516 16.28703125 22.83957031 15.1990625 22.85351562 14.078125 C22.88894876 11.38520709 22.94275697 8.69254259 23 6 C17.06 6.33 11.12 6.66 5 7 C5 9.31 5 11.62 5 14 C2.8308409 20.98951264 -0.77835932 24.26031403 -7.125 27.6875 C-21.69909229 33.27582297 -40.80655905 32.61096312 -55.4375 27.625 C-60.38399934 25.36870205 -63.10254318 23.57828613 -65.8125 18.8125 C-67 15 -67 15 -67 6 C-72.94 6 -78.88 6 -85 6 C-84.979375 7.546875 -84.95875 9.09375 -84.9375 10.6875 C-84.9375 17.13871507 -85.20661347 23.59413841 -86 30 C-87.61686074 31.61686074 -89.3907615 31.12989349 -91.62109375 31.1328125 C-92.55630859 31.13410156 -93.49152344 31.13539063 -94.45507812 31.13671875 C-95.43927734 31.13285156 -96.42347656 31.12898438 -97.4375 31.125 C-98.90799805 31.13080078 -98.90799805 31.13080078 -100.40820312 31.13671875 C-101.34470703 31.13542969 -102.28121094 31.13414062 -103.24609375 31.1328125 C-104.54051392 31.13112061 -104.54051392 31.13112061 -105.86108398 31.12939453 C-108 31 -108 31 -110 30 C-110.495 18.615 -110.495 18.615 -111 7 C-117.20765272 6.71077627 -117.20765272 6.71077627 -123.41577148 6.43188477 C-124.18477783 6.39377686 -124.95378418 6.35566895 -125.74609375 6.31640625 C-126.93223267 6.26141968 -126.93223267 6.26141968 -128.14233398 6.20532227 C-130 6 -130 6 -131 5 C-131.09851171 3.16884117 -131.12972629 1.33380067 -131.125 -0.5 C-131.12757813 -1.5003125 -131.13015625 -2.500625 -131.1328125 -3.53125 C-131 -6 -131 -6 -130 -7 C-128.0056827 -7.09405142 -126.00800457 -7.11743249 -124.01147461 -7.11352539 C-122.73022202 -7.11344986 -121.44896942 -7.11337433 -120.12889099 -7.11329651 C-118.72004152 -7.10818909 -117.31119244 -7.10297309 -115.90234375 -7.09765625 C-114.46887766 -7.09579202 -113.03541093 -7.09436814 -111.60194397 -7.09336853 C-107.82240043 -7.08954372 -104.0428951 -7.07971377 -100.2633667 -7.06866455 C-96.40930702 -7.05844963 -92.55524118 -7.05387074 -88.70117188 -7.04882812 C-81.13409713 -7.03809146 -73.56705391 -7.02101549 -66 -7 C-64.23537317 -3.91190305 -64 -2.76687864 -64 1 C-63.06994141 0.40251953 -63.06994141 0.40251953 -62.12109375 -0.20703125 C-43.53000708 -11.32920974 -18.6019284 -11.07361855 0 0 Z M-42 8 C-42.07148199 9.35243917 -42.08399454 10.70834367 -42.0625 12.0625 C-42.041875 13.361875 -42.02125 14.66125 -42 16 C-36.7423468 19.32062307 -32.05087587 19.77652907 -26 19 C-23.51949071 17.83567931 -21.90574048 16.90574048 -20 15 C-19.49968794 11.58428147 -19.49968794 11.58428147 -20 8 C-26.33786477 2.86119073 -35.83995958 1.83995958 -42 8 Z M48 7 C47.87314194 9.63746756 47.81479383 12.23709166 47.8125 14.875 C47.80025391 15.60847656 47.78800781 16.34195313 47.77539062 17.09765625 C47.76490434 20.93563514 47.82231383 22.73347074 50 26 C54.13985095 23.80917622 56.73694011 21.30932479 59.6875 17.6875 C60.45449219 16.76324219 61.22148437 15.83898437 62.01171875 14.88671875 C64.02610061 11.9621054 65.05902105 9.4066457 66 6 C63.18743719 5.97315688 60.37512759 5.95323812 57.5625 5.9375 C56.76005859 5.92912109 55.95761719 5.92074219 55.13085938 5.91210938 C51.25563093 5.5030304 51.25563093 5.5030304 48 7 Z M89 9 C88.34 10.65 87.68 12.3 87 14 C88.65 14 90.3 14 92 14 C91.65213292 12.02463255 91.65213292 12.02463255 91 10 C90.34 9.67 89.68 9.34 89 9 Z " fill="#4E798B" transform="translate(282,119)"/>
<path d="M0 0 C1.15886719 -0.01160156 2.31773437 -0.02320312 3.51171875 -0.03515625 C13.59724866 -0.00096801 23.60665892 1.54571225 31.5 8.375 C34.29845882 12.75679736 34.34404742 17.34943324 33.5 22.375 C31.0914155 27.57557633 27.2115285 29.75923877 22 31.75 C8.01949567 36.36999425 -11.38008241 36.66210318 -24.9375 30.5625 C-29.35428534 28.13688838 -31.89821968 25.18034097 -33.5 20.375 C-33.88981277 16.2429846 -33.77518905 13.91479391 -31.875 10.1875 C-23.63052143 0.42430169 -11.96830451 -0.11981617 0 0 Z M-10.5 13.375 C-10.57148199 14.72743917 -10.58399454 16.08334367 -10.5625 17.4375 C-10.541875 18.736875 -10.52125 20.03625 -10.5 21.375 C-5.2423468 24.69562307 -0.55087587 25.15152907 5.5 24.375 C7.98050929 23.21067931 9.59425952 22.28074048 11.5 20.375 C12.00031206 16.95928147 12.00031206 16.95928147 11.5 13.375 C5.16213523 8.23619073 -4.33995958 7.21495958 -10.5 13.375 Z " fill="#F8FCFC" transform="translate(250.5,113.625)"/>
<path d="M0 0 C12.77225425 -0.28169587 12.77225425 -0.28169587 17.48095703 3.19287109 C21.6746322 7.64203472 24.73855629 12.77701159 27.75048828 18.07080078 C29.74837304 21.45860742 32.10693982 24.48827462 34.55517578 27.55761719 C38.18017578 32.25693537 38.18017578 32.25693537 38.18017578 34.49511719 C31.25017578 34.49511719 24.32017578 34.49511719 17.18017578 34.49511719 C16.52017578 33.17511719 15.86017578 31.85511719 15.18017578 30.49511719 C11.40974546 30.3501521 7.64002837 30.26116111 3.86767578 30.18261719 C2.79582031 30.14072266 1.72396484 30.09882813 0.61962891 30.05566406 C-0.92241211 30.03149414 -0.92241211 30.03149414 -2.49560547 30.00683594 C-3.91740112 29.96755981 -3.91740112 29.96755981 -5.36791992 29.92749023 C-6.17704834 30.11480713 -6.98617676 30.30212402 -7.81982422 30.49511719 C-8.8331312 32.15372707 -9.83332522 33.82042393 -10.81982422 35.49511719 C-13.08813477 36.06274414 -13.08813477 36.06274414 -15.70654297 35.98339844 C-16.64433594 35.96728516 -17.58212891 35.95117188 -18.54833984 35.93457031 C-20.01303711 35.87172852 -20.01303711 35.87172852 -21.50732422 35.80761719 C-22.49539063 35.78505859 -23.48345703 35.7625 -24.50146484 35.73925781 C-26.94243981 35.68029706 -29.3803729 35.59806767 -31.81982422 35.49511719 C-27.65106497 29.10397801 -23.25601531 22.92353686 -18.69482422 16.80761719 C-17.48256734 15.1796926 -16.2715975 13.55080869 -15.06201172 11.92089844 C-14.48821777 11.16172119 -13.91442383 10.40254395 -13.32324219 9.62036133 C-11.63925149 7.35230758 -11.63925149 7.35230758 -10.06982422 4.01074219 C-6.9956666 0.57366318 -4.49960725 0.37553742 0 0 Z M3.18017578 15.49511719 C2.52017578 17.14511719 1.86017578 18.79511719 1.18017578 20.49511719 C2.83017578 20.49511719 4.48017578 20.49511719 6.18017578 20.49511719 C5.8323087 18.51974974 5.8323087 18.51974974 5.18017578 16.49511719 C4.52017578 16.16511719 3.86017578 15.83511719 3.18017578 15.49511719 Z " fill="#F8FDFC" transform="translate(367.81982421875,112.5048828125)"/>
<path d="M0 0 C1.61358398 -0.01836914 1.61358398 -0.01836914 3.25976562 -0.03710938 C4.28650391 -0.03904297 5.31324219 -0.04097656 6.37109375 -0.04296875 C7.79119751 -0.04913208 7.79119751 -0.04913208 9.23999023 -0.05541992 C11.5625 0.1875 11.5625 0.1875 13.5625 2.1875 C13.68188477 4.41821289 13.68188477 4.41821289 13.50390625 7.16015625 C13.44783203 8.14177734 13.39175781 9.12339844 13.33398438 10.13476562 C13.26501953 11.16279297 13.19605469 12.19082031 13.125 13.25 C12.99679292 15.28227264 12.87285586 17.31482076 12.75390625 19.34765625 C12.66411499 20.70322632 12.66411499 20.70322632 12.57250977 22.08618164 C12.56920654 22.7796167 12.56590332 23.47305176 12.5625 24.1875 C13.62693866 25.47994685 13.62693866 25.47994685 16.10693359 25.26928711 C17.76716553 25.24233765 17.76716553 25.24233765 19.4609375 25.21484375 C20.66234375 25.20259766 21.86375 25.19035156 23.1015625 25.17773438 C25.65109999 25.14268473 28.20058589 25.1036466 30.75 25.06054688 C31.95398438 25.04958984 33.15796875 25.03863281 34.3984375 25.02734375 C35.50751465 25.01050537 36.6165918 24.99366699 37.75927734 24.97631836 C40.5625 25.1875 40.5625 25.1875 43.5625 27.1875 C43.890625 29.53515625 43.890625 29.53515625 43.8125 32.25 C43.79703125 33.14847656 43.7815625 34.04695313 43.765625 34.97265625 C43.5625 37.1875 43.5625 37.1875 42.5625 38.1875 C40.91588317 38.28618104 39.26504906 38.31548833 37.61547852 38.31689453 C36.03362511 38.32162277 36.03362511 38.32162277 34.41981506 38.32644653 C32.6980027 38.32341019 32.6980027 38.32341019 30.94140625 38.3203125 C29.77117416 38.32126923 28.60094208 38.32222595 27.39524841 38.32321167 C24.91445868 38.32389375 22.43366718 38.32203752 19.95288086 38.31787109 C16.14497889 38.31252803 12.33719513 38.31781271 8.52929688 38.32421875 C6.12499974 38.32355788 3.72070268 38.32227653 1.31640625 38.3203125 C-0.40236977 38.32334885 -0.40236977 38.32334885 -2.15586853 38.32644653 C-3.21358963 38.32329437 -4.27131073 38.32014221 -5.36108398 38.31689453 C-6.29516586 38.31609894 -7.22924774 38.31530334 -8.19163513 38.31448364 C-10.4375 38.1875 -10.4375 38.1875 -12.4375 37.1875 C-13.58264989 34.00909705 -13.56646176 30.92629036 -13.5703125 27.57421875 C-13.57160156 26.49076172 -13.57289063 25.40730469 -13.57421875 24.29101562 C-13.57035156 23.16373047 -13.56648438 22.03644531 -13.5625 20.875 C-13.56636719 19.75931641 -13.57023437 18.64363281 -13.57421875 17.49414062 C-13.5534884 0.00809163 -13.5534884 0.00809163 0 0 Z " fill="#FCFEFE" transform="translate(424.4375,111.8125)"/>
<path d="M0 0 C20.46 0 40.92 0 62 0 C62 2.97 62 5.94 62 9 C55.07 9 48.14 9 41 9 C41 17.25 41 25.5 41 34 C34.4 34 27.8 34 21 34 C21 25.75 21 17.5 21 9 C14.07 9 7.14 9 0 9 C0 6.03 0 3.06 0 0 Z " fill="#F0F8F9" transform="translate(153,114)"/>
<path d="M0 0 C20.46 0 40.92 0 62 0 C62 2.64 62 5.28 62 8 C55.07 8 48.14 8 41 8 C41 16.25 41 24.5 41 33 C34.4 33 27.8 33 21 33 C21 24.75 21 16.5 21 8 C14.07 8 7.14 8 0 8 C0 5.36 0 2.72 0 0 Z " fill="#FCFEFD" transform="translate(287,114)"/>
<path d="M0 0 C2.12255958 1.66503007 2.41181725 2.75045848 2.7578125 5.37890625 C1.80519531 4.88519531 0.85257813 4.39148438 -0.12890625 3.8828125 C-1.39566921 3.23535588 -2.66260551 2.58823831 -3.9296875 1.94140625 C-4.55552734 1.61591797 -5.18136719 1.29042969 -5.82617188 0.95507812 C-13.60619899 -2.99603512 -20.7274411 -2.8640109 -29.3046875 -2.93359375 C-31.05168945 -2.97709961 -31.05168945 -2.97709961 -32.83398438 -3.02148438 C-42.10178378 -3.08860493 -50.45561832 -1.68449802 -58.3671875 3.37890625 C-61.35745161 6.5685213 -62.14727409 8.35384145 -62.5546875 12.75390625 C-62.20556037 16.80378095 -61.49316217 19.00244425 -59.2421875 22.37890625 C-48.27742577 31.15071563 -32.58731197 30.15331605 -19.2421875 29.37890625 C-11.18655072 28.47610315 -4.17971848 26.6081062 1.4453125 20.56640625 C3.21775131 17.61234157 4.46762814 14.57364847 5.7578125 11.37890625 C7.0720509 14.36581171 6.68070419 15.62837433 5.6953125 18.81640625 C3.10994902 24.27959514 -1.57775362 27.61337714 -7.16015625 29.75390625 C-22.82635163 34.45670411 -42.26300255 34.21151693 -57.2421875 27.37890625 C-61.89113692 24.48622661 -63.61845194 21.591952 -65.2421875 16.37890625 C-65.2421875 13.40890625 -65.2421875 10.43890625 -65.2421875 7.37890625 C-71.1821875 7.37890625 -77.1221875 7.37890625 -83.2421875 7.37890625 C-83.2215625 8.92578125 -83.2009375 10.47265625 -83.1796875 12.06640625 C-83.1796875 18.51762132 -83.44880097 24.97304466 -84.2421875 31.37890625 C-85.85904824 32.99576699 -87.632949 32.50879974 -89.86328125 32.51171875 C-90.79849609 32.51300781 -91.73371094 32.51429688 -92.69726562 32.515625 C-93.68146484 32.51175781 -94.66566406 32.50789063 -95.6796875 32.50390625 C-97.15018555 32.50970703 -97.15018555 32.50970703 -98.65039062 32.515625 C-99.58689453 32.51433594 -100.52339844 32.51304687 -101.48828125 32.51171875 C-102.78270142 32.51002686 -102.78270142 32.51002686 -104.10327148 32.50830078 C-106.2421875 32.37890625 -106.2421875 32.37890625 -108.2421875 31.37890625 C-108.7371875 19.99390625 -108.7371875 19.99390625 -109.2421875 8.37890625 C-115.44984022 8.08968252 -115.44984022 8.08968252 -121.65795898 7.81079102 C-122.42696533 7.77268311 -123.19597168 7.7345752 -123.98828125 7.6953125 C-125.17442017 7.64032593 -125.17442017 7.64032593 -126.38452148 7.58422852 C-128.2421875 7.37890625 -128.2421875 7.37890625 -129.2421875 6.37890625 C-129.34069921 4.54774742 -129.37191379 2.71270692 -129.3671875 0.87890625 C-129.36976563 -0.12140625 -129.37234375 -1.12171875 -129.375 -2.15234375 C-129.2421875 -4.62109375 -129.2421875 -4.62109375 -128.2421875 -5.62109375 C-126.2478702 -5.71514517 -124.25019207 -5.73852624 -122.25366211 -5.73461914 C-120.97240952 -5.73454361 -119.69115692 -5.73446808 -118.37107849 -5.73439026 C-116.96222902 -5.72928284 -115.55337994 -5.72406684 -114.14453125 -5.71875 C-112.71106516 -5.71688577 -111.27759843 -5.71546189 -109.84413147 -5.71446228 C-106.06458793 -5.71063747 -102.2850826 -5.70080752 -98.5055542 -5.6897583 C-94.65149452 -5.67954338 -90.79742868 -5.67496449 -86.94335938 -5.66992188 C-79.37628463 -5.65918521 -71.80924141 -5.64210924 -64.2421875 -5.62109375 C-62.47756067 -2.5329968 -62.2421875 -1.38797239 -62.2421875 2.37890625 C-61.31212891 1.78142578 -61.31212891 1.78142578 -60.36328125 1.171875 C-42.23440148 -9.6737867 -18.73946873 -9.36973437 0 0 Z M-127.2421875 -3.62109375 C-127.2421875 -0.65109375 -127.2421875 2.31890625 -127.2421875 5.37890625 C-120.3121875 5.37890625 -113.3821875 5.37890625 -106.2421875 5.37890625 C-106.2421875 13.62890625 -106.2421875 21.87890625 -106.2421875 30.37890625 C-99.6421875 30.37890625 -93.0421875 30.37890625 -86.2421875 30.37890625 C-86.2421875 22.12890625 -86.2421875 13.87890625 -86.2421875 5.37890625 C-79.3121875 5.37890625 -72.3821875 5.37890625 -65.2421875 5.37890625 C-65.2421875 2.40890625 -65.2421875 -0.56109375 -65.2421875 -3.62109375 C-85.7021875 -3.62109375 -106.1621875 -3.62109375 -127.2421875 -3.62109375 Z " fill="#3E6578" transform="translate(280.2421875,117.62109375)"/>
<path d="M0 0 C2.4375 1.5 2.4375 1.5 4 3 C4.32613281 2.50886719 4.65226563 2.01773438 4.98828125 1.51171875 C8.11231945 -0.83585947 11.44666118 -0.31491722 15.1875 -0.1875 C15.93708984 -0.17396484 16.68667969 -0.16042969 17.45898438 -0.14648438 C19.30629767 -0.11118539 21.15324066 -0.05737917 23 0 C23.495 2.475 23.495 2.475 24 5 C22.35 5.66 20.7 6.32 19 7 C19 10.96 19 14.92 19 19 C16.69 19.33 14.38 19.66 12 20 C9.66785576 16.35602463 9.76835942 13.24674388 10 9 C10.33 8.01 10.66 7.02 11 6 C10.13375 6.33 9.2675 6.66 8.375 7 C5.0023474 7.99930447 2.49068293 8.31733481 -1 8 C-1.66 7.34 -2.32 6.68 -3 6 C-5.5654594 8.5654594 -5.54046087 10.47686668 -6 14 C-4.68 14 -3.36 14 -2 14 C-1.34 13.01 -0.68 12.02 0 11 C2.625 10.8125 2.625 10.8125 5 11 C5.33 12.65 5.66 14.3 6 16 C1.30021142 19.97674419 1.30021142 19.97674419 -2.40234375 20.04296875 C-4.62710829 19.77937106 -6.80547311 19.44865883 -9 19 C-9.33 18.01 -9.66 17.02 -10 16 C-10.66 16 -11.32 16 -12 16 C-13.60086627 12.79826746 -13.49917089 9.47422941 -13 6 C-9.34263738 0.2701319 -6.68606219 -0.46110774 0 0 Z " fill="#F0CD4A" transform="translate(593,105)"/>
<path d="M0 0 C1.61358398 -0.01836914 1.61358398 -0.01836914 3.25976562 -0.03710938 C4.28650391 -0.03904297 5.31324219 -0.04097656 6.37109375 -0.04296875 C7.79119751 -0.04913208 7.79119751 -0.04913208 9.23999023 -0.05541992 C11.5625 0.1875 11.5625 0.1875 13.5625 2.1875 C13.68188477 4.41821289 13.68188477 4.41821289 13.50390625 7.16015625 C13.44783203 8.14177734 13.39175781 9.12339844 13.33398438 10.13476562 C13.26501953 11.16279297 13.19605469 12.19082031 13.125 13.25 C12.99679292 15.28227264 12.87285586 17.31482076 12.75390625 19.34765625 C12.66411499 20.70322632 12.66411499 20.70322632 12.57250977 22.08618164 C12.56920654 22.7796167 12.56590332 23.47305176 12.5625 24.1875 C13.62693866 25.47994685 13.62693866 25.47994685 16.10693359 25.26928711 C17.76716553 25.24233765 17.76716553 25.24233765 19.4609375 25.21484375 C20.66234375 25.20259766 21.86375 25.19035156 23.1015625 25.17773438 C25.65109999 25.14268473 28.20058589 25.1036466 30.75 25.06054688 C31.95398438 25.04958984 33.15796875 25.03863281 34.3984375 25.02734375 C35.50751465 25.01050537 36.6165918 24.99366699 37.75927734 24.97631836 C40.5625 25.1875 40.5625 25.1875 43.5625 27.1875 C43.890625 29.53515625 43.890625 29.53515625 43.8125 32.25 C43.79703125 33.14847656 43.7815625 34.04695313 43.765625 34.97265625 C43.5625 37.1875 43.5625 37.1875 42.5625 38.1875 C40.91588317 38.28618104 39.26504906 38.31548833 37.61547852 38.31689453 C36.03362511 38.32162277 36.03362511 38.32162277 34.41981506 38.32644653 C32.6980027 38.32341019 32.6980027 38.32341019 30.94140625 38.3203125 C29.77117416 38.32126923 28.60094208 38.32222595 27.39524841 38.32321167 C24.91445868 38.32389375 22.43366718 38.32203752 19.95288086 38.31787109 C16.14497889 38.31252803 12.33719513 38.31781271 8.52929688 38.32421875 C6.12499974 38.32355788 3.72070268 38.32227653 1.31640625 38.3203125 C-0.40236977 38.32334885 -0.40236977 38.32334885 -2.15586853 38.32644653 C-3.21358963 38.32329437 -4.27131073 38.32014221 -5.36108398 38.31689453 C-6.29516586 38.31609894 -7.22924774 38.31530334 -8.19163513 38.31448364 C-10.4375 38.1875 -10.4375 38.1875 -12.4375 37.1875 C-13.58264989 34.00909705 -13.56646176 30.92629036 -13.5703125 27.57421875 C-13.57160156 26.49076172 -13.57289063 25.40730469 -13.57421875 24.29101562 C-13.57035156 23.16373047 -13.56648438 22.03644531 -13.5625 20.875 C-13.56636719 19.75931641 -13.57023437 18.64363281 -13.57421875 17.49414062 C-13.5534884 0.00809163 -13.5534884 0.00809163 0 0 Z M-10.4375 2.1875 C-10.4375 13.4075 -10.4375 24.6275 -10.4375 36.1875 C6.7225 36.1875 23.8825 36.1875 41.5625 36.1875 C41.5625 33.5475 41.5625 30.9075 41.5625 28.1875 C31.0025 28.1875 20.4425 28.1875 9.5625 28.1875 C9.5625 19.6075 9.5625 11.0275 9.5625 2.1875 C2.9625 2.1875 -3.6375 2.1875 -10.4375 2.1875 Z " fill="#537992" transform="translate(424.4375,111.8125)"/>
<path d="M0 0 C2.1875 -0.4375 2.1875 -0.4375 5 0 C6.98441782 2.13995327 8.5023304 4.50175965 10 7 C10.66 4.69 11.32 2.38 12 0 C13.66611905 -0.042721 15.33382885 -0.04063832 17 0 C18.5220959 1.5220959 18.12959521 2.88210082 18.1328125 5 C18.13474609 6.2065625 18.13474609 6.2065625 18.13671875 7.4375 C18.13285156 8.283125 18.12898437 9.12875 18.125 10 C18.13080078 11.2684375 18.13080078 11.2684375 18.13671875 12.5625 C18.13542969 13.366875 18.13414062 14.17125 18.1328125 15 C18.13168457 15.7425 18.13055664 16.485 18.12939453 17.25 C18 19 18 19 17 20 C14.1875 20.375 14.1875 20.375 11 20 C8.625 17.5 8.625 17.5 7 15 C6.01 17.475 6.01 17.475 5 20 C3.35 20 1.7 20 0 20 C-2.46482626 13.99198599 -3.0217317 8.12905333 -1 1.9375 C-0.67 1.298125 -0.34 0.65875 0 0 Z " fill="#F8D02E" transform="translate(650,105)"/>
<path d="M0 0 C1.2065625 0.0309375 1.2065625 0.0309375 2.4375 0.0625 C2.4375 0.7225 2.4375 1.3825 2.4375 2.0625 C3.0975 2.0625 3.7575 2.0625 4.4375 2.0625 C6.0625 4.5625 6.0625 4.5625 7.4375 7.0625 C8.0975 4.7525 8.7575 2.4425 9.4375 0.0625 C11.10361905 0.019779 12.77132885 0.02186168 14.4375 0.0625 C15.4375 1.0625 15.4375 1.0625 15.55102539 2.82836914 C15.54578857 3.57723389 15.54055176 4.32609863 15.53515625 5.09765625 C15.53193359 5.90654297 15.52871094 6.71542969 15.52539062 7.54882812 C15.51701172 8.39896484 15.50863281 9.24910156 15.5 10.125 C15.49548828 10.97900391 15.49097656 11.83300781 15.48632812 12.71289062 C15.47450373 14.82945663 15.45656769 16.94598685 15.4375 19.0625 C12.35028489 19.90036631 10.43841727 20.41775296 7.4375 19.0625 C5.6875 16.5 5.6875 16.5 4.4375 14.0625 C4.210625 14.866875 3.98375 15.67125 3.75 16.5 C2.4375 19.0625 2.4375 19.0625 -0.125 19.9375 C-0.929375 19.97875 -1.73375 20.02 -2.5625 20.0625 C-4.0845959 18.5404041 -3.69209521 17.18039918 -3.6953125 15.0625 C-3.69660156 14.258125 -3.69789063 13.45375 -3.69921875 12.625 C-3.69535156 11.779375 -3.69148438 10.93375 -3.6875 10.0625 C-3.69136719 9.216875 -3.69523437 8.37125 -3.69921875 7.5 C-3.69792969 6.695625 -3.69664062 5.89125 -3.6953125 5.0625 C-3.69418457 4.32 -3.69305664 3.5775 -3.69189453 2.8125 C-3.4793143 -0.06254742 -2.88685782 0.07041117 0 0 Z " fill="#FACA19" transform="translate(487.5625,104.9375)"/>
<path d="M0 0 C4.29 0 8.58 0 13 0 C13 0.66 13 1.32 13 2 C13.66 2 14.32 2 15 2 C15.70527593 5.29128769 16.04997647 7.72790589 15.4375 11.0625 C14.93950255 14.40619717 15.50937115 16.01874229 17 19 C16 20 16 20 13.75 20.5 C10.41510554 19.89365555 10.0867084 19.18378168 8.1875 16.5 C7.44190915 15.34376065 6.70739483 14.17999478 6 13 C6 14.98 6 16.96 6 19 C2.86650268 20.04449911 2.01031744 19.93423645 -1 19 C-1.22307542 16.7722603 -1.42788178 14.54268636 -1.625 12.3125 C-1.74101563 11.07113281 -1.85703125 9.82976562 -1.9765625 8.55078125 C-2 5 -2 5 0 0 Z M5 6 C5.66 6.66 6.32 7.32 7 8 C7.66 7.34 8.32 6.68 9 6 C7.68 6 6.36 6 5 6 Z " fill="#F8C722" transform="translate(542,105)"/>
<path d="M0 0 C2.5 0.125 2.5 0.125 3.5 1.125 C3.57258946 3.31139453 3.58373783 5.50000389 3.5625 7.6875 C3.55347656 8.88503906 3.54445313 10.08257812 3.53515625 11.31640625 C3.52355469 12.24324219 3.51195312 13.17007813 3.5 14.125 C4.82 14.125 6.14 14.125 7.5 14.125 C7.48839844 13.19816406 7.47679687 12.27132812 7.46484375 11.31640625 C7.45582031 10.11886719 7.44679688 8.92132813 7.4375 7.6875 C7.42589844 6.49253906 7.41429687 5.29757813 7.40234375 4.06640625 C7.5 1.125 7.5 1.125 8.5 0.125 C11.5 0 11.5 0 14.5 0.125 C16.36251681 1.98751681 15.80214039 4.8753549 15.875 7.375 C15.8548864 13.48953555 15.8548864 13.48953555 14.41796875 16.0625 C13.0625 17.375 13.0625 17.375 10.5 19.125 C10.17 19.455 9.84 19.785 9.5 20.125 C5.4451108 20.52253816 2.98850343 20.35914885 -0.7109375 18.5859375 C-3.5 16.125 -3.5 16.125 -4.12109375 12.48828125 C-4.0907125 11.13697619 -4.02860245 9.78607285 -3.9375 8.4375 C-3.91880859 7.74849609 -3.90011719 7.05949219 -3.88085938 6.34960938 C-3.65650243 0.18282512 -3.65650243 0.18282512 0 0 Z " fill="#F4C629" transform="translate(563.5,104.875)"/>
<path d="M0 0 C4.40858601 2.40468328 4.40858601 2.40468328 6 5 C6.49217729 8.39343291 6.3567502 11.59766011 6 15 C5.34 15 4.68 15 4 15 C3.64228516 15.96486328 3.64228516 15.96486328 3.27734375 16.94921875 C2 19 2 19 -0.05859375 19.64453125 C-0.84363281 19.69996094 -1.62867188 19.75539063 -2.4375 19.8125 C-3.61119141 19.91498047 -3.61119141 19.91498047 -4.80859375 20.01953125 C-8.1745199 19.98953191 -9.74427117 19.24111575 -12.1875 16.9375 C-14.51689929 13.16226666 -14.88410635 10.33299649 -14 6 C-10.40663736 0.17627435 -6.66613282 -0.67791181 0 0 Z M-6 6 C-7.01540112 10.10223585 -7.01540112 10.10223585 -6 14 C-4.35 14 -2.7 14 -1 14 C-1 11.69 -1 9.38 -1 7 C-2.65 6.67 -4.3 6.34 -6 6 Z " fill="#F3CB38" transform="translate(641,105)"/>
<path d="M0 0 C20.46 0 40.92 0 62 0 C62 2.64 62 5.28 62 8 C55.07 8 48.14 8 41 8 C41 16.25 41 24.5 41 33 C34.4 33 27.8 33 21 33 C21 31.02 21 29.04 21 27 C21.33 28.32 21.66 29.64 22 31 C26.95 31 31.9 31 37 31 C38.86795893 25.75491535 38.86795893 25.75491535 39.08984375 20.765625 C39.05987305 19.65767578 39.05987305 19.65767578 39.02929688 18.52734375 C38.96746368 16.99335424 38.90229268 15.45949606 38.83398438 13.92578125 C38.78364481 11.95038711 38.88140193 9.97247321 39 8 C42.10085571 5.93276286 42.72931681 5.75502577 46.23046875 5.8046875 C47.43413086 5.81435547 47.43413086 5.81435547 48.66210938 5.82421875 C49.49548828 5.84097656 50.32886719 5.85773438 51.1875 5.875 C52.4549707 5.88853516 52.4549707 5.88853516 53.74804688 5.90234375 C55.83215243 5.92589297 57.91611217 5.96176353 60 6 C60 4.68 60 3.36 60 2 C52.73279988 2.06115228 45.46595347 2.13821482 38.19914436 2.23571491 C34.82500715 2.28048366 31.45099248 2.31972472 28.07666016 2.34643555 C24.19923635 2.37984936 20.32246567 2.4321593 16.4453125 2.48828125 C14.6233989 2.49786613 14.6233989 2.49786613 12.76467896 2.50764465 C11.64366791 2.52743881 10.52265686 2.54723297 9.36767578 2.56762695 C8.37728302 2.57873001 7.38689026 2.58983307 6.3664856 2.60127258 C5.58554535 2.73285263 4.8046051 2.86443268 4 3 C3.01 4.485 3.01 4.485 2 6 C3.19238281 5.97679688 4.38476562 5.95359375 5.61328125 5.9296875 C7.17968124 5.91092822 8.746088 5.89272819 10.3125 5.875 C11.09818359 5.85824219 11.88386719 5.84148437 12.69335938 5.82421875 C13.45068359 5.81777344 14.20800781 5.81132813 14.98828125 5.8046875 C15.68477783 5.79421387 16.38127441 5.78374023 17.09887695 5.77294922 C19 6 19 6 22 8 C14.74 8 7.48 8 0 8 C0 5.36 0 2.72 0 0 Z " fill="#DEF4F8" transform="translate(287,114)"/>
<path d="M0 0 C2.66058731 2.14144833 3.7253011 3.56867416 4.37109375 6.93359375 C4.59425621 10.51095567 4.15244562 12.68848069 2.5625 15.9375 C-1.07416016 18.86456793 -4.39025359 19.29634084 -9 19 C-12.670261 17.43818681 -13.7727373 16.34089404 -16 13 C-16.48919916 8.67874079 -16.26188841 6.48765429 -14.1875 2.625 C-10.27705848 -2.06752982 -5.52304925 -1.42562463 0 0 Z M-8 5 C-9.34404775 6.11836224 -9.34404775 6.11836224 -9.125 9 C-9.34404775 11.88163776 -9.34404775 11.88163776 -8 13 C-6.33382885 13.04063832 -4.66611905 13.042721 -3 13 C-3 10.69 -3 8.38 -3 6 C-4.65614657 5.61781233 -6.32457024 5.28604898 -8 5 Z " fill="#F1C532" transform="translate(478,106)"/>
<path d="M0 0 C2.9375 1.5 2.9375 1.5 5 3 C4.67 4.32 4.34 5.64 4 7 C3.34 7 2.68 7 2 7 C2 7.66 2 8.32 2 9 C2.66 9 3.32 9 4 9 C6 12 6 12 5.6875 14.0625 C4.38486842 17.73355263 4.38486842 17.73355263 2.375 19.125 C-0.95585909 20.35215861 -3.47404282 20.37115339 -7 20 C-9.9375 18.25 -9.9375 18.25 -12 16 C-12 14.68 -12 13.36 -12 12 C-11.01 11.67 -10.02 11.34 -9 11 C-9.495 10.5875 -9.99 10.175 -10.5 9.75 C-12 8 -12 8 -12 4 C-11.34 4 -10.68 4 -10 4 C-9.67 3.01 -9.34 2.02 -9 1 C-5.93570224 -0.53214888 -3.3834358 -0.22938548 0 0 Z M-6 12 C-5.67 12.66 -5.34 13.32 -5 14 C-2.97536745 14.65213292 -2.97536745 14.65213292 -1 15 C-1 14.34 -1 13.68 -1 13 C-2.65 12.67 -4.3 12.34 -6 12 Z " fill="#F6C827" transform="translate(516,105)"/>
<path d="M0 0 C2.875 2.5 2.875 2.5 5 5 C4.67 5.99 4.34 6.98 4 8 C0.50765756 8.09978121 -2.59437148 7.77842938 -6 7 C-6 8.65 -6 10.3 -6 12 C-4.10820797 12.6814823 -4.10820797 12.6814823 -2 13 C-1.34 12.34 -0.68 11.68 0 11 C2.625 11.375 2.625 11.375 5 12 C4.69054606 14.86244896 4.31514492 16.60606886 2.5 18.875 C-1.42415601 20.6408702 -4.9429417 20.33250172 -9 19 C-12.0853087 15.83943987 -12.87686054 13.77988326 -13.5625 9.4375 C-12.85439182 5.11017224 -11.35755821 3.71802331 -8 1 C-5.11138291 -0.44430855 -3.20352299 -0.37688506 0 0 Z " fill="#EDC94A" transform="translate(456,105)"/>
<path d="M0 0 C1.48831242 0.00667405 2.97660807 0.01863442 4.46484375 0.03515625 C5.22345703 0.03966797 5.98207031 0.04417969 6.76367188 0.04882812 C8.64326246 0.06064945 10.52281274 0.07858547 12.40234375 0.09765625 C12.78453142 1.75380282 13.11629477 3.42222649 13.40234375 5.09765625 C13.07234375 5.42765625 12.74234375 5.75765625 12.40234375 6.09765625 C10.75234375 6.09765625 9.10234375 6.09765625 7.40234375 6.09765625 C7.40234375 10.38765625 7.40234375 14.67765625 7.40234375 19.09765625 C3.40234375 20.09765625 3.40234375 20.09765625 1.40234375 20.09765625 C-0.92980049 16.45368088 -0.82929683 13.34440013 -0.59765625 9.09765625 C-0.26765625 8.10765625 0.06234375 7.11765625 0.40234375 6.09765625 C-1.24765625 6.09765625 -2.89765625 6.09765625 -4.59765625 6.09765625 C-4.64037725 4.4315372 -4.63829457 2.7638274 -4.59765625 1.09765625 C-3.59765625 0.09765625 -3.59765625 0.09765625 0 0 Z " fill="#EBCE58" transform="translate(526.59765625,104.90234375)"/>
<path d="M0 0 C0.33 0 0.66 0 1 0 C1.33 1.98 1.66 3.96 2 6 C8.93 6 15.86 6 23 6 C23 14.25 23 22.5 23 31 C29.6 31 36.2 31 43 31 C43 31.33 43 31.66 43 32 C39.3545658 32.19588601 35.7086421 32.38030536 32.0625 32.5625 C30.50112305 32.64661133 30.50112305 32.64661133 28.90820312 32.73242188 C27.91884766 32.78076172 26.92949219 32.82910156 25.91015625 32.87890625 C24.99371338 32.9260376 24.07727051 32.97316895 23.13305664 33.02172852 C21 33 21 33 20 32 C19.91286169 30.29227642 19.89299993 28.58101351 19.90234375 26.87109375 C19.90556641 25.83662109 19.90878906 24.80214844 19.91210938 23.73632812 C19.92048828 22.64771484 19.92886719 21.55910156 19.9375 20.4375 C19.94201172 19.34501953 19.94652344 18.25253906 19.95117188 17.12695312 C19.9630016 14.41794568 19.98093769 11.7089662 20 9 C14.06 9.33 8.12 9.66 2 10 C1.34 12.31 0.68 14.62 0 17 C-0.33 17 -0.66 17 -1 17 C-3.66077956 7.48627741 -3.66077956 7.48627741 -1.625 2.875 C-1.08875 1.92625 -0.5525 0.9775 0 0 Z " fill="#688CA0" transform="translate(285,116)"/>
<path d="M0 0 C1.4540625 0.0309375 1.4540625 0.0309375 2.9375 0.0625 C4.51727708 3.22205417 4.12197084 6.59713817 4.125 10.0625 C4.13724609 10.79984375 4.14949219 11.5371875 4.16210938 12.296875 C4.16737395 14.22020058 4.05953447 16.14304263 3.9375 18.0625 C1.9375 20.0625 1.9375 20.0625 -0.6875 20.1875 C-1.47125 20.14625 -2.255 20.105 -3.0625 20.0625 C-5.59149173 16.29323646 -5.13224986 12.69483444 -4.75 8.375 C-4.70166016 7.68599609 -4.65332031 6.99699219 -4.60351562 6.28710938 C-4.12167049 0.08411572 -4.12167049 0.08411572 0 0 Z " fill="#F8D657" transform="translate(622.0625,104.9375)"/>
<path d="M0 0 C3.43359375 1.75390625 3.43359375 1.75390625 6 4 C6.9526868 7.05720961 6.58668967 9.87098843 6 13 C4.27310955 16.28931514 3.5579199 16.8140267 0 18 C-2.45451334 18.17209806 -4.91488918 18.26658438 -7.375 18.3125 C-9.33566406 18.36857422 -9.33566406 18.36857422 -11.3359375 18.42578125 C-15.51361607 17.9403154 -17.07664569 16.95072654 -20 14 C-21.58939347 10.82121306 -21.41576711 8.5043228 -21 5 C-16.13100964 -1.93462263 -7.77767958 -1.20487558 0 0 Z M-18 5 C-18.07148199 6.35243917 -18.08399454 7.70834367 -18.0625 9.0625 C-18.041875 10.361875 -18.02125 11.66125 -18 13 C-12.7423468 16.32062307 -8.05087587 16.77652907 -2 16 C0.48050929 14.83567931 2.09425952 13.90574048 4 12 C4.50031206 8.58428147 4.50031206 8.58428147 4 5 C-2.33786477 -0.13880927 -11.83995958 -1.16004042 -18 5 Z " fill="#4E778A" transform="translate(258,122)"/>
<path d="M0 0 C1.70209877 0.00333092 1.70209877 0.00333092 3.43858337 0.00672913 C4.71983597 0.00680466 6.00108856 0.00688019 7.32116699 0.00695801 C8.73001646 0.01206542 10.13886554 0.01728143 11.54771423 0.02259827 C12.98118033 0.02446249 14.41464706 0.02588637 15.84811401 0.02688599 C19.62765755 0.03071079 23.40716288 0.04054075 27.18669128 0.05158997 C31.04075097 0.06180489 34.8948168 0.06638378 38.74888611 0.07142639 C46.31596085 0.08216306 53.88300407 0.09923903 61.45005798 0.12025452 C61.45005798 0.78025452 61.45005798 1.44025452 61.45005798 2.12025452 C40.66005798 2.12025452 19.87005798 2.12025452 -1.54994202 2.12025452 C-1.54994202 5.42025452 -1.54994202 8.72025452 -1.54994202 12.12025452 C-1.87994202 12.12025452 -2.20994202 12.12025452 -2.54994202 12.12025452 C-2.74395835 10.30844046 -2.92998576 8.49576919 -3.11244202 6.68275452 C-3.21685608 5.67341858 -3.32127014 4.66408264 -3.42884827 3.62416077 C-3.4688092 2.7978717 -3.50877014 1.97158264 -3.54994202 1.12025452 C-2.54994202 0.12025452 -2.54994202 0.12025452 0 0 Z " fill="#305A6C" transform="translate(288.54994201660156,111.87974548339844)"/>
<path d="M0 0 C1.60101563 -0.05607422 1.60101563 -0.05607422 3.234375 -0.11328125 C6.11529821 -0.14593655 8.78887311 -0.13945199 11.625 0.375 C12.66142945 2.01926025 13.6620847 3.68663632 14.625 5.375 C18.16157343 6.19749593 21.69384492 6.16600304 25.3125 6.1875 C26.30056641 6.21263672 27.28863281 6.23777344 28.30664062 6.26367188 C30.74649336 6.32260552 33.18454995 6.35883808 35.625 6.375 C35.955 5.715 36.285 5.055 36.625 4.375 C37.615 4.87 37.615 4.87 38.625 5.375 C38.625 6.035 38.625 6.695 38.625 7.375 C32.27709101 8.23282554 26.02330546 8.49166261 19.625 8.1875 C18.366875 8.13207031 17.10875 8.07664063 15.8125 8.01953125 C12.625 7.375 12.625 7.375 11.2421875 5.35546875 C9.8447156 3.22302592 9.8447156 3.22302592 7.79785156 2.98364258 C5.43684485 2.83536804 3.1151061 2.82987874 0.75 2.875 C-0.05308594 2.85953125 -0.85617187 2.8440625 -1.68359375 2.828125 C-6.61565355 2.80143569 -6.61565355 2.80143569 -10.67578125 5.359375 C-15.14688051 8.69814087 -20.25676981 8.05517179 -25.6875 8.125 C-26.80962891 8.15464844 -27.93175781 8.18429688 -29.08789062 8.21484375 C-31.85033207 8.28537417 -34.61193774 8.33815493 -37.375 8.375 C-35.625 3.5 -35.625 3.5 -33.375 2.375 C-33.705 3.365 -34.035 4.355 -34.375 5.375 C-27.775 5.705 -21.175 6.035 -14.375 6.375 C-13.715 4.725 -13.055 3.075 -12.375 1.375 C-9.8739181 -1.1260819 -3.356551 0.04427106 0 0 Z " fill="#40667B" transform="translate(371.375,141.625)"/>
<path d="M0 0 C10.56 0 21.12 0 32 0 C32 2.64 32 5.28 32 8 C14.84 8 -2.32 8 -20 8 C-20 7.67 -20 7.34 -20 7 C-13.68325764 6.68823477 -7.36610758 6.38608491 -1.04858398 6.09057617 C1.09995914 5.98894384 3.24839981 5.88512085 5.39672852 5.77905273 C8.48689767 5.62686637 11.57735108 5.48259387 14.66796875 5.33984375 C16.10573921 5.26648048 16.10573921 5.26648048 17.57255554 5.19163513 C18.47311172 5.1515181 19.37366791 5.11140106 20.30151367 5.07006836 C21.08983078 5.03231796 21.87814789 4.99456757 22.69035339 4.95567322 C25.22823695 5.00438033 27.52968065 5.43527504 30 6 C29.505 4.02 29.505 4.02 29 2 C19.43 1.67 9.86 1.34 0 1 C0 0.67 0 0.34 0 0 Z " fill="#B9D7DF" transform="translate(434,140)"/>
<path d="M0 0 C2.29141286 -0.05384521 4.58318188 -0.09272087 6.875 -0.125 C8.78925781 -0.15980469 8.78925781 -0.15980469 10.7421875 -0.1953125 C14 0 14 0 16 2 C16.11938477 4.23071289 16.11938477 4.23071289 15.94140625 6.97265625 C15.88533203 7.95427734 15.82925781 8.93589844 15.77148438 9.94726562 C15.70251953 10.97529297 15.63355469 12.00332031 15.5625 13.0625 C15.43429292 15.09477264 15.31035586 17.12732076 15.19140625 19.16015625 C15.13154541 20.06386963 15.07168457 20.96758301 15.01000977 21.89868164 C15.00670654 22.5921167 15.00340332 23.28555176 15 24 C16.06630639 25.29436297 16.06630639 25.29436297 18.56030273 25.08178711 C19.67348877 25.0638208 20.7866748 25.04585449 21.93359375 25.02734375 C23.7424707 25.00897461 23.7424707 25.00897461 25.58789062 24.99023438 C28.15044792 24.95513085 30.71295423 24.91608016 33.27539062 24.87304688 C34.48259766 24.86208984 35.68980469 24.85113281 36.93359375 24.83984375 C38.6050647 24.81458618 38.6050647 24.81458618 40.31030273 24.78881836 C43 25 43 25 45 27 C28.665 27.495 28.665 27.495 12 28 C12 19.42 12 10.84 12 2 C8.04 1.67 4.08 1.34 0 1 C0 0.67 0 0.34 0 0 Z " fill="#5F879C" transform="translate(422,112)"/>
<path d="M0 0 C6.6 0 13.2 0 20 0 C19.67 1.32 19.34 2.64 19 4 C19 3.34 19 2.68 19 2 C11.08 2.495 11.08 2.495 3 3 C2.67 12.57 2.34 22.14 2 32 C7.28 32 12.56 32 18 32 C18 32.33 18 32.66 18 33 C12.06 33 6.12 33 0 33 C0 22.11 0 11.22 0 0 Z " fill="#DBF2F7" transform="translate(414,114)"/>
<path d="M0 0 C4.62 0 9.24 0 14 0 C14 0.99 14 1.98 14 3 C12.35 3 10.7 3 9 3 C9 7.62 9 12.24 9 17 C7.68 17 6.36 17 5 17 C3.99503148 13.98509443 3.89664697 11.95818308 3.9375 8.8125 C3.94652344 7.91144531 3.95554687 7.01039062 3.96484375 6.08203125 C3.97644531 5.39496094 3.98804688 4.70789063 4 4 C2.35 4 0.7 4 -1 4 C-0.67 2.68 -0.34 1.36 0 0 Z " fill="#FAC914" transform="translate(601,106)"/>
<path d="M0 0 C2.9375 1.5 2.9375 1.5 5 3 C4.67 4.32 4.34 5.64 4 7 C3.34 7 2.68 7 2 7 C2 7.66 2 8.32 2 9 C2.66 9 3.32 9 4 9 C6 12 6 12 5.6875 14.0625 C4.38486842 17.73355263 4.38486842 17.73355263 2.375 19.125 C-0.9445511 20.34799251 -3.49020714 20.37604924 -7 20 C-9.4375 18 -9.4375 18 -11 16 C-10.01 16.33 -9.02 16.66 -8 17 C-6.10529184 17.0685495 -4.2083166 17.08480372 -2.3125 17.0625 C-1.31863281 17.05347656 -0.32476563 17.04445313 0.69921875 17.03515625 C1.45847656 17.02355469 2.21773437 17.01195313 3 17 C3 14.69 3 12.38 3 10 C0.03 9.01 -2.94 8.02 -6 7 C-6 6.01 -6 5.02 -6 4 C-4.02 4 -2.04 4 0 4 C-0.33 3.34 -0.66 2.68 -1 2 C-3.31 2.33 -5.62 2.66 -8 3 C-8.33 5.31 -8.66 7.62 -9 10 C-9.99 9.34 -10.98 8.68 -12 8 C-12 6.68 -12 5.36 -12 4 C-11.34 4 -10.68 4 -10 4 C-9.67 3.01 -9.34 2.02 -9 1 C-5.93570224 -0.53214888 -3.3834358 -0.22938548 0 0 Z " fill="#F1CA46" transform="translate(516,105)"/>
<path d="M0 0 C10.89 0 21.78 0 33 0 C33 3.3 33 6.6 33 10 C32 11 32 11 29.86766052 11.12025452 C28.92834183 11.11803391 27.98902313 11.11581329 27.02124023 11.11352539 C25.96021591 11.11344986 24.89919159 11.11337433 23.80601501 11.11329651 C22.07479149 11.10555458 22.07479149 11.10555458 20.30859375 11.09765625 C19.13361832 11.0962413 17.95864288 11.09482635 16.74806213 11.09336853 C12.97784936 11.08774992 9.20769496 11.07519426 5.4375 11.0625 C2.88867273 11.0574874 0.33984453 11.05292408 -2.20898438 11.04882812 C-8.47267633 11.03777444 -14.73633399 11.02101821 -21 11 C-21 10.34 -21 9.68 -21 9 C-3.84 9 13.32 9 31 9 C31 6.36 31 3.72 31 1 C20.77 1 10.54 1 0 1 C0 0.67 0 0.34 0 0 Z " fill="#3A6071" transform="translate(435,139)"/>
<path d="M0 0 C1.65 0 3.3 0 5 0 C5 5.61 5 11.22 5 17 C3.35 17.33 1.7 17.66 0 18 C-0.66 16.35 -1.32 14.7 -2 13 C-2.66 13 -3.32 13 -4 13 C-3.6875 11.0625 -3.6875 11.0625 -3 9 C-2.01 8.67 -1.02 8.34 0 8 C0 5.36 0 2.72 0 0 Z " fill="#F7CB2B" transform="translate(663,107)"/>
<path d="M0 0 C2.08216766 -0.00663533 4.16464055 0.01927554 6.24609375 0.07421875 C7.29990234 0.05939453 8.35371094 0.04457031 9.43945312 0.02929688 C12.29335877 0.0602582 14.89437228 0.15450564 17.68359375 0.76171875 C19.8984375 3.3046875 19.8984375 3.3046875 20.68359375 5.76171875 C19.36359375 5.76171875 18.04359375 5.76171875 16.68359375 5.76171875 C16.68359375 5.10171875 16.68359375 4.44171875 16.68359375 3.76171875 C13.60034017 3.70349345 10.5172287 3.66804741 7.43359375 3.63671875 C6.56089844 3.61996094 5.68820312 3.60320312 4.7890625 3.5859375 C3.52255859 3.57626953 3.52255859 3.57626953 2.23046875 3.56640625 C1.45541992 3.55593262 0.68037109 3.54545898 -0.11816406 3.53466797 C-2.60958394 3.79200032 -4.18617468 4.46370846 -6.31640625 5.76171875 C-7.64552555 7.45452251 -7.64552555 7.45452251 -8.69140625 9.44921875 C-11.14940208 13.63776617 -14.05589002 17.17627135 -17.31640625 20.76171875 C-17.97640625 20.43171875 -18.63640625 20.10171875 -19.31640625 19.76171875 C-18.6409375 18.89289063 -17.96546875 18.0240625 -17.26953125 17.12890625 C-16.36838453 15.96492507 -15.46734878 14.80085798 -14.56640625 13.63671875 C-14.12296875 13.06695312 -13.67953125 12.4971875 -13.22265625 11.91015625 C-12.784375 11.34296875 -12.34609375 10.77578125 -11.89453125 10.19140625 C-11.447146 9.62429932 -10.99976074 9.05719238 -10.53881836 8.47290039 C-9.10343561 6.57013737 -9.10343561 6.57013737 -7.7109375 3.375 C-4.87292562 0.27772439 -4.05715367 0.29794829 0 0 Z " fill="#DBF1F5" transform="translate(365.31640625,113.23828125)"/>
<path d="M0 0 C2.875 2.5 2.875 2.5 5 5 C4.67 5.99 4.34 6.98 4 8 C0.49986539 8.10000385 -2.58300716 7.73880926 -6 7 C-6.66 7 -7.32 7 -8 7 C-8.66 8.65 -9.32 10.3 -10 12 C-10.33 12 -10.66 12 -11 12 C-11 9.69 -11 7.38 -11 5 C-10.34 5 -9.68 5 -9 5 C-8.87625 4.360625 -8.7525 3.72125 -8.625 3.0625 C-8.41875 2.381875 -8.2125 1.70125 -8 1 C-5.11138291 -0.44430855 -3.20352299 -0.37688506 0 0 Z " fill="#ECC534" transform="translate(456,105)"/>
<path d="M0 0 C2.31 0.33 4.62 0.66 7 1 C7 4.3 7 7.6 7 11 C0.25 11.125 0.25 11.125 -2 10 C-2 10.99 -2 11.98 -2 13 C1.63 13 5.26 13 9 13 C5.24874159 15.50083894 3.47933107 15.21222497 -0.8359375 14.59375 C-3 14 -3 14 -5.5625 11.9375 C-7.49058302 7.99750426 -7.29513021 5.35317058 -7 1 C-6.67 1 -6.34 1 -6 1 C-5.67 2.65 -5.34 4.3 -5 6 C-2.12579877 3.28395285 -2.12579877 3.28395285 0 0 Z M1 1 C-0.01540112 5.10223585 -0.01540112 5.10223585 1 9 C2.65 9 4.3 9 6 9 C6 6.69 6 4.38 6 2 C4.35 1.67 2.7 1.34 1 1 Z " fill="#EEC640" transform="translate(634,110)"/>
<path d="M0 0 C4.62 0 9.24 0 14 0 C12.515 1.485 12.515 1.485 11 3 C10.41907008 6.19245998 10.41907008 6.19245998 10.3125 9.6875 C10.24675781 10.86699219 10.18101562 12.04648438 10.11328125 13.26171875 C10.07589844 14.16535156 10.03851562 15.06898437 10 16 C8.68 16 7.36 16 6 16 C5.92652344 14.96939453 5.92652344 14.96939453 5.8515625 13.91796875 C5.77679687 13.01691406 5.70203125 12.11585937 5.625 11.1875 C5.55539062 10.29417969 5.48578125 9.40085937 5.4140625 8.48046875 C5.13354964 5.75601501 5.13354964 5.75601501 3 3 C2.01 2.67 1.02 2.34 0 2 C0 1.34 0 0.68 0 0 Z " fill="#FBC813" transform="translate(523,107)"/>
<path d="M0 0 C0.66 0.33 1.32 0.66 2 1 C1.95875 1.9075 1.9175 2.815 1.875 3.75 C1.99816307 6.95223983 2.09907459 8.46543278 4 11 C6.53770003 12.28254644 6.53770003 12.28254644 9 13 C9 13.33 9 13.66 9 14 C5.97227966 14.6662304 3.10562014 15.11425358 0 15 C-3.0625 12.9375 -3.0625 12.9375 -5 10 C-5.3125 6.6875 -5.3125 6.6875 -5 4 C-4.34 4 -3.68 4 -3 4 C-2.67 3.01 -2.34 2.02 -2 1 C-1.34 0.67 -0.68 0.34 0 0 Z " fill="#F5C630" transform="translate(467,109)"/>
<path d="M0 0 C4.38004501 3.96941579 7.63586642 8.52564612 11.0625 13.328125 C13.25111411 16.34629446 15.56249358 19.1816332 18 22 C14.74610012 24.16926659 13.86604043 24.24080049 10.11328125 24.1953125 C9.17548828 24.18886719 8.23769531 24.18242187 7.27148438 24.17578125 C5.80678711 24.15064453 5.80678711 24.15064453 4.3125 24.125 C3.32443359 24.11597656 2.33636719 24.10695312 1.31835938 24.09765625 C-1.12133765 24.0740843 -3.56054697 24.04118022 -6 24 C-6 23.67 -6 23.34 -6 23 C0.6 23 7.2 23 14 23 C12.453125 20.834375 10.90625 18.66875 9.3125 16.4375 C5.875 11.625 2.4375 6.8125 -1 2 C-0.67 1.34 -0.34 0.68 0 0 Z " fill="#5E8594" transform="translate(392,124)"/>
<path d="M0 0 C-3.82517513 2.39073445 -7.59665524 2.55966552 -12 3 C-12 3.99 -12 4.98 -12 6 C-4.26291674 6.12152487 3.307359 5.84800767 11 5 C4.82725638 8.56119824 -1.96777672 8.15579 -8.875 8.125 C-9.73480469 8.12886719 -10.59460938 8.13273438 -11.48046875 8.13671875 C-16.74346615 8.12873241 -21.79196324 7.76126755 -27 7 C-27 6.67 -27 6.34 -27 6 C-21.06 5.505 -21.06 5.505 -15 5 C-15.66 3.35 -16.32 1.7 -17 0 C-14.54203147 -0.19436491 -12.08390706 -0.3807742 -9.625 -0.5625 C-8.92632812 -0.61857422 -8.22765625 -0.67464844 -7.5078125 -0.73242188 C-2.2265625 -1.11328125 -2.2265625 -1.11328125 0 0 Z " fill="#DCF2F7" transform="translate(260,140)"/>
<path d="M0 0 C0.33 1.32 0.66 2.64 1 4 C0.34 4 -0.32 4 -1 4 C-0.67 4.66 -0.34 5.32 0 6 C1.93742341 6.02703381 3.87495479 6.04641125 5.8125 6.0625 C7.43091797 6.07990234 7.43091797 6.07990234 9.08203125 6.09765625 C12.06512169 6.13624766 12.06512169 6.13624766 15 5 C15.73323796 2.98491642 15.73323796 2.98491642 16 1 C18.64 1 21.28 1 24 1 C24 1.33 24 1.66 24 2 C21.69 2 19.38 2 17 2 C16.7834375 3.175625 16.7834375 3.175625 16.5625 4.375 C16 7 16 7 15 9 C8.07 9 1.14 9 -6 9 C-4.02 6.03 -2.04 3.06 0 0 Z " fill="#CBE4E9" transform="translate(342,139)"/>
<path d="M0 0 C3.72875388 -0.14560195 7.45677434 -0.23417043 11.1875 -0.3125 C12.24259766 -0.35439453 13.29769531 -0.39628906 14.38476562 -0.43945312 C22.24868048 -0.56348964 22.24868048 -0.56348964 26.09375 2.3203125 C26.7228125 3.20460938 27.351875 4.08890625 28 5 C28.763125 6.051875 29.52625 7.10375 30.3125 8.1875 C32 11 32 11 32 13 C31.34 13 30.68 13 30 13 C29.56300781 11.9171875 29.56300781 11.9171875 29.1171875 10.8125 C27.47862177 7.10253987 26.32921614 5.40513713 23 3 C15.14295597 1.61051364 6.91449255 2.39964755 -1 3 C-0.67 2.01 -0.34 1.02 0 0 Z " fill="#29566A" transform="translate(360,112)"/>
<path d="M0 0 C3.28465896 2.79196011 5.01321958 6.23196817 7 10 C7 10.66 7 11.32 7 12 C2.71 12 -1.58 12 -6 12 C-4.35649921 7.06949764 -2.93391654 4.10748316 0 0 Z M0 5 C-0.66 6.65 -1.32 8.3 -2 10 C-0.35 10 1.3 10 3 10 C2.65213292 8.02463255 2.65213292 8.02463255 2 6 C1.34 5.67 0.68 5.34 0 5 Z " fill="#49747F" transform="translate(371,123)"/>
<path d="M0 0 C1.32 0 2.64 0 4 0 C5.32 2.64 6.64 5.28 8 8 C7.01 8.33 6.02 8.66 5 9 C5 8.34 5 7.68 5 7 C2.83059079 7.79895413 2.83059079 7.79895413 2.3125 9.875 C1.81011603 12.18183235 1.81011603 12.18183235 3 15 C2.01 15 1.02 15 0 15 C-1.6117046 10.1648862 -1.60116168 4.80348505 0 0 Z " fill="#FBC811" transform="translate(651,107)"/>
<path d="M0 0 C1.3142384 2.98690546 0.92289169 4.24946808 -0.0625 7.4375 C-3.09370987 13.84281678 -8.67654256 16.61378964 -15 19 C-18.47325181 20.1577506 -21.36067448 20.06866652 -25 20 C-25 19.34 -25 18.68 -25 18 C-24.13117188 17.82984375 -23.26234375 17.6596875 -22.3671875 17.484375 C-12.26788036 15.37035193 -12.26788036 15.37035193 -4.3125 9.1875 C-2.54006119 6.23343532 -1.29018436 3.19474222 0 0 Z " fill="#476D79" transform="translate(286,129)"/>
<path d="M0 0 C2.475 0.495 2.475 0.495 5 1 C5 5.95 5 10.9 5 16 C3.68 15.67 2.36 15.34 1 15 C1.020625 13.865625 1.04125 12.73125 1.0625 11.5625 C1.41577477 8.18424326 1.41577477 8.18424326 0 7 C-0.04092937 4.66702567 -0.04241723 2.33294775 0 0 Z " fill="#FCC814" transform="translate(619,107)"/>
<path d="M0 0 C1.29550781 -0.02835937 2.59101563 -0.05671875 3.92578125 -0.0859375 C8.26973254 0.44634314 10.41760249 1.49186456 13.6875 4.375 C14.4743118 7.24948579 13.98990799 9.35092012 13.6875 12.375 C13.0275 12.375 12.3675 12.375 11.6875 12.375 C11.666875 11.281875 11.64625 10.18875 11.625 9.0625 C11.0754558 5.11522944 11.0754558 5.11522944 7.5625 3.4375 C2.52291098 1.77824881 -1.65494742 1.64185174 -6.5625 3.8125 C-7.47 4.328125 -8.3775 4.84375 -9.3125 5.375 C-10.3025 5.705 -11.2925 6.035 -12.3125 6.375 C-9.68862349 0.31990036 -6.25026196 0.06182257 0 0 Z " fill="#45667A" transform="translate(250.3125,121.625)"/>
<path d="M0 0 C0.66 0 1.32 0 2 0 C3.28403083 4.4941079 2.90525135 5.23687162 1 10 C-5.6 9.67 -12.2 9.34 -19 9 C-18.938125 11.6296875 -18.938125 11.6296875 -18.875 14.3125 C-18.75 19.625 -18.75 19.625 -21 23 C-21 18.05 -21 13.1 -21 8 C-14.07 8 -7.14 8 0 8 C0 5.36 0 2.72 0 0 Z " fill="#6591A2" transform="translate(216,116)"/>
<path d="M0 0 C0.99 0.99 1.98 1.98 3 3 C-0.3 2.67 -3.6 2.34 -7 2 C-7.061875 3.093125 -7.12375 4.18625 -7.1875 5.3125 C-8 9 -8 9 -10.5625 10.9375 C-11.366875 11.288125 -12.17125 11.63875 -13 12 C-13.36681223 4.54148472 -13.36681223 4.54148472 -11.6875 2.0625 C-7.89159605 -0.3275136 -4.36849257 -0.31203518 0 0 Z " fill="#F8CF1F" transform="translate(641,105)"/>
<path d="M0 0 C1.2065625 0.0309375 1.2065625 0.0309375 2.4375 0.0625 C2.4375 0.7225 2.4375 1.3825 2.4375 2.0625 C3.0975 2.0625 3.7575 2.0625 4.4375 2.0625 C4.7675 3.3825 5.0975 4.7025 5.4375 6.0625 C3.7875 6.3925 2.1375 6.7225 0.4375 7.0625 C0.4375 5.4125 0.4375 3.7625 0.4375 2.0625 C-0.5525 2.0625 -1.5425 2.0625 -2.5625 2.0625 C-2.5625 7.3425 -2.5625 12.6225 -2.5625 18.0625 C-1.2425 18.0625 0.0775 18.0625 1.4375 18.0625 C1.7675 16.7425 2.0975 15.4225 2.4375 14.0625 C3.0625 15.9375 3.0625 15.9375 3.4375 18.0625 C2.7775 18.7225 2.1175 19.3825 1.4375 20.0625 C-1.1875 19.6875 -1.1875 19.6875 -3.5625 19.0625 C-3.58933987 16.08327407 -3.60926037 13.10428705 -3.625 10.125 C-3.63337891 9.27486328 -3.64175781 8.42472656 -3.65039062 7.54882812 C-3.65361328 6.73994141 -3.65683594 5.93105469 -3.66015625 5.09765625 C-3.66539307 4.3487915 -3.67062988 3.59992676 -3.67602539 2.82836914 C-3.49028527 -0.06078847 -2.89596652 0.07063333 0 0 Z " fill="#F4D24E" transform="translate(487.5625,104.9375)"/>
<path d="M0 0 C0.33 0 0.66 0 1 0 C1 5.94 1 11.88 1 18 C-5.6 18 -12.2 18 -19 18 C-19 16.68 -19 15.36 -19 14 C-18.34 14 -17.68 14 -17 14 C-17 14.66 -17 15.32 -17 16 C-9.08 15.505 -9.08 15.505 -1 15 C-0.67 10.05 -0.34 5.1 0 0 Z " fill="#CBE7EB" transform="translate(193,130)"/>
<path d="M0 0 C3 0.125 3 0.125 4 1.125 C4.07258946 3.31139453 4.08373783 5.50000389 4.0625 7.6875 C4.05347656 8.88503906 4.04445313 10.08257812 4.03515625 11.31640625 C4.02355469 12.24324219 4.01195312 13.17007813 4 14.125 C3.01 14.62 3.01 14.62 2 15.125 C2 10.835 2 6.545 2 2.125 C0.68 2.125 -0.64 2.125 -2 2.125 C-2 5.755 -2 9.385 -2 13.125 C-2.66 13.125 -3.32 13.125 -4 13.125 C-4.02686553 11.14590602 -4.04633375 9.16671029 -4.0625 7.1875 C-4.07410156 6.08535156 -4.08570313 4.98320313 -4.09765625 3.84765625 C-3.9605029 0.02382091 -3.85862021 0.16077584 0 0 Z " fill="#F0CC5A" transform="translate(575,104.875)"/>
<path d="M0 0 C0.33 0 0.66 0 1 0 C1.33 2.31 1.66 4.62 2 7 C8.6 7 15.2 7 22 7 C22 7.33 22 7.66 22 8 C12.595 8.495 12.595 8.495 3 9 C2.01 11.64 1.02 14.28 0 17 C-0.33 17 -0.66 17 -1 17 C-3.66077956 7.48627741 -3.66077956 7.48627741 -1.625 2.875 C-1.08875 1.92625 -0.5525 0.9775 0 0 Z " fill="#558493" transform="translate(285,116)"/>
<path d="M0 0 C2.97 0.495 2.97 0.495 6 1 C6 3.31 6 5.62 6 8 C3.35559361 8.8814688 1.71939248 9.16174818 -1 9.1875 C-1.680625 9.20167969 -2.36125 9.21585938 -3.0625 9.23046875 C-5 9 -5 9 -8 7 C-8 6.34 -8 5.68 -8 5 C-0.57142857 6 -0.57142857 6 3 7 C2.01 4.69 1.02 2.38 0 0 Z " fill="#F9C817" transform="translate(513,114)"/>
<path d="M0 0 C0.99 0 1.98 0 3 0 C3 2.31 3 4.62 3 7 C3.66 7.33 4.32 7.66 5 8 C4.67 10.64 4.34 13.28 4 16 C2.68 16 1.36 16 0 16 C0 10.72 0 5.44 0 0 Z " fill="#FBC810" transform="translate(485,107)"/>
<path d="M0 0 C0.33 0 0.66 0 1 0 C1.33 3.63 1.66 7.26 2 11 C2.99 11 3.98 11 5 11 C5 10.34 5 9.68 5 9 C4.34 8.67 3.68 8.34 3 8 C3.33 6.35 3.66 4.7 4 3 C4.99 3 5.98 3 7 3 C7 6.3 7 9.6 7 13 C3 14 3 14 0 13 C-0.19551338 11.39679026 -0.38111983 9.79237014 -0.5625 8.1875 C-0.71912109 6.84751953 -0.71912109 6.84751953 -0.87890625 5.48046875 C-1 3 -1 3 0 0 Z " fill="#F6D131" transform="translate(649,111)"/>
<path d="M0 0 C1.48831242 0.00667405 2.97660807 0.01863442 4.46484375 0.03515625 C5.22345703 0.03966797 5.98207031 0.04417969 6.76367188 0.04882812 C8.64326246 0.06064945 10.52281274 0.07858547 12.40234375 0.09765625 C12.07234375 1.74765625 11.74234375 3.39765625 11.40234375 5.09765625 C10.08234375 4.76765625 8.76234375 4.43765625 7.40234375 4.09765625 C8.06234375 3.76765625 8.72234375 3.43765625 9.40234375 3.09765625 C7.42324977 3.07079072 5.44405404 3.0513225 3.46484375 3.03515625 C1.81162109 3.01775391 1.81162109 3.01775391 0.125 3 C-2.51213259 2.78503054 -2.51213259 2.78503054 -3.59765625 4.09765625 C-1.61765625 4.59265625 -1.61765625 4.59265625 0.40234375 5.09765625 C0.40234375 5.42765625 0.40234375 5.75765625 0.40234375 6.09765625 C-1.24765625 6.09765625 -2.89765625 6.09765625 -4.59765625 6.09765625 C-4.64037725 4.4315372 -4.63829457 2.7638274 -4.59765625 1.09765625 C-3.59765625 0.09765625 -3.59765625 0.09765625 0 0 Z " fill="#EBC33E" transform="translate(526.59765625,104.90234375)"/>
<path d="M0 0 C7.3028169 -0.35915493 7.3028169 -0.35915493 10.0625 1.0625 C11.55238061 4.1415866 10.67482518 6.74856958 10 10 C8 8 8 8 7 4 C3.7 3.67 0.4 3.34 -3 3 C-2.01 2.67 -1.02 2.34 0 2 C0 1.34 0 0.68 0 0 Z " fill="#F9C817" transform="translate(634,107)"/>
<path d="M0 0 C2.5999298 2.51027705 4.99091227 4.9863684 7 8 C7 8.66 7 9.32 7 10 C0.07 10 -6.86 10 -14 10 C-14 9.67 -14 9.34 -14 9 C-9.71 9 -5.42 9 -1 9 C-0.67 8.01 -0.34 7.02 0 6 C0.33 5.67 0.66 5.34 1 5 C0.71395102 3.32457024 0.38218767 1.65614657 0 0 Z " fill="#E5F9FA" transform="translate(399,137)"/>
<path d="M0 0 C3.465 1.485 3.465 1.485 7 3 C7.33 2.01 7.66 1.02 8 0 C9.32 0 10.64 0 12 0 C12 1.32 12 2.64 12 4 C11.34 4 10.68 4 10 4 C10 4.66 10 5.32 10 6 C7.03 6 4.06 6 1 6 C0.67 4.02 0.34 2.04 0 0 Z " fill="#FBC70E" transform="translate(447,117)"/>
<path d="M0 0 C0.66 0.33 1.32 0.66 2 1 C2.38063221 3.3260857 2.71269945 5.66055264 3 8 C3.33 8.66 3.66 9.32 4 10 C4.66 10 5.32 10 6 10 C6 8.35 6 6.7 6 5 C5.34 4.67 4.68 4.34 4 4 C4.99 3.01 5.98 2.02 7 1 C8.30117451 3.60234903 8.53251882 6.13667776 9 9 C9.33 9.99 9.66 10.98 10 12 C9 13 9 13 6.75 13.5625 C3.37574104 12.87231067 3.00097833 12.10026668 1.125 9.3125 C-0.51270082 6.44014623 -1.02292577 5.3668124 -0.8125 2 C-0.544375 1.34 -0.27625 0.68 0 0 Z " fill="#F0C846" transform="translate(549,112)"/>
<path d="M0 0 C0.99 0.33 1.98 0.66 3 1 C3 3.31 3 5.62 3 8 C9.6 8 16.2 8 23 8 C23 8.33 23 8.66 23 9 C19.3545658 9.19588601 15.7086421 9.38030536 12.0625 9.5625 C11.02158203 9.61857422 9.98066406 9.67464844 8.90820312 9.73242188 C7.91884766 9.78076172 6.92949219 9.82910156 5.91015625 9.87890625 C4.53549194 9.94960327 4.53549194 9.94960327 3.13305664 10.02172852 C1 10 1 10 0 9 C-0.07179964 7.48071962 -0.08392007 5.95832518 -0.0625 4.4375 C-0.05347656 3.61121094 -0.04445313 2.78492188 -0.03515625 1.93359375 C-0.02355469 1.29550781 -0.01195312 0.65742188 0 0 Z " fill="#7396A5" transform="translate(305,139)"/>
<path d="M0 0 C0.66 0.99 1.32 1.98 2 3 C1.34 3 0.68 3 0 3 C0.66 5.64 1.32 8.28 2 11 C0.68 11 -0.64 11 -2 11 C-3.85776765 7.86501708 -4.20140476 5.62528568 -4 2 C-2.68 1.34 -1.36 0.68 0 0 Z " fill="#F9C716" transform="translate(554,111)"/>
<path d="M0 0 C1.66611905 -0.042721 3.33382885 -0.04063832 5 0 C6 1 6 1 6.09765625 3.28515625 C6.08605469 4.20167969 6.07445312 5.11820312 6.0625 6.0625 C6.05347656 6.98160156 6.04445313 7.90070313 6.03515625 8.84765625 C6.02355469 9.55792969 6.01195312 10.26820312 6 11 C5.34 11 4.68 11 4 11 C4 8.03 4 5.06 4 2 C2.68 2 1.36 2 0 2 C0 4.64 0 7.28 0 10 C-1.32 9.34 -2.64 8.68 -4 8 C-3.67 7.34 -3.34 6.68 -3 6 C-2.67 6.33 -2.34 6.66 -2 7 C-1.34 4.69 -0.68 2.38 0 0 Z " fill="#F0D24F" transform="translate(497,105)"/>
<path d="M0 0 C0 0.33 0 0.66 0 1 C-1.65 1.33 -3.3 1.66 -5 2 C-3.68 2.66 -2.36 3.32 -1 4 C-1 4.66 -1 5.32 -1 6 C-1.928125 6.12375 -1.928125 6.12375 -2.875 6.25 C-5.18437567 6.81258459 -5.18437567 6.81258459 -6.25 9.0625 C-6.4975 9.701875 -6.745 10.34125 -7 11 C-7 9.02 -7 7.04 -7 5 C-10.11785113 5.64644661 -10.11785113 5.64644661 -11 8 C-11.66 7.67 -12.32 7.34 -13 7 C-9.16410113 0.78319838 -7.22304851 -0.16051219 0 0 Z " fill="#EEC73D" transform="translate(475,105)"/>
<path d="M0 0 C0.66 0.33 1.32 0.66 2 1 C1.62746094 1.53109375 1.25492188 2.0621875 0.87109375 2.609375 C0.39800781 3.31578125 -0.07507813 4.0221875 -0.5625 4.75 C-1.03816406 5.44609375 -1.51382813 6.1421875 -2.00390625 6.859375 C-3.20071529 8.930766 -3.20071529 8.930766 -2.72265625 11.10546875 C-2.14947341 12.60813727 -1.52151091 14.08989181 -0.875 15.5625 C0 18 0 18 -1 21 C-4.66356295 16.38072498 -5.50178113 12.9210173 -5 7 C-3.50254139 4.39152371 -2.12971098 2.12971098 0 0 Z " fill="#E2F7FB" transform="translate(222,120)"/>
<path d="M0 0 C2.31 0 4.62 0 7 0 C7 0.66 7 1.32 7 2 C6.360625 2.12375 5.72125 2.2475 5.0625 2.375 C4.381875 2.58125 3.70125 2.7875 3 3 C2.67 3.66 2.34 4.32 2 5 C1.34 5 0.68 5 0 5 C-0.66 6.65 -1.32 8.3 -2 10 C-2.33 10 -2.66 10 -3 10 C-3 7.69 -3 5.38 -3 3 C-2.34 3 -1.68 3 -1 3 C-0.67 2.01 -0.34 1.02 0 0 Z " fill="#FAC90F" transform="translate(448,107)"/>
<path d="M0 0 C0.33 0.66 0.66 1.32 1 2 C0.24172908 3.17487036 -0.53207755 4.33972592 -1.3125 5.5 C-1.74175781 6.1496875 -2.17101562 6.799375 -2.61328125 7.46875 C-3.29970703 8.22671875 -3.29970703 8.22671875 -4 9 C-5.66666667 9 -7.33333333 9 -9 9 C-9 7.02 -9 5.04 -9 3 C-8.34 2.67 -7.68 2.34 -7 2 C-6.67 2.66 -6.34 3.32 -6 4 C-2.81765895 2.24545615 -2.81765895 2.24545615 0 0 Z " fill="#6E9EB8" transform="translate(338,140)"/>
<path d="M0 0 C1.32 0 2.64 0 4 0 C4 4.29 4 8.58 4 13 C3.67 13 3.34 13 3 13 C2.67 11.35 2.34 9.7 2 8 C1.34 8.99 0.68 9.98 0 11 C0 7.37 0 3.74 0 0 Z " fill="#F9C816" transform="translate(573,107)"/>
<path d="M0 0 C-1 3 -1 3 -4 5 C-9.02539212 5.46531409 -11.90578839 4.97760844 -16 2 C-12.98968256 1.06576355 -12.13349732 0.95550089 -9 2 C-1.4 0 -1.4 0 0 0 Z " fill="#EFC747" transform="translate(577,120)"/>
<path d="M0 0 C0.66 0.33 1.32 0.66 2 1 C0.71559633 6.50458716 0.71559633 6.50458716 -1.625 8.125 C-4.9445511 9.34799251 -7.49020714 9.37604924 -11 9 C-13.4375 7 -13.4375 7 -15 5 C-14.01 5.33 -13.02 5.66 -12 6 C-10.10529184 6.0685495 -8.2083166 6.08480372 -6.3125 6.0625 C-5.31863281 6.05347656 -4.32476563 6.04445313 -3.30078125 6.03515625 C-2.54152344 6.02355469 -1.78226563 6.01195313 -1 6 C-0.67 4.02 -0.34 2.04 0 0 Z " fill="#E9BF50" transform="translate(520,116)"/>
<path d="M0 0 C6.6 0 13.2 0 20 0 C16.1533912 3.8466088 10.78091826 3.05641991 5.625 3.0625 C3.74995225 3.04653244 1.87491693 3.02730462 0 3 C0 2.01 0 1.02 0 0 Z " fill="#94979E" transform="translate(62,74)"/>
<path d="M0 0 C7.26 0.33 14.52 0.66 22 1 C22 1.33 22 1.66 22 2 C15.07 2 8.14 2 1 2 C0.67 2.66 0.34 3.32 0 4 C0 2.68 0 1.36 0 0 Z " fill="#1F4B5E" transform="translate(413,112)"/>
<path d="M0 0 C1.3484585 3.06467841 0.91740262 4.2434449 -0.1875 7.5 C-1.84704181 10.70463246 -3.29492345 12.66803746 -6 15 C-6.99 14.67 -7.98 14.34 -9 14 C-8.60167969 13.57589844 -8.20335937 13.15179688 -7.79296875 12.71484375 C-4.14137539 8.67232555 -1.87842746 5.11349698 0 0 Z " fill="#406485" transform="translate(286,129)"/>
<path d="M0 0 C0.6640625 1.7734375 0.6640625 1.7734375 1 4 C-1.11725354 7.7728503 -4.03204098 10.51602049 -7.875 12.4375 C-8.926875 12.7159375 -8.926875 12.7159375 -10 13 C-9.25 10.5625 -9.25 10.5625 -8 8 C-7.38125 7.87625 -6.7625 7.7525 -6.125 7.625 C-3.38542241 6.81924188 -3.12317443 5.87707585 -1.75 3.4375 C-1.1725 2.303125 -0.595 1.16875 0 0 Z " fill="#E3F7F9" transform="translate(283,132)"/>
<path d="M0 0 C0.66 0.33 1.32 0.66 2 1 C2 5.29 2 9.58 2 14 C-1 10 -1 10 -0.6875 7.25 C-0.460625 6.5075 -0.23375 5.765 0 5 C-0.66 5 -1.32 5 -2 5 C-1.125 1.125 -1.125 1.125 0 0 Z " fill="#FCC812" transform="translate(563,105)"/>
<path d="M0 0 C0.99 0.33 1.98 0.66 3 1 C1.53758308 3.38604865 0.5782423 4.77220758 -2.0625 5.8125 C-6.42843069 6.09117643 -10.66888131 5.54664605 -15 5 C-15 4.67 -15 4.34 -15 4 C-14.08476562 3.87882813 -13.16953125 3.75765625 -12.2265625 3.6328125 C-11.03804687 3.46523437 -9.84953125 3.29765625 -8.625 3.125 C-7.44164062 2.96257812 -6.25828125 2.80015625 -5.0390625 2.6328125 C-1.90433341 2.2697415 -1.90433341 2.2697415 0 0 Z " fill="#5D8193" transform="translate(261,134)"/>
<path d="M0 0 C3.63 0 7.26 0 11 0 C10.67 0.99 10.34 1.98 10 3 C6.37 3 2.74 3 -1 3 C-0.67 2.01 -0.34 1.02 0 0 Z " fill="#537384" transform="translate(246,111)"/>
<path d="M0 0 C0.33 1.98 0.66 3.96 1 6 C-0.32 5.34 -1.64 4.68 -3 4 C-3 3.34 -3 2.68 -3 2 C-5.31 1.67 -7.62 1.34 -10 1 C-6.1496895 -1.56687367 -4.41430237 -0.83288724 0 0 Z " fill="#F8C812" transform="translate(477,107)"/>
<path d="M0 0 C2.6875 0.375 2.6875 0.375 5 2.875 C5.8353125 4.1125 5.8353125 4.1125 6.6875 5.375 C6.3575 6.035 6.0275 6.695 5.6875 7.375 C4.1875 6 4.1875 6 2.6875 4.375 C2.6875 3.715 2.6875 3.055 2.6875 2.375 C1.3675 2.375 0.0475 2.375 -1.3125 2.375 C-1.43625 2.973125 -1.56 3.57125 -1.6875 4.1875 C-2.3125 6.375 -2.3125 6.375 -4.3125 9.375 C-3.33084862 0.54013761 -3.33084862 0.54013761 0 0 Z " fill="#EEC753" transform="translate(652.3125,104.625)"/>
<path d="M0 0 C0.33 0 0.66 0 1 0 C1 3.96 1 7.92 1 12 C2.32 12 3.64 12 5 12 C5 10.35 5 8.7 5 7 C5.66 7.66 6.32 8.32 7 9 C6.625 11.625 6.625 11.625 6 14 C4.33388095 14.042721 2.66617115 14.04063832 1 14 C0 13 0 13 -0.09765625 10.05859375 C-0.08605469 8.86363281 -0.07445312 7.66867188 -0.0625 6.4375 C-0.05347656 5.23996094 -0.04445313 4.04242188 -0.03515625 2.80859375 C-0.02355469 1.88175781 -0.01195312 0.95492187 0 0 Z " fill="#EDD057" transform="translate(541,111)"/>
<path d="M0 0 C0.66 0.66 1.32 1.32 2 2 C-2.455 2.495 -2.455 2.495 -7 3 C-7.66 1.35 -8.32 -0.3 -9 -2 C-5.07597626 -3.59867634 -3.32520657 -2.36264678 0 0 Z " fill="#FBCD10" transform="translate(474,121)"/>
<path d="M0 0 C1.65 0 3.3 0 5 0 C5.33 1.65 5.66 3.3 6 5 C4.35 5.66 2.7 6.32 1 7 C1 6.34 1 5.68 1 5 C1.66 5 2.32 5 3 5 C3 4.01 3 3.02 3 2 C1.35 2.66 -0.3 3.32 -2 4 C-1.34 2.68 -0.68 1.36 0 0 Z " fill="#F1CD5A" transform="translate(593,116)"/>
<path d="M0 0 C0.66 0.99 1.32 1.98 2 3 C-0.31 5.97 -2.62 8.94 -5 12 C-6 10 -6 10 -5.3125 7.6875 C-3.87771993 4.74961699 -2.12240021 2.47613357 0 0 Z " fill="#537C8C" transform="translate(358,113)"/>
<path d="M0 0 C0.66 0.66 1.32 1.32 2 2 C0.68 4.64 -0.64 7.28 -2 10 C-0.68 10.33 0.64 10.66 2 11 C0.02 11 -1.96 11 -4 11 C-4.56638908 6.18569279 -2.82561627 3.79692186 0 0 Z " fill="#5B8291" transform="translate(371,123)"/>
<path d="M0 0 C2 2 2 2 2.1953125 4.3828125 C2.17210937 5.28773437 2.14890625 6.19265625 2.125 7.125 C2.10695313 8.03507812 2.08890625 8.94515625 2.0703125 9.8828125 C2.03550781 10.93082031 2.03550781 10.93082031 2 12 C1.34 12 0.68 12 0 12 C-1.49498913 9.01002175 -1.11577446 6.29957225 -1 3 C-0.67 2.01 -0.34 1.02 0 0 Z " fill="#FAE44C" transform="translate(527,111)"/>
<path d="M0 0 C0.33 0.66 0.66 1.32 1 2 C0.34 2.66 -0.32 3.32 -1 4 C-1.33 3.67 -1.66 3.34 -2 3 C-4.69235776 2.76321284 -7.36498156 2.57801975 -10.0625 2.4375 C-10.82111328 2.39431641 -11.57972656 2.35113281 -12.36132812 2.30664062 C-14.24065438 2.20026367 -16.12030244 2.09960066 -18 2 C-18 1.67 -18 1.34 -18 1 C-16.12528812 0.83012319 -14.25021305 0.66425224 -12.375 0.5 C-11.33085937 0.4071875 -10.28671875 0.314375 -9.2109375 0.21875 C-6.12853212 0.00875645 -3.08834771 -0.03709727 0 0 Z " fill="#476E81" transform="translate(383,142)"/>
<path d="M0 0 C4.875 4.625 4.875 4.625 6 8 C5.93011355 10.76320278 5.48643423 13.2582798 5 16 C4.34 16.33 3.68 16.66 3 17 C3.05800781 16.25234375 3.11601562 15.5046875 3.17578125 14.734375 C3.3123963 11.75226371 3.36265008 8.96519774 3 6 C0.7211176 3.25229728 0.7211176 3.25229728 -2 2 C-1.34 1.34 -0.68 0.68 0 0 Z " fill="#DDF1F4" transform="translate(260,120)"/>
<path d="M0 0 C3.25548753 3.02295271 5.68977058 6.20462309 8 10 C8 10.66 8 11.32 8 12 C7.34 12 6.68 12 6 12 C4.2734375 9.8125 4.2734375 9.8125 2.375 7 C1.74335938 6.071875 1.11171875 5.14375 0.4609375 4.1875 C-0.02117187 3.465625 -0.50328125 2.74375 -1 2 C-0.67 1.34 -0.34 0.68 0 0 Z " fill="#3B6678" transform="translate(384,113)"/>
<path d="M0 0 C0.66 0.33 1.32 0.66 2 1 C3.36817102 7.04275534 3.36817102 7.04275534 2.0625 10.4375 C1.711875 10.953125 1.36125 11.46875 1 12 C0.01 11.34 -0.98 10.68 -2 10 C-1.67 9.67 -1.34 9.34 -1 9 C-0.76807135 7.48530552 -0.58784762 5.96245438 -0.4375 4.4375 C-0.35371094 3.61121094 -0.26992188 2.78492187 -0.18359375 1.93359375 C-0.12300781 1.29550781 -0.06242187 0.65742187 0 0 Z " fill="#6498B2" transform="translate(350,115)"/>
<path d="M0 0 C0.66 0.33 1.32 0.66 2 1 C1.34 2.32 0.68 3.64 0 5 C0.66 5 1.32 5 2 5 C2 7.64 2 10.28 2 13 C1.01 13 0.02 13 -1 13 C-1.02686553 11.02090602 -1.04633375 9.04171029 -1.0625 7.0625 C-1.07410156 5.96035156 -1.08570313 4.85820313 -1.09765625 3.72265625 C-1 1 -1 1 0 0 Z " fill="#F3B92C" transform="translate(561,105)"/>
<path d="M0 0 C1.65 0 3.3 0 5 0 C5 0.66 5 1.32 5 2 C5.66 2 6.32 2 7 2 C7.33 3.32 7.66 4.64 8 6 C6.35 6.33 4.7 6.66 3 7 C3 5.35 3 3.7 3 2 C2.01 2 1.02 2 0 2 C0 1.34 0 0.68 0 0 Z " fill="#EDCA39" transform="translate(485,105)"/>
<path d="M0 0 C4.62 0 9.24 0 14 0 C14 0.33 14 0.66 14 1 C10.7 1.33 7.4 1.66 4 2 C4 2.66 4 3.32 4 4 C2.35 4 0.7 4 -1 4 C-0.67 2.68 -0.34 1.36 0 0 Z " fill="#F6C91B" transform="translate(601,106)"/>
<path d="M0 0 C0.99 0.99 1.98 1.98 3 3 C-0.3 2.67 -3.6 2.34 -7 2 C-7 2.66 -7 3.32 -7 4 C-7.99 4 -8.98 4 -10 4 C-10 3.01 -10 2.02 -10 1 C-6.44646071 -0.1845131 -3.72986522 -0.26641894 0 0 Z " fill="#EECF4B" transform="translate(641,105)"/>
<path d="M0 0 C3.96 0.33 7.92 0.66 12 1 C10.35 2.32 8.7 3.64 7 5 C4.69 4.01 2.38 3.02 0 2 C0 1.34 0 0.68 0 0 Z " fill="#7A7C90" transform="translate(110,74)"/>
<path d="M0 0 C1.74216797 0.02707031 1.74216797 0.02707031 3.51953125 0.0546875 C4.39996094 0.07789062 5.28039062 0.10109375 6.1875 0.125 C6.1875 0.455 6.1875 0.785 6.1875 1.125 C4.95773438 1.18107422 4.95773438 1.18107422 3.703125 1.23828125 C2.62546875 1.30402344 1.5478125 1.36976562 0.4375 1.4375 C-0.62984375 1.49550781 -1.6971875 1.55351563 -2.796875 1.61328125 C-6.02824195 2.16160906 -7.34996969 3.05625269 -9.8125 5.125 C-10.4725 5.125 -11.1325 5.125 -11.8125 5.125 C-11.8125 4.135 -11.8125 3.145 -11.8125 2.125 C-7.73526266 0.17468308 -4.49557578 -0.09081971 0 0 Z " fill="#C5DEE4" transform="translate(248.8125,120.875)"/>
<path d="M0 0 C2.475 0.495 2.475 0.495 5 1 C5 2.98 5 4.96 5 7 C4.01 6.67 3.02 6.34 2 6 C2 5.34 2 4.68 2 4 C1.34 4 0.68 4 0 4 C0 2.68 0 1.36 0 0 Z " fill="#FAC70A" transform="translate(659,116)"/>
<path d="M0 0 C-1.23448009 3.70344028 -3.23334341 5.30250982 -6 8 C-6.33 8.66 -6.66 9.32 -7 10 C-7.99 9.67 -8.98 9.34 -10 9 C-9.34 9 -8.68 9 -8 9 C-7.7525 8.071875 -7.505 7.14375 -7.25 6.1875 C-5.81584153 2.53039589 -4.19346816 0 0 0 Z " fill="#4A6E81" transform="translate(225,117)"/>
<path d="M0 0 C0.66 0 1.32 0 2 0 C2 0.99 2 1.98 2 3 C1.34 3 0.68 3 0 3 C0 3.66 0 4.32 0 5 C-2.31 5 -4.62 5 -7 5 C-7.33 4.34 -7.66 3.68 -8 3 C-6.865625 2.690625 -5.73125 2.38125 -4.5625 2.0625 C-1.21224901 1.37075469 -1.21224901 1.37075469 0 0 Z " fill="#FAC716" transform="translate(594,118)"/>
<path d="M0 0 C4.29 0 8.58 0 13 0 C13 0.66 13 1.32 13 2 C13.66 2 14.32 2 15 2 C15 2.66 15 3.32 15 4 C13.515 3.5359375 13.515 3.5359375 12 3.0625 C8.02268878 1.91566793 4.11232621 1.43287644 0 1 C0 0.67 0 0.34 0 0 Z " fill="#E7C95E" transform="translate(542,105)"/>
<path d="M0 0 C-1.4096347 0.70180531 -2.82807641 1.38593958 -4.25 2.0625 C-5.03890625 2.44535156 -5.8278125 2.82820313 -6.640625 3.22265625 C-9.25993522 4.08564091 -10.44855176 3.93045933 -13 3 C-11.5903653 2.29819469 -10.17192359 1.61406042 -8.75 0.9375 C-7.96109375 0.55464844 -7.1721875 0.17179687 -6.359375 -0.22265625 C-3.74006478 -1.08564091 -2.55144824 -0.93045933 0 0 Z " fill="#DCF3F6" transform="translate(237,116)"/>
<path d="M0 0 C0.99 0.495 0.99 0.495 2 1 C2 3.31 2 5.62 2 8 C2.99 8.33 3.98 8.66 5 9 C5 9.66 5 10.32 5 11 C3.35 11 1.7 11 0 11 C0 7.37 0 3.74 0 0 Z " fill="#EFC73D" transform="translate(619,114)"/>
<path d="M0 0 C0.99 0 1.98 0 3 0 C3 2.97 3 5.94 3 9 C2.67 8.34 2.34 7.68 2 7 C1.34 7 0.68 7 0 7 C0 4.69 0 2.38 0 0 Z " fill="#FAC810" transform="translate(582,112)"/>
<path d="M0 0 C1.2065625 0.0309375 1.2065625 0.0309375 2.4375 0.0625 C2.7675 0.7225 3.0975 1.3825 3.4375 2.0625 C1.7875 2.3925 0.1375 2.7225 -1.5625 3.0625 C-1.8925 5.3725 -2.2225 7.6825 -2.5625 10.0625 C-3.2225 10.0625 -3.8825 10.0625 -4.5625 10.0625 C-4.42200482 8.58281676 -4.27495174 7.10375484 -4.125 5.625 C-4.04378906 4.80128906 -3.96257813 3.97757812 -3.87890625 3.12890625 C-3.4093501 0.06229881 -3.15462671 0.07694211 0 0 Z " fill="#E7D053" transform="translate(664.5625,104.9375)"/>
<path d="M0 0 C3.24299151 2.38957269 5.50902342 4.2047869 7 8 C4.08482708 6.92598892 2.22189824 6.22189824 0 4 C0 2.68 0 1.36 0 0 Z " fill="#5B7E93" transform="translate(403,139)"/>
<path d="M0 0 C0.33 1.32 0.66 2.64 1 4 C0.34 4 -0.32 4 -1 4 C-0.67 5.32 -0.34 6.64 0 8 C-1.65 8 -3.3 8 -5 8 C-1.125 1.125 -1.125 1.125 0 0 Z " fill="#E0F8FB" transform="translate(342,139)"/>
<path d="M0 0 C2.84223197 1.36239218 4.96027641 2.55233169 7 5 C7 5.66 7 6.32 7 7 C7.66 7 8.32 7 9 7 C9 7.66 9 8.32 9 9 C6.29561004 8.63594751 5.25593617 8.31857318 3.515625 6.15234375 C2.88914062 5.05599609 2.88914062 5.05599609 2.25 3.9375 C1.82203125 3.20402344 1.3940625 2.47054687 0.953125 1.71484375 C0.63859375 1.14894531 0.3240625 0.58304687 0 0 Z " fill="#EFC947" transform="translate(490,116)"/>
<path d="M0 0 C0.66 0.33 1.32 0.66 2 1 C-0.75 5.875 -0.75 5.875 -3 7 C-3 6.34 -3 5.68 -3 5 C-3.66 4.67 -4.32 4.34 -5 4 C-4.34 4 -3.68 4 -3 4 C-2.67 3.01 -2.34 2.02 -2 1 C-1.34 0.67 -0.68 0.34 0 0 Z " fill="#FBCA11" transform="translate(467,109)"/>
<path d="M0 0 C2.97 0.33 5.94 0.66 9 1 C9 1.66 9 2.32 9 3 C6.03 3 3.06 3 0 3 C0 2.01 0 1.02 0 0 Z " fill="#F9CB13" transform="translate(632,120)"/>
<path d="M0 0 C0.99 0 1.98 0 3 0 C1.75023244 3.65316671 1.32901247 4.78065836 -2 7 C-1.125 1.125 -1.125 1.125 0 0 Z " fill="#517B8B" transform="translate(348,126)"/>
<path d="M0 0 C2.97 0.495 2.97 0.495 6 1 C6 2.32 6 3.64 6 5 C3 5 3 5 1.3125 3.625 C0 2 0 2 0 0 Z " fill="#F5CB2B" transform="translate(552,108)"/>
<path d="M0 0 C2.31 0 4.62 0 7 0 C5 3 5 3 2.375 3.6875 C1.199375 3.8421875 1.199375 3.8421875 0 4 C0 2.68 0 1.36 0 0 Z " fill="#FDC80D" transform="translate(543,107)"/>
<path d="M0 0 C0.66 0 1.32 0 2 0 C2.80967438 2.91482778 3.21845993 4.46113217 2.0625 7.3125 C1.5365625 8.1478125 1.5365625 8.1478125 1 9 C0.67 9 0.34 9 0 9 C0 6.03 0 3.06 0 0 Z " fill="#5D96A5" transform="translate(216,116)"/>
<path d="M0 0 C-0.33 0.99 -0.66 1.98 -1 3 C-3.31 3 -5.62 3 -8 3 C-8 2.34 -8 1.68 -8 1 C-2.25 0 -2.25 0 0 0 Z " fill="#557786" transform="translate(269,146)"/>
<path d="M0 0 C1.485 0.99 1.485 0.99 3 2 C2.34 4.31 1.68 6.62 1 9 C-0.61949011 6.42786866 -1.04408751 5.32330841 -0.625 2.25 C-0.41875 1.5075 -0.2125 0.765 0 0 Z " fill="#73758C" transform="translate(114,120)"/>
<path d="M0 0 C0.66 0.33 1.32 0.66 2 1 C1.49396008 3.16874252 1.00016187 4.99967627 0 7 C-2.0625 7.625 -2.0625 7.625 -4 8 C-4 7.34 -4 6.68 -4 6 C-3.01 6 -2.02 6 -1 6 C-0.67 4.02 -0.34 2.04 0 0 Z " fill="#EECE58" transform="translate(520,116)"/>
<path d="M0 0 C1.32 0 2.64 0 4 0 C4 1.32 4 2.64 4 4 C3.34 4 2.68 4 2 4 C1.67 4.66 1.34 5.32 1 6 C1 4.68 1 3.36 1 2 C0.34 1.67 -0.32 1.34 -1 1 C-0.67 0.67 -0.34 0.34 0 0 Z " fill="#F9C423" transform="translate(455,117)"/>
<path d="M0 0 C3.26954202 0.56371414 4.82575883 1.49962266 7 4 C6.67 4.66 6.34 5.32 6 6 C3.96166576 4.7260411 1.96147874 3.38938077 0 2 C0 1.34 0 0.68 0 0 Z " fill="#436E7B" transform="translate(276,117)"/>
</svg>
