<?xml version="1.0" encoding="UTF-8"?>
<svg version="1.1" xmlns="http://www.w3.org/2000/svg" width="835" height="299">
<path d="M0 0 C1.04458878 -0.00708481 2.08917755 -0.01416962 3.16542053 -0.02146912 C4.88376602 -0.01775299 4.88376602 -0.01775299 6.63682556 -0.01396179 C8.44682793 -0.02162819 8.44682793 -0.02162819 10.293396 -0.02944946 C13.60324694 -0.04097866 16.9128477 -0.04341754 20.22270131 -0.04088616 C22.9838724 -0.03981734 25.7450203 -0.04469732 28.50618643 -0.04949158 C35.01752384 -0.06058854 41.52880357 -0.06102258 48.04014587 -0.05497742 C54.76410691 -0.04893107 61.48785903 -0.06126481 68.21178442 -0.08254749 C73.98084413 -0.10013832 79.74983719 -0.106169 85.51892275 -0.10290974 C88.96637842 -0.10109331 92.41368495 -0.10376896 95.86111641 -0.11762428 C99.70180156 -0.13248275 103.54221842 -0.12325463 107.38291931 -0.11161804 C108.5305072 -0.11926178 109.67809509 -0.12690552 110.86045837 -0.13478088 C112.4231118 -0.12425941 112.4231118 -0.12425941 114.01733398 -0.11352539 C114.92601258 -0.11369313 115.83469118 -0.11386087 116.77090549 -0.1140337 C117.48841449 0.00962724 118.20592348 0.13328817 118.94517517 0.26069641 C120.99900633 3.34144315 121.19559832 3.96686343 121.19914246 7.44235229 C121.20760193 8.71894714 121.20760193 8.71894714 121.2162323 10.02133179 C121.21015961 11.4170768 121.21015961 11.4170768 121.20396423 12.84101868 C121.20922119 14.31452286 121.20922119 14.31452286 121.21458435 15.8177948 C121.22340058 19.0709689 121.21755328 22.32392628 121.21080017 25.57710266 C121.21214674 27.83246909 121.21408721 30.08783525 121.21659851 32.34320068 C121.21954954 37.07183087 121.21525236 41.80038554 121.20591736 46.52900696 C121.19451636 52.60125765 121.2010866 58.67333168 121.21306229 64.7455759 C121.22027586 69.40285584 121.21799538 74.06009362 121.2128067 78.7173748 C121.21146915 80.9569647 121.21312158 83.19655839 121.21776581 85.43614388 C121.22282347 88.56078924 121.21513174 91.68514498 121.20396423 94.80976868 C121.2080127 95.74228958 121.21206116 96.67481049 121.2162323 97.6355896 C121.21059265 98.48383301 121.204953 99.33207642 121.19914246 100.20602417 C121.19801138 101.3146272 121.19801138 101.3146272 121.19685745 102.44562626 C120.94517517 104.26069641 120.94517517 104.26069641 118.94517517 106.26069641 C116.73129082 106.50679207 116.73129082 106.50679207 113.92121887 106.50120544 C112.85828613 106.50395477 111.79535339 106.5067041 110.70021057 106.50953674 C108.94370682 106.49875092 108.94370682 106.49875092 107.15171814 106.48774719 C105.9224762 106.48803925 104.69323425 106.4883313 103.42674255 106.4886322 C100.05084027 106.48747547 96.67518092 106.4774273 93.29932165 106.46348429 C89.77324987 106.45100359 86.24717505 106.44980854 82.72108459 106.44743347 C76.04166842 106.44121085 69.36231751 106.42478951 62.68293011 106.40473449 C55.07965185 106.38239976 47.47637051 106.37138818 39.87306762 106.36134362 C24.23039897 106.34042393 8.58779548 106.30523282 -7.05482483 106.26069641 C-8.19735057 103.97564492 -8.18516424 102.70079604 -8.19526672 100.16133118 C-8.20097687 99.30322845 -8.20668701 98.44512573 -8.21257019 97.5610199 C-8.21368805 96.61757721 -8.21480591 95.67413452 -8.21595764 94.70210266 C-8.22092255 93.710159 -8.22588745 92.71821533 -8.23100281 91.69621277 C-8.24564393 88.40520035 -8.25242874 85.11423609 -8.25794983 81.82319641 C-8.2636985 79.54398089 -8.26945626 77.2647654 -8.27522278 74.98554993 C-8.28573752 70.20389072 -8.29157748 65.42224837 -8.2950592 60.64057922 C-8.30055305 54.49988295 -8.32459818 48.35940741 -8.35303116 42.21878052 C-8.37160937 37.51089313 -8.3768605 32.8030595 -8.37839508 28.09513855 C-8.38143171 25.83041676 -8.38949391 23.56569614 -8.40258026 21.30101013 C-8.41954449 18.14026322 -8.41778442 14.98006351 -8.41127014 11.81929016 C-8.42048492 10.87584747 -8.42969971 9.93240479 -8.43919373 8.96037292 C-8.43362457 8.1022702 -8.42805542 7.24416748 -8.4223175 6.36006165 C-8.42378407 5.61231979 -8.42525063 4.86457794 -8.42676163 4.09417725 C-7.55067892 -0.22451578 -3.586875 0.00810004 0 0 Z M17.94517517 24.26069641 C17.75955017 33.45944641 17.57392517 42.65819641 17.38267517 52.13569641 C17.32136414 55.04108215 17.2600531 57.9464679 17.19688416 60.93989563 C17.15293509 63.23171722 17.10937006 65.52354622 17.06626892 67.81538391 C17.03956116 69.0142926 17.01285339 70.21320129 16.9853363 71.44844055 C16.96491272 72.58515198 16.94448914 73.7218634 16.92344666 74.89302063 C16.90346115 75.88341339 16.88347565 76.87380615 16.86288452 77.89421082 C16.78163258 80.28016123 16.78163258 80.28016123 17.94517517 82.26069641 C43.68517517 82.26069641 69.42517517 82.26069641 95.94517517 82.26069641 C95.94517517 63.12069641 95.94517517 43.98069641 95.94517517 24.26069641 C70.20517517 24.26069641 44.46517517 24.26069641 17.94517517 24.26069641 Z " fill="#817C7C" transform="translate(122.05482482910156,118.73930358886719)"/>
<path d="M0 0 C5.77384393 3.59456227 8.99569978 8.51173615 10.94921875 14.91796875 C11.68188726 19.14593656 11.10224876 23.17798609 10.375 27.375 C9.715 27.375 9.055 27.375 8.375 27.375 C8.2925 28.096875 8.21 28.81875 8.125 29.5625 C7.18315144 33.09443208 5.96125943 34.78874057 3.375 37.375 C-1.6593749 39.96392885 -5.87052152 40.89637605 -11.5625 40.8125 C-12.2639917 40.80710205 -12.9654834 40.8017041 -13.68823242 40.79614258 C-20.1125809 40.60725703 -24.24070137 39.2093501 -29.1875 35.06640625 C-32.8998118 30.69838721 -34.88664009 23.87950311 -34.875 18.1875 C-34.7925 17.259375 -34.71 16.33125 -34.625 15.375 C-33.965 15.375 -33.305 15.375 -32.625 15.375 C-32.521875 14.323125 -32.41875 13.27125 -32.3125 12.1875 C-31.47424388 7.53898878 -30.59164181 5.04296957 -26.953125 1.95703125 C-19.29453827 -3.18228353 -8.43154454 -3.79179517 0 0 Z M-18.625 11.375 C-19.97153096 16.64540635 -19.9917133 22.11841038 -18.625 27.375 C-16.37082958 29.9631216 -15.01979021 30.31742643 -11.625 30.8125 C-7.9619505 30.27830528 -6.89222915 29.2300293 -4.625 26.375 C-2.90321509 22.93143018 -3.24641024 19.1478428 -3.625 15.375 C-5.01480498 12.40587118 -6.32157028 10.67842972 -8.625 8.375 C-12.9249139 7.90761805 -15.7966511 7.91812913 -18.625 11.375 Z " fill="#FDFAFB" transform="translate(340.625,151.625)"/>
<path d="M0 0 C0.96525568 2.28736346 1.82064586 4.53208475 2.625 6.875 C2.96917969 7.83212891 2.96917969 7.83212891 3.3203125 8.80859375 C4.32486598 11.67276705 5 13.94250743 5 17 C5.66 17.33 6.32 17.66 7 18 C8.08025867 20.76229188 9.06668233 23.50099602 10 26.3125 C10.51841925 27.85107595 11.03918188 29.38886466 11.5625 30.92578125 C11.79066406 31.61067627 12.01882813 32.29557129 12.25390625 33.0012207 C13.03268668 35.08756737 13.99965585 37.01211731 15 39 C15.33 39.99 15.66 40.98 16 42 C12.94730154 43.52634923 10.24154311 42.83794444 6.875 42.5625 C5.59367187 42.46066406 4.31234375 42.35882813 2.9921875 42.25390625 C2.00476563 42.17011719 1.01734375 42.08632812 0 42 C-0.66 40.02 -1.32 38.04 -2 36 C-6.29 35.67 -10.58 35.34 -15 35 C-15.66 37.31 -16.32 39.62 -17 42 C-21.62 42.33 -26.24 42.66 -31 43 C-31.495 41.515 -31.495 41.515 -32 40 C-31.34 40 -30.68 40 -30 40 C-29.81824219 39.38253906 -29.63648438 38.76507813 -29.44921875 38.12890625 C-28.64395725 35.41579442 -27.82447126 32.70733352 -27 30 C-26.79503906 29.31679687 -26.59007812 28.63359375 -26.37890625 27.9296875 C-24.43829462 21.78240842 -21.93228612 15.87225023 -19.42480469 9.93920898 C-19.12735352 9.23094971 -18.82990234 8.52269043 -18.5234375 7.79296875 C-18.25450684 7.1589917 -17.98557617 6.52501465 -17.70849609 5.87182617 C-16.97594538 3.93644839 -16.46274386 2.01536392 -16 0 C-13.7089095 -0.19441368 -11.41709663 -0.38033135 -9.125 -0.5625 C-7.21074219 -0.71912109 -7.21074219 -0.71912109 -5.2578125 -0.87890625 C-2 -1 -2 -1 0 0 Z M-9 14 C-10.80317221 17.96697886 -11.49202991 21.6822542 -12 26 C-9.36 26 -6.72 26 -4 26 C-4.44850658 24.18504338 -4.90909571 22.37306866 -5.375 20.5625 C-5.75785156 19.04849609 -5.75785156 19.04849609 -6.1484375 17.50390625 C-6.72573954 14.84429676 -6.72573954 14.84429676 -9 14 Z " fill="#FCF9FA" transform="translate(425,150)"/>
<path d="M0 0 C0 3.63 0 7.26 0 11 C-4.29 11 -8.58 11 -13 11 C-12.67 11.66 -12.34 12.32 -12 13 C-11.90244716 15.16622525 -11.86922891 17.33548649 -11.8671875 19.50390625 C-11.86589844 20.80134766 -11.86460937 22.09878906 -11.86328125 23.43554688 C-11.86642334 24.45056274 -11.86642334 24.45056274 -11.86962891 25.48608398 C-11.87498798 27.55785415 -11.86967482 29.62940839 -11.86328125 31.70117188 C-11.86457031 32.99732422 -11.86585938 34.29347656 -11.8671875 35.62890625 C-11.86831543 36.82588135 -11.86944336 38.02285645 -11.87060547 39.25610352 C-12 42 -12 42 -13 43 C-17.62 43 -22.24 43 -27 43 C-27 32.44 -27 21.88 -27 11 C-31.29 11 -35.58 11 -40 11 C-41.231394 7.30581799 -40.64432764 4.7943739 -40 1 C-34.46411549 0.85742225 -28.92822676 0.71501004 -23.39233398 0.57275391 C-21.50756718 0.5242973 -19.62280155 0.47579478 -17.73803711 0.42724609 C-15.03499655 0.3576277 -12.33195185 0.28817234 -9.62890625 0.21875 C-8.78099014 0.19687622 -7.93307404 0.17500244 -7.0594635 0.15246582 C-1.11387171 0 -1.11387171 0 0 0 Z " fill="#FEFAFB" transform="translate(304,149)"/>
<path d="M0 0 C-0.03307407 3.05383879 -0.56695842 5.96870896 -1 9 C-5.29 9 -9.58 9 -14 9 C-14 19.56 -14 30.12 -14 41 C-18.62 41 -23.24 41 -28 41 C-28.96498276 37.14006896 -29.0400583 34.42364726 -28.87890625 30.484375 C-28.83056641 29.23398438 -28.78222656 27.98359375 -28.73242188 26.6953125 C-28.67634766 25.39335937 -28.62027344 24.09140625 -28.5625 22.75 C-28.51029297 21.43257812 -28.45808594 20.11515625 -28.40429688 18.7578125 C-28.2746558 15.50500005 -28.13799639 12.2524687 -28 9 C-34.435 9.495 -34.435 9.495 -41 10 C-41 6.37 -41 2.74 -41 -1 C-35.48277042 -1.19208189 -29.96533332 -1.37083263 -24.44726562 -1.53710938 C-22.56921744 -1.5955953 -20.69128003 -1.65775641 -18.81347656 -1.72363281 C-16.11804368 -1.81756025 -13.42249184 -1.89836718 -10.7265625 -1.9765625 C-9.88380768 -2.00875885 -9.04105286 -2.0409552 -8.17276001 -2.0741272 C-2.22774341 -2.22774341 -2.22774341 -2.22774341 0 0 Z " fill="#FDFCFC" transform="translate(394,151)"/>
<path d="M0 0 C4.62 0 9.24 0 14 0 C14 10.56 14 21.12 14 32 C20.27 31.67 26.54 31.34 33 31 C34 33 34 33 33 43 C16.665 43.495 16.665 43.495 0 44 C-1.33249419 40.00251743 -1.14266329 36.15946284 -1.1328125 31.9921875 C-1.13424759 30.67034958 -1.13424759 30.67034958 -1.13571167 29.32180786 C-1.13639186 27.46079436 -1.1345488 25.59977847 -1.13037109 23.73876953 C-1.12500784 20.87917811 -1.13032806 18.01974286 -1.13671875 15.16015625 C-1.13605819 13.35416632 -1.13477749 11.54817648 -1.1328125 9.7421875 C-1.13483673 8.88180878 -1.13686096 8.02143005 -1.13894653 7.13497925 C-1.11495872 1.11495872 -1.11495872 1.11495872 0 0 Z " fill="#FEFCFC" transform="translate(443,149)"/>
<path d="M0 0 C10.7421875 -0.1953125 10.7421875 -0.1953125 14 0 C16 2 16 2 16.25 4.4375 C16 7 16 7 14 10 C15.98 12.97 15.98 12.97 18 16 C17 17 17 17 13.4375 17.0625 C12.303125 17.041875 11.16875 17.02125 10 17 C9.34 15.35 8.68 13.7 8 12 C7.855625 12.639375 7.71125 13.27875 7.5625 13.9375 C7 16 7 16 6 17 C4.02 17 2.04 17 0 17 C0 11.39 0 5.78 0 0 Z M7 4 C7 4.66 7 5.32 7 6 C7.99 5.67 8.98 5.34 10 5 C9.01 4.67 8.02 4.34 7 4 Z " fill="#FEC72A" transform="translate(560,150)"/>
<path d="M0 0 C2 1.5 2 1.5 3 4 C3.52498562 8.07988822 3.5378779 11.65530526 2 15.5 C-1.08710609 17.81532956 -4.19960787 18.06154481 -8 18 C-11.0224511 17.18312132 -11.8219757 16.22888838 -13.75 13.75 C-15.24128949 10.46916312 -15.52022372 8.56724837 -15 5 C-10.98827621 -1.22508864 -6.79946341 -1.7706936 0 0 Z M-7 4 C-8.32745166 5.11258591 -8.32745166 5.11258591 -8.25 7.9375 C-8.1675 8.948125 -8.085 9.95875 -8 11 C-6.515 11.99 -6.515 11.99 -5 13 C-2.65026182 11.10244856 -2.65026182 11.10244856 -2.875 7.875 C-2.91625 6.92625 -2.9575 5.9775 -3 5 C-4.94603274 4.40929986 -4.94603274 4.40929986 -7 4 Z " fill="#FCC32B" transform="translate(653,150)"/>
<path d="M0 0 C1.98 0 3.96 0 6 0 C8.375 2.5 8.375 2.5 10 5 C10 3.35 10 1.7 10 0 C11.98 0 13.96 0 16 0 C16 5.61 16 11.22 16 17 C11 17 11 17 8.6875 15 C7.8521875 14.01 7.8521875 14.01 7 13 C6.67 14.32 6.34 15.64 6 17 C4.02 17 2.04 17 0 17 C0 11.39 0 5.78 0 0 Z " fill="#FCCD1A" transform="translate(658,150)"/>
<path d="M0 0 C1.65 0.33 3.3 0.66 5 1 C5 6.61 5 12.22 5 18 C3.35 18 1.7 18 0 18 C-2.3125 15.5 -2.3125 15.5 -4 13 C-4.66 14.65 -5.32 16.3 -6 18 C-7.65 18 -9.3 18 -11 18 C-11 12.39 -11 6.78 -11 1 C-9.02 1 -7.04 1 -5 1 C-4.67 1.99 -4.34 2.98 -4 4 C-3.01 3.67 -2.02 3.34 -1 3 C-0.67 2.01 -0.34 1.02 0 0 Z M-1 6 C0 8 0 8 0 8 Z " fill="#FBCD22" transform="translate(520,149)"/>
<path d="M0 0 C2.875 1.9375 2.875 1.9375 5 5 C5.77205366 9.0933411 5.54661306 12.63346736 4 16.5 C0.90939156 18.81795633 -2.19695832 19.05388925 -6 19 C-9.25626377 18.20793584 -9.9074146 17.12961956 -11.875 14.375 C-13.32323292 10.03030123 -12.99496106 7.10780619 -11 3 C-7.5597255 -0.05802177 -4.52389396 -0.75398233 0 0 Z M-5 5 C-6.41577477 6.18424326 -6.41577477 6.18424326 -6.0625 9.5625 C-6.041875 10.696875 -6.02125 11.83125 -6 13 C-4.68 13.33 -3.36 13.66 -2 14 C-0.38050989 11.42786866 0.04408751 10.32330841 -0.375 7.25 C-0.58125 6.5075 -0.7875 5.765 -1 5 C-2.32 5 -3.64 5 -5 5 Z " fill="#FCC527" transform="translate(502,149)"/>
<path d="M0 0 C2.875 2 2.875 2 5 4 C4.34 5.32 3.68 6.64 3 8 C2.4225 7.835 1.845 7.67 1.25 7.5 C-1.26664369 6.85537969 -1.26664369 6.85537969 -5 7 C-5 8.98 -5 10.96 -5 13 C-4.01 13 -3.02 13 -2 13 C-1.34 11.68 -0.68 10.36 0 9 C1.98 9.66 3.96 10.32 6 11 C6 11.99 6 12.98 6 14 C5.34 14 4.68 14 4 14 C3.7215625 14.9590625 3.7215625 14.9590625 3.4375 15.9375 C2 18 2 18 -1.3125 18.9375 C-5.39624688 19.00671605 -6.88982683 18.57700063 -10 16 C-12.56074371 12.58567505 -12.44406364 9.14459395 -12 5 C-8.47403586 0.53377875 -5.6371593 -0.55266268 0 0 Z " fill="#FCC620" transform="translate(608,149)"/>
<path d="M0 0 C2.375 1.5 2.375 1.5 4 3 C3.79375 3.5775 3.5875 4.155 3.375 4.75 C2.75352025 7.02354048 2.75352025 7.02354048 4.0625 8.875 C5 11 5 11 4.375 14.125 C3 17 3 17 1.375 18.4375 C-2.3769032 19.32610865 -5.21510747 18.7936065 -9 18 C-11 15 -11 15 -11 12 C-8 12 -5 12 -2 12 C-3.11375 11.54625 -4.2275 11.0925 -5.375 10.625 C-9 9 -9 9 -11 7 C-10.875 4.5 -10.875 4.5 -10 2 C-6.90156222 -0.40989605 -3.81189683 -0.39707259 0 0 Z M-5 4 C-4.67 4.66 -4.34 5.32 -4 6 C-3.34 6 -2.68 6 -2 6 C-2 5.34 -2 4.68 -2 4 C-2.99 4 -3.98 4 -5 4 Z " fill="#FCC622" transform="translate(538,149)"/>
<path d="M0 0 C1.9078584 3.1749094 2.1609041 5.10585211 1.625 8.75 C1.51414062 9.54921875 1.40328125 10.3484375 1.2890625 11.171875 C1.19367187 11.77515625 1.09828125 12.3784375 1 13 C2.32 12.67 3.64 12.34 5 12 C5.33 8.37 5.66 4.74 6 1 C7.65 1 9.3 1 11 1 C11.05398987 3.27057377 11.09278742 5.54151288 11.125 7.8125 C11.14820313 9.07707031 11.17140625 10.34164062 11.1953125 11.64453125 C11 15 11 15 9 18 C6.02452627 18.95927435 3.11526478 19.19955433 0 19 C-2.55151968 17.15014823 -3.60976715 15.7804657 -5 13 C-5.07065617 10.95944995 -5.08421976 8.91665743 -5.0625 6.875 C-5.05347656 5.77929688 -5.04445313 4.68359375 -5.03515625 3.5546875 C-5.02355469 2.71164063 -5.01195312 1.86859375 -5 1 C-3.35 0.67 -1.7 0.34 0 0 Z " fill="#FEC925" transform="translate(583,149)"/>
<path d="M0 0 C2.875 2 2.875 2 5 4 C4.67 4.99 4.34 5.98 4 7 C2.1875 7.8125 2.1875 7.8125 0 8 C-2.25 7.0625 -2.25 7.0625 -4 6 C-5.00217064 9.58327753 -5.00217064 9.58327753 -4 13 C-3.34 13 -2.68 13 -2 13 C-1.34 12.01 -0.68 11.02 0 10 C1.9375 10.3125 1.9375 10.3125 4 11 C5 14 5 14 4 16.125 C1.10356319 18.84040951 -1.08581411 18.93251404 -5 19 C-8.81450775 17.61290627 -9.86144166 16.22515731 -12 12.75 C-13 9 -13 9 -11.9375 5.1875 C-8.82919602 0.07383862 -5.91029571 -0.72370968 0 0 Z " fill="#FCC727" transform="translate(484,149)"/>
<path d="M0 0 C4.95 0 9.9 0 15 0 C15 1.65 15 3.3 15 5 C13.68 5.33 12.36 5.66 11 6 C11.01160156 6.71027344 11.02320313 7.42054688 11.03515625 8.15234375 C11.04869141 9.53099609 11.04869141 9.53099609 11.0625 10.9375 C11.07410156 11.85402344 11.08570313 12.77054688 11.09765625 13.71484375 C11 16 11 16 10 17 C7.5 17.125 7.5 17.125 5 17 C4 16 4 16 3.90234375 13.27734375 C3.91394531 12.17519531 3.92554688 11.07304687 3.9375 9.9375 C3.94652344 8.83277344 3.95554687 7.72804687 3.96484375 6.58984375 C3.97644531 5.73519531 3.98804688 4.88054687 4 4 C2.68 4.33 1.36 4.66 0 5 C0 3.35 0 1.7 0 0 Z " fill="#FECB25" transform="translate(614,150)"/>
<path d="M0 0 C5.28 0 10.56 0 16 0 C16 1.32 16 2.64 16 4 C15.03320312 4.32097656 15.03320312 4.32097656 14.046875 4.6484375 C11.72160885 5.8473523 11.72160885 5.8473523 11.390625 8.6015625 C11.32101562 10.09816406 11.32101562 10.09816406 11.25 11.625 C11.19328125 12.62789062 11.1365625 13.63078125 11.078125 14.6640625 C11.05234375 15.43492187 11.0265625 16.20578125 11 17 C9.02 17 7.04 17 5 17 C4.80533668 15.20909747 4.61948787 13.41723495 4.4375 11.625 C4.33308594 10.62726563 4.22867188 9.62953125 4.12109375 8.6015625 C4 6 4 6 5 4 C3.35 4.33 1.7 4.66 0 5 C0 3.35 0 1.7 0 0 Z " fill="#FBC528" transform="translate(543,150)"/>
<path d="M0 0 C1.98 0 3.96 0 6 0 C6 5.61 6 11.22 6 17 C4.02 17 2.04 17 0 17 C-0.19644384 15.10507254 -0.38177288 13.20899097 -0.5625 11.3125 C-0.66691406 10.25675781 -0.77132812 9.20101562 -0.87890625 8.11328125 C-0.99277552 5.18573914 -0.70848415 2.82868856 0 0 Z " fill="#FAC425" transform="translate(631,150)"/>
<path d="M0 0 C9.27734375 -0.09765625 9.27734375 -0.09765625 12 0 C13 1 13 1 13.0625 3.5625 C13.041875 4.366875 13.02125 5.17125 13 6 C11.68 5.67 10.36 5.34 9 5 C9 4.34 9 3.68 9 3 C7.68 3 6.36 3 5 3 C5 3.99 5 4.98 5 6 C5.99 6 6.98 6 8 6 C8 6.66 8 7.32 8 8 C6.68 8 5.36 8 4 8 C4 9.98 4 11.96 4 14 C2.68 14 1.36 14 0 14 C0 9.38 0 4.76 0 0 Z " fill="#FCD50E" transform="translate(561,151)"/>
<path d="M0 0 C1.17755859 -0.00773438 1.17755859 -0.00773438 2.37890625 -0.015625 C4.4375 0.25 4.4375 0.25 6.4375 2.25 C6.6328125 4.6328125 6.6328125 4.6328125 6.5625 7.375 C6.54445313 8.28507813 6.52640625 9.19515625 6.5078125 10.1328125 C6.48460937 10.83148438 6.46140625 11.53015625 6.4375 12.25 C5.7775 11.92 5.1175 11.59 4.4375 11.25 C4.4375 8.61 4.4375 5.97 4.4375 3.25 C1.7975 3.58 -0.8425 3.91 -3.5625 4.25 C-3.5625 7.22 -3.5625 10.19 -3.5625 13.25 C-5.2125 12.92 -6.8625 12.59 -8.5625 12.25 C-9.71421123 8.21901069 -9.56606005 5.95658609 -7.5625 2.25 C-4.42838698 0.16059132 -3.58799528 -0.02364412 0 0 Z " fill="#FCCF15" transform="translate(498.5625,150.75)"/>
<path d="M0 0 C1 2 2 4 3 6 C3.66 6 4.32 6 5 6 C5.66 5.01 6.32 4.02 7 3 C8.9375 3.3125 8.9375 3.3125 11 4 C12 7 12 7 11 9.125 C8.10356319 11.84040951 5.91418589 11.93251404 2 12 C-0.8125 10.9375 -0.8125 10.9375 -3 9 C-4.3125 5.8125 -4.3125 5.8125 -5 3 C-4.01 3.33 -3.02 3.66 -2 4 C-1.67 4.99 -1.34 5.98 -1 7 C-0.67 4.69 -0.34 2.38 0 0 Z " fill="#FCBE39" transform="translate(477,156)"/>
<path d="M0 0 C0.33 0 0.66 0 1 0 C1 13.2 1 26.4 1 40 C11.23 40 21.46 40 32 40 C31.67 36.7 31.34 33.4 31 30 C31.99 30 32.98 30 34 30 C33.67 33.63 33.34 37.26 33 41 C16.665 41.495 16.665 41.495 0 42 C-1.32339119 38.02982643 -1.01212931 34.30326443 -0.87890625 30.17578125 C-0.85529526 29.31438034 -0.83168427 28.45297943 -0.80735779 27.56547546 C-0.7307872 24.81431325 -0.6467344 22.0634372 -0.5625 19.3125 C-0.5092727 17.44727963 -0.45653235 15.58204529 -0.40429688 13.71679688 C-0.27518096 9.14435004 -0.13935423 4.57214579 0 0 Z " fill="#F9DBE8" transform="translate(443,151)"/>
<path d="M0 0 C-0.03307407 3.05383879 -0.56695842 5.96870896 -1 9 C-5.29 9 -9.58 9 -14 9 C-14 8.67 -14 8.34 -14 8 C-10.04 8 -6.08 8 -2 8 C-2 5.36 -2 2.72 -2 0 C-14.21 0 -26.42 0 -39 0 C-39 3.3 -39 6.6 -39 10 C-39.66 10 -40.32 10 -41 10 C-41 6.37 -41 2.74 -41 -1 C-35.48277042 -1.19208189 -29.96533332 -1.37083263 -24.44726562 -1.53710938 C-22.56921744 -1.5955953 -20.69128003 -1.65775641 -18.81347656 -1.72363281 C-16.11804368 -1.81756025 -13.42249184 -1.89836718 -10.7265625 -1.9765625 C-9.88380768 -2.00875885 -9.04105286 -2.0409552 -8.17276001 -2.0741272 C-2.22774341 -2.22774341 -2.22774341 -2.22774341 0 0 Z " fill="#FDEAF2" transform="translate(394,151)"/>
<path d="M0 0 C0.33 0 0.66 0 1 0 C1.45378151 7.86554622 1.45378151 7.86554622 0 11.5 C-3.22075025 13.91556269 -5.99665965 13.87290983 -10 14 C-10.66 13.34 -11.32 12.68 -12 12 C-11.01 11.67 -10.02 11.34 -9 11 C-9.66 10.01 -10.32 9.02 -11 8 C-11.07905064 5.66800612 -11.08798769 3.33167378 -11 1 C-10.67 1 -10.34 1 -10 1 C-9.34 3.31 -8.68 5.62 -8 8 C-7.34 7.67 -6.68 7.34 -6 7 C-5.34227572 3.97065509 -5.34227572 3.97065509 -5 1 C-4.67 1 -4.34 1 -4 1 C-3.875 7.625 -3.875 7.625 -5 11 C-4.01 11 -3.02 11 -2 11 C-2.20625 10.38125 -2.4125 9.7625 -2.625 9.125 C-2.74875 8.42375 -2.8725 7.7225 -3 7 C-2.34 6.34 -1.68 5.68 -1 5 C-0.35232207 2.42938689 -0.35232207 2.42938689 0 0 Z " fill="#FBB52A" transform="translate(655,154)"/>
<path d="M0 0 C1.98 0 3.96 0 6 0 C4.68 0.33 3.36 0.66 2 1 C2 5.62 2 10.24 2 15 C2.66 15 3.32 15 4 15 C4.33 13.02 4.66 11.04 5 9 C6.32 9.33 7.64 9.66 9 10 C8.67 10.99 8.34 11.98 8 13 C7.67 12.67 7.34 12.34 7 12 C6.34 13.65 5.68 15.3 5 17 C3.35 17 1.7 17 0 17 C0 11.39 0 5.78 0 0 Z " fill="#FEC233" transform="translate(509,150)"/>
<path d="M0 0 C7.38804781 -0.36334661 7.38804781 -0.36334661 10 1.1875 C11.35198412 3.63797122 11.34507474 5.23940207 11 8 C10.01 9.485 10.01 9.485 9 11 C9 11.99 9 12.98 9 14 C8.01 14 7.02 14 6 14 C6 10.04 6 6.08 6 2 C4.02 2 2.04 2 0 2 C0 1.34 0 0.68 0 0 Z " fill="#FCD50F" transform="translate(644,151)"/>
<path d="M0 0 C8.58 0 17.16 0 26 0 C25.67 0.99 25.34 1.98 25 3 C16.75 2.67 8.5 2.34 0 2 C0 1.34 0 0.68 0 0 Z " fill="#8E7076" transform="translate(140,201)"/>
<path d="M0 0 C0.66 0 1.32 0 2 0 C2 2.64 2 5.28 2 8 C2.99 8.33 3.98 8.66 5 9 C5 9.66 5 10.32 5 11 C3.02 11.99 3.02 11.99 1 13 C-3 7.375 -3 7.375 -3 4 C-2.34 4 -1.68 4 -1 4 C-0.67 2.68 -0.34 1.36 0 0 Z " fill="#FBD310" transform="translate(641,154)"/>
<path d="M0 0 C0.99 0 1.98 0 3 0 C3 3.63 3 7.26 3 11 C1.68 11 0.36 11 -1 11 C-1.02688151 9.35425434 -1.04634123 7.70838587 -1.0625 6.0625 C-1.07410156 5.14597656 -1.08570313 4.22945312 -1.09765625 3.28515625 C-1 1 -1 1 0 0 Z " fill="#FBD60C" transform="translate(620,154)"/>
<path d="M0 0 C0.66 0 1.32 0 2 0 C1.67 2.64 1.34 5.28 1 8 C1.66 8.33 2.32 8.66 3 9 C1.68 9.33 0.36 9.66 -1 10 C-1 10.66 -1 11.32 -1 12 C0.32 12 1.64 12 3 12 C3 12.66 3 13.32 3 14 C0.625 13.8125 0.625 13.8125 -2 13 C-3.3125 10.4375 -3.3125 10.4375 -4 8 C-3.01 8 -2.02 8 -1 8 C-0.67 5.36 -0.34 2.72 0 0 Z " fill="#FBBD2D" transform="translate(583,154)"/>
<path d="M0 0 C0.33 0 0.66 0 1 0 C1 3.3 1 6.6 1 10 C2.32 10 3.64 10 5 10 C5 7.03 5 4.06 5 1 C5.66 1 6.32 1 7 1 C7.02688151 2.64574566 7.04634123 4.29161413 7.0625 5.9375 C7.07410156 6.85402344 7.08570313 7.77054688 7.09765625 8.71484375 C7 11 7 11 6 12 C3.5 12.125 3.5 12.125 1 12 C0 11 0 11 -0.09765625 8.49609375 C-0.08605469 7.48675781 -0.07445312 6.47742188 -0.0625 5.4375 C-0.05347656 4.42558594 -0.04445313 3.41367188 -0.03515625 2.37109375 C-0.02355469 1.58863281 -0.01195312 0.80617187 0 0 Z " fill="#FDC43C" transform="translate(618,155)"/>
<path d="M0 0 C0.33 0 0.66 0 1 0 C1 1.98 1 3.96 1 6 C1.66 6 2.32 6 3 6 C3 7.32 3 8.64 3 10 C3.66 10 4.32 10 5 10 C5 7.36 5 4.72 5 2 C7 5.75 7 5.75 7 8 C7.66 8 8.32 8 9 8 C9 8.66 9 9.32 9 10 C8.01 10 7.02 10 6 10 C6 10.99 6 11.98 6 13 C3.67241689 12.06896676 2.25642868 11.34617872 0.75 9.3125 C-0.27095909 6.16454282 -0.12632947 3.28456632 0 0 Z " fill="#FDC630" transform="translate(596,154)"/>
<path d="M0 0 C0.66 0 1.32 0 2 0 C2 0.66 2 1.32 2 2 C2.66 2 3.32 2 4 2 C3 10.57142857 3 10.57142857 2 14 C1.34 14 0.68 14 0 14 C0 9.38 0 4.76 0 0 Z " fill="#FCD70A" transform="translate(511,151)"/>
<path d="M0 0 C0.99 0.33 1.98 0.66 3 1 C2.8864371 2.64666203 2.75882619 4.29236082 2.625 5.9375 C2.55539062 6.85402344 2.48578125 7.77054688 2.4140625 8.71484375 C2.27742188 9.46894531 2.14078125 10.22304687 2 11 C1.01 11.495 1.01 11.495 0 12 C0 10.68 0 9.36 0 8 C-1.32 7.34 -2.64 6.68 -4 6 C-3.01 5.67 -2.02 5.34 -1 5 C-0.67 3.35 -0.34 1.7 0 0 Z " fill="#FDD50C" transform="translate(475,152)"/>
<path d="M0 0 C5.61 0 11.22 0 17 0 C16.67 0.99 16.34 1.98 16 3 C13.51979503 2.88658509 11.04155031 2.75985314 8.5625 2.625 C7.85544922 2.5940625 7.14839844 2.563125 6.41992188 2.53125 C4.60760812 2.42719371 2.80182012 2.22080108 1 2 C0.67 1.34 0.34 0.68 0 0 Z " fill="#906E74" transform="translate(201,201)"/>
<path d="M0 0 C0.99 0 1.98 0 3 0 C3.05447047 1.41623216 3.09300508 2.83308191 3.125 4.25 C3.14820313 5.03890625 3.17140625 5.8278125 3.1953125 6.640625 C2.9828378 9.20731941 2.28654105 10.7916067 1 13 C-0.32229189 10.35541621 -0.09677194 8.32238699 -0.0625 5.375 C-0.05347656 4.37210938 -0.04445313 3.36921875 -0.03515625 2.3359375 C-0.02355469 1.56507813 -0.01195312 0.79421875 0 0 Z " fill="#FDD412" transform="translate(590,151)"/>
<path d="M0 0 C0.33 0 0.66 0 1 0 C1 2.31 1 4.62 1 7 C2.32 7.66 3.64 8.32 5 9 C3.68 9 2.36 9 1 9 C1 9.66 1 10.32 1 11 C1.99 11 2.98 11 4 11 C4 11.66 4 12.32 4 13 C1.03 12.505 1.03 12.505 -2 12 C-2.33 11.01 -2.66 10.02 -3 9 C-2.01 9 -1.02 9 0 9 C0 6.03 0 3.06 0 0 Z " fill="#FCC52B" transform="translate(495,155)"/>
<path d="M0 0 C2.375 -0.125 2.375 -0.125 5 0 C7 2 7 2 7.1953125 4.3828125 C7.17210937 5.28773438 7.14890625 6.19265625 7.125 7.125 C7.10695313 8.03507813 7.08890625 8.94515625 7.0703125 9.8828125 C7.04710937 10.58148438 7.02390625 11.28015625 7 12 C6.34 11.67 5.68 11.34 5 11 C5 8.36 5 5.72 5 3 C2.525 2.01 2.525 2.01 0 1 C0 0.67 0 0.34 0 0 Z " fill="#FBD70C" transform="translate(498,151)"/>
<path d="M0 0 C4.29 0 8.58 0 13 0 C13 0.66 13 1.32 13 2 C11.58456585 2.19658808 10.16755969 2.38187546 8.75 2.5625 C7.96109375 2.66691406 7.1721875 2.77132812 6.359375 2.87890625 C3.99467126 3.00027349 2.2488963 2.69633257 0 2 C0 1.34 0 0.68 0 0 Z " fill="#FCD50B" transform="translate(544,151)"/>
<path d="M0 0 C0.33 0 0.66 0 1 0 C1.05422947 1.4370809 1.09289723 2.87475462 1.125 4.3125 C1.14820313 5.11300781 1.17140625 5.91351563 1.1953125 6.73828125 C1 9 1 9 -1 12 C-3.625 12.1875 -3.625 12.1875 -6 12 C-5.67 11.01 -5.34 10.02 -5 9 C-5 9.66 -5 10.32 -5 11 C-4.01 11 -3.02 11 -2 11 C-2.20625 10.38125 -2.4125 9.7625 -2.625 9.125 C-2.810625 8.073125 -2.810625 8.073125 -3 7 C-2.34 6.34 -1.68 5.68 -1 5 C-0.35232207 2.42938689 -0.35232207 2.42938689 0 0 Z " fill="#FEC527" transform="translate(655,154)"/>
<path d="M0 0 C2.1875 0.3125 2.1875 0.3125 4 1 C4.6875 2.75 4.6875 2.75 5 5 C3.5625 7.25 3.5625 7.25 2 9 C2 7.02 2 5.04 2 3 C1.01 3 0.02 3 -1 3 C-1.33 3.99 -1.66 4.98 -2 6 C-2.33 5.01 -2.66 4.02 -3 3 C-1.75 1.4375 -1.75 1.4375 0 0 Z " fill="#FCC621" transform="translate(550,153)"/>
<path d="M0 0 C0.99 0 1.98 0 3 0 C3 0.66 3 1.32 3 2 C3.66 2 4.32 2 5 2 C5.66 3.65 6.32 5.3 7 7 C5.35 7 3.7 7 2 7 C1.67 6.01 1.34 5.02 1 4 C1.33 3.34 1.66 2.68 2 2 C1.34 2 0.68 2 0 2 C0 1.34 0 0.68 0 0 Z " fill="#FECA21" transform="translate(513,151)"/>
<path d="M0 0 C0.33 0 0.66 0 1 0 C1.25 2.25 1.25 2.25 1 5 C-1 7.3125 -1 7.3125 -3 9 C-3.99 8.67 -4.98 8.34 -6 8 C-5.34 8 -4.68 8 -4 8 C-4 6.68 -4 5.36 -4 4 C-2.68 3.67 -1.36 3.34 0 3 C0 2.01 0 1.02 0 0 Z " fill="#FBD510" transform="translate(540,159)"/>
<path d="M0 0 C7.75 -0.125 7.75 -0.125 10 1 C10 1.99 10 2.98 10 4 C8.51882199 3.71872579 7.04006751 3.42466268 5.5625 3.125 C4.73878906 2.96257812 3.91507813 2.80015625 3.06640625 2.6328125 C2.38449219 2.42398438 1.70257812 2.21515625 1 2 C0.67 1.34 0.34 0.68 0 0 Z " fill="#FCD312" transform="translate(601,151)"/>
<path d="M0 0 C-0.33 1.32 -0.66 2.64 -1 4 C-1.66 4 -2.32 4 -3 4 C-3.33 4.99 -3.66 5.98 -4 7 C-4.66 6.34 -5.32 5.68 -6 5 C-5.75 2.9375 -5.75 2.9375 -5 1 C-3 0 -3 0 0 0 Z " fill="#FBD210" transform="translate(487,161)"/>
<path d="M0 0 C3.3 0 6.6 0 10 0 C10.66 1.32 11.32 2.64 12 4 C11.01 4.495 11.01 4.495 10 5 C10 4.34 10 3.68 10 3 C6.7 2.34 3.4 1.68 0 1 C0 0.67 0 0.34 0 0 Z " fill="#96626B" transform="translate(231,119)"/>
<path d="M0 0 C1.64350079 3.28700157 2.41321669 5.47930015 3 9 C1.68 9 0.36 9 -1 9 C-0.67 6.03 -0.34 3.06 0 0 Z " fill="#FECB22" transform="translate(477,156)"/>
<path d="M0 0 C0.33 1.32 0.66 2.64 1 4 C0.01 4 -0.98 4 -2 4 C-2 3.34 -2 2.68 -2 2 C-3.32 2 -4.64 2 -6 2 C-6 1.34 -6 0.68 -6 0 C-3.50907189 -1.24546405 -2.58919267 -0.7767578 0 0 Z " fill="#FCCA08" transform="translate(588,164)"/>
<path d="M0 0 C0.33 1.32 0.66 2.64 1 4 C0.34 4 -0.32 4 -1 4 C-0.67 5.98 -0.34 7.96 0 10 C-0.66 9.67 -1.32 9.34 -2 9 C-2.144375 8.34 -2.28875 7.68 -2.4375 7 C-2.623125 6.34 -2.80875 5.68 -3 5 C-3.99 4.67 -4.98 4.34 -6 4 C-5.67 3.34 -5.34 2.68 -5 2 C-3.35 2.33 -1.7 2.66 0 3 C0 2.01 0 1.02 0 0 Z " fill="#F7C80E" transform="translate(520,155)"/>
<path d="M0 0 C-0.99 0.495 -0.99 0.495 -2 1 C-2 1.66 -2 2.32 -2 3 C-3.32 3 -4.64 3 -6 3 C-6 3.66 -6 4.32 -6 5 C-6.66 5 -7.32 5 -8 5 C-7.625 3.0625 -7.625 3.0625 -7 1 C-4.53721199 -0.231394 -2.7204945 -0.07159196 0 0 Z " fill="#906B72" transform="translate(122,119)"/>
<path d="M0 0 C4.95 0.33 9.9 0.66 15 1 C15 1.33 15 1.66 15 2 C10.38 2.33 5.76 2.66 1 3 C0.67 2.01 0.34 1.02 0 0 Z " fill="#FDE6F0" transform="translate(393,190)"/>
<path d="M0 0 C0.99 0.99 1.98 1.98 3 3 C2 4 2 4 -1.5625 4.0625 C-2.696875 4.041875 -3.83125 4.02125 -5 4 C-5 3.34 -5 2.68 -5 2 C-3.35 2 -1.7 2 0 2 C0 1.34 0 0.68 0 0 Z " fill="#FEC033" transform="translate(575,163)"/>
<path d="M0 0 C0.66 0.33 1.32 0.66 2 1 C2.6328125 3.06640625 2.6328125 3.06640625 3.125 5.5625 C3.29257812 6.38878906 3.46015625 7.21507812 3.6328125 8.06640625 C3.75398438 8.70449219 3.87515625 9.34257812 4 10 C0.70395897 8.35197949 0.22409524 5.32254422 -1 2 C-0.67 1.34 -0.34 0.68 0 0 Z " fill="#FEF3ED" transform="translate(430,167)"/>
<path d="M0 0 C0.66 0 1.32 0 2 0 C2.33 3.63 2.66 7.26 3 11 C-0.317124 6.577168 -0.30466674 5.28089024 0 0 Z " fill="#FCECF4" transform="translate(306,167)"/>
<path d="M0 0 C-1.1875 1.5 -1.1875 1.5 -3 3 C-5.6875 3.1875 -5.6875 3.1875 -8 3 C-8 2.34 -8 1.68 -8 1 C-5.07175348 0.02391783 -3.04386724 -0.08226668 0 0 Z " fill="#FCBB2B" transform="translate(611,165)"/>
<path d="" fill="#FFFFFF" transform="translate(0,0)"/>
</svg>
