<?xml version="1.0" encoding="UTF-8"?>
<svg version="1.1" xmlns="http://www.w3.org/2000/svg" width="738" height="254">
<path d="M0 0 C0.96835596 0.00701903 1.93671192 0.01403807 2.934412 0.0212698 C4.5396602 0.0407195 4.5396602 0.0407195 6.17733765 0.06056213 C7.31748007 0.07035378 8.45762249 0.08014544 9.63231468 0.0902338 C13.33667422 0.12320726 17.04092138 0.1631767 20.74520874 0.2033844 C23.02669862 0.22471857 25.30819283 0.24559602 27.58969116 0.26600647 C36.06606305 0.34505645 44.54235042 0.4329672 53.01864624 0.51979065 C81.41927124 0.79822815 81.41927124 0.79822815 110.39364624 1.08229065 C110.39364624 39.69229065 110.39364624 78.30229065 110.39364624 118.08229065 C71.78364624 118.08229065 33.17364624 118.08229065 -6.60635376 118.08229065 C-6.60635376 79.47229065 -6.60635376 40.86229065 -6.60635376 1.08229065 C-4.18554374 -0.12811436 -2.70349704 -0.02650487 0 0 Z M17.39364624 25.08229065 C17.39364624 47.85229065 17.39364624 70.62229065 17.39364624 94.08229065 C40.16364624 94.08229065 62.93364624 94.08229065 86.39364624 94.08229065 C86.39364624 71.31229065 86.39364624 48.54229065 86.39364624 25.08229065 C63.62364624 25.08229065 40.85364624 25.08229065 17.39364624 25.08229065 Z " fill="#808085" transform="translate(38.606353759765625,85.91770935058594)"/>
<path d="M0 0 C0.99 0.66 1.98 1.32 3 2 C2.95875 1.05125 2.9175 0.1025 2.875 -0.875 C3 -4 3 -4 5 -6 C7.45392491 -6.24707624 9.80252731 -6.37368908 12.26171875 -6.4140625 C12.99646423 -6.43351929 13.73120972 -6.45297607 14.48822021 -6.47302246 C16.88786137 -6.53364842 19.28752203 -6.57982688 21.6875 -6.625 C23.33017033 -6.6621218 24.97282994 -6.69972082 26.61547852 -6.73779297 C35.88817773 -6.94311543 45.16250262 -7.09252398 54.4375 -7.125 C55.35168701 -7.12967285 56.26587402 -7.1343457 57.20776367 -7.13916016 C61.27028257 -7.12900093 65.03793405 -7.02509304 69 -6 C69.99 -2.04 69.99 -2.04 71 2 C71.45890625 1.43410156 71.9178125 0.86820313 72.390625 0.28515625 C73.31101562 -0.81505859 73.31101562 -0.81505859 74.25 -1.9375 C74.85328125 -2.66839844 75.4565625 -3.39929688 76.078125 -4.15234375 C79.78685155 -7.71784712 83.85665623 -7.13573856 88.8125 -7.125 C89.99457031 -7.12757813 91.17664063 -7.13015625 92.39453125 -7.1328125 C102.11388499 -6.77478647 102.11388499 -6.77478647 105.30078125 -3.98828125 C105.96464844 -3.10527344 106.62851562 -2.22226563 107.3125 -1.3125 C108.07046875 -0.32378906 108.8284375 0.66492188 109.609375 1.68359375 C111.27479261 3.96769336 112.89999281 6.27814117 114.515625 8.59765625 C115.36429123 9.8153078 116.21324885 11.03275632 117.0625 12.25 C117.68354614 13.14392456 117.68354614 13.14392456 118.31713867 14.0559082 C121.64989415 18.75060388 125.3623379 22.55413933 130 26 C129.98839844 25.19820312 129.97679687 24.39640625 129.96484375 23.5703125 C129.90812802 16.424131 130.06107729 9.32310324 130.4375 2.1875 C130.47673584 1.3929541 130.51597168 0.5984082 130.55639648 -0.22021484 C130.87813594 -5.87813594 130.87813594 -5.87813594 132 -7 C135.08759951 -7.4079547 138.20386302 -7.51669577 141.3125 -7.6875 C142.61477539 -7.77741211 142.61477539 -7.77741211 143.94335938 -7.86914062 C144.78318359 -7.91619141 145.62300781 -7.96324219 146.48828125 -8.01171875 C147.64130737 -8.08072388 147.64130737 -8.08072388 148.81762695 -8.15112305 C151.30653503 -7.97877333 152.85977367 -7.24484103 155 -6 C155.02505615 -5.30849854 155.0501123 -4.61699707 155.07592773 -3.90454102 C155.19152161 -0.79032134 155.31441242 2.32356789 155.4375 5.4375 C155.47681641 6.52611328 155.51613281 7.61472656 155.55664062 8.73632812 C155.59853516 9.77080078 155.64042969 10.80527344 155.68359375 11.87109375 C155.72025146 12.82943115 155.75690918 13.78776855 155.79467773 14.77514648 C155.75834424 16.97138925 155.75834424 16.97138925 157 18 C159.03663298 18.12184339 161.07715152 18.17974604 163.1171875 18.2109375 C164.98697266 18.25347656 164.98697266 18.25347656 166.89453125 18.296875 C169.54022539 18.34880226 172.18608024 18.39311957 174.83203125 18.4296875 C176.70568359 18.47609375 176.70568359 18.47609375 178.6171875 18.5234375 C179.76815918 18.54325684 180.91913086 18.56307617 182.10498047 18.58349609 C185 19 185 19 186.88330078 20.33837891 C188.58936601 22.8769622 188.25317213 25.02522753 188 28 C187.67 28.66 187.34 29.32 187 30 C176.22999767 30.0694446 165.46004841 30.12278307 154.68986797 30.15543652 C149.68907971 30.17110684 144.68844438 30.19237004 139.68774414 30.22631836 C134.86372686 30.25886309 130.03985687 30.27684271 125.2157383 30.28463173 C123.37328586 30.29018404 121.53084167 30.30102608 119.68845177 30.31719017 C117.11202816 30.33889965 114.53621683 30.34196967 111.9597168 30.34057617 C111.19439133 30.351362 110.42906586 30.36214783 109.64054871 30.3732605 C104.49072587 30.34302865 104.49072587 30.34302865 102.0025177 28.60371399 C101 27 101 27 101 25 C97.56126184 25.05179764 94.12505092 25.14685105 90.6875 25.25 C89.22280273 25.27126953 89.22280273 25.27126953 87.72851562 25.29296875 C86.79072266 25.32519531 85.85292969 25.35742188 84.88671875 25.390625 C84.02264404 25.41157227 83.15856934 25.43251953 82.26831055 25.45410156 C79.825205 25.78209016 79.825205 25.78209016 78.54101562 28.01367188 C77 30 77 30 74.45629883 30.45410156 C73.46654053 30.4331543 72.47678223 30.41220703 71.45703125 30.390625 C70.38388672 30.37773437 69.31074219 30.36484375 68.20507812 30.3515625 C67.08552734 30.31804687 65.96597656 30.28453125 64.8125 30.25 C63.68134766 30.23195312 62.55019531 30.21390625 61.38476562 30.1953125 C58.58899624 30.14812652 55.79492028 30.08230595 53 30 C52.67 28.68 52.34 27.36 52 26 C52.88042969 25.32324219 53.76085937 24.64648438 54.66796875 23.94921875 C58.21489975 20.99222691 60.71746169 17.60402925 63.3125 13.8125 C63.97475586 12.86987305 63.97475586 12.86987305 64.65039062 11.90820312 C66.99646102 8.55842985 66.99646102 8.55842985 69 5 C62.73 5.33 56.46 5.66 50 6 C50.01160156 7.56492188 50.02320313 9.12984375 50.03515625 10.7421875 C50.04453363 12.78645714 50.05363389 14.83072807 50.0625 16.875 C50.07087891 17.90753906 50.07925781 18.94007813 50.08789062 20.00390625 C50.09111328 20.99003906 50.09433594 21.97617188 50.09765625 22.9921875 C50.10289307 23.90339355 50.10812988 24.81459961 50.11352539 25.75341797 C50 28 50 28 49 30 C41.08 30 33.16 30 25 30 C24.5625 18.5625 24.5625 18.5625 24.43188477 14.95141602 C24.39377686 14.01998779 24.35566895 13.08855957 24.31640625 12.12890625 C24.27974854 11.17056885 24.24309082 10.21223145 24.20532227 9.22485352 C24.24165576 7.02861075 24.24165576 7.02861075 23 6 C20.14122091 5.76298761 17.30116703 5.57780818 14.4375 5.4375 C13.22803711 5.37272461 13.22803711 5.37272461 11.99414062 5.30664062 C9.99631195 5.20024738 7.9981793 5.09959112 6 5 C5.97421875 5.79664063 5.9484375 6.59328125 5.921875 7.4140625 C5.33866127 18.30955538 5.33866127 18.30955538 1 23 C-7.97556893 30.47964077 -18.84495133 30.47440142 -30 30.375 C-31.95292969 30.39240234 -31.95292969 30.39240234 -33.9453125 30.41015625 C-45.49311462 30.37516291 -54.43513447 28.83543603 -63.25 21 C-66.0142274 16.26132445 -66.28602571 11.41430504 -67 6 C-72.61 6 -78.22 6 -84 6 C-84.33 13.92 -84.66 21.84 -85 30 C-92.92 30 -100.84 30 -109 30 C-109.4375 18.5625 -109.4375 18.5625 -109.56811523 14.95141602 C-109.6252771 13.55427368 -109.6252771 13.55427368 -109.68359375 12.12890625 C-109.72025146 11.17056885 -109.75690918 10.21223145 -109.79467773 9.22485352 C-109.75834424 7.02861075 -109.75834424 7.02861075 -111 6 C-112.34015221 5.84417697 -113.68758903 5.74955858 -115.03515625 5.68359375 C-115.84404297 5.64169922 -116.65292969 5.59980469 -117.48632812 5.55664062 C-118.33646484 5.51732422 -119.18660156 5.47800781 -120.0625 5.4375 C-120.91650391 5.39431641 -121.77050781 5.35113281 -122.65039062 5.30664062 C-124.76672037 5.20023298 -126.88333813 5.09958269 -129 5 C-130.125 -2.625 -130.125 -2.625 -129 -6 C-125.87003636 -7.24353991 -122.69390349 -7.12672875 -119.36108398 -7.12939453 C-118.22988632 -7.13254669 -117.09868866 -7.13569885 -115.93321228 -7.13894653 C-114.71646317 -7.1369223 -113.49971405 -7.13489807 -112.24609375 -7.1328125 C-110.993694 -7.13376923 -109.74129425 -7.13472595 -108.45094299 -7.13571167 C-105.80393006 -7.1363921 -103.1570095 -7.1350495 -100.51000977 -7.13037109 C-97.11823816 -7.12466824 -93.7265456 -7.1279594 -90.33477688 -7.13394356 C-87.09687966 -7.13842592 -83.858992 -7.13528787 -80.62109375 -7.1328125 C-78.79293373 -7.13584885 -78.79293373 -7.13584885 -76.92784119 -7.13894653 C-75.79979568 -7.13579437 -74.67175018 -7.13264221 -73.50952148 -7.12939453 C-72.51564926 -7.12859894 -71.52177704 -7.12780334 -70.49778748 -7.12698364 C-68 -7 -68 -7 -65 -6 C-64.505 -2.535 -64.505 -2.535 -64 1 C-63.04480469 0.51789063 -62.08960938 0.03578125 -61.10546875 -0.4609375 C-42.55111545 -9.62116988 -17.85337426 -12.99357324 0 0 Z M-41 7 C-42.43735246 9.87470493 -42.38172649 11.81894588 -42 15 C-38.28639741 18.71360259 -35.42375437 19.90663906 -30.1875 20.25 C-26.15260452 20.19055403 -23.40379426 19.26919617 -20 17 C-18.14483749 14.58022282 -17.96491278 13.4795254 -18.1875 10.4375 C-19.06884332 7.79347005 -19.80895189 6.68542163 -22 5 C-28.51553459 2.82815514 -35.21319317 3.14212878 -41 7 Z " fill="#3E6377" transform="translate(296,136)"/>
<path d="M0 0 C86.79 0 173.58 0 263 0 C263 8.58 263 17.16 263 26 C232.52811466 26.15055142 202.05621001 26.29589448 171.58426251 26.4332476 C167.97617807 26.44951607 164.36809385 26.46583217 160.76000977 26.48217773 C159.68267938 26.48705712 159.68267938 26.48705712 158.58358475 26.49203508 C146.99680741 26.54462655 135.41005191 26.60106516 123.82329998 26.6589582 C111.90949504 26.71839849 99.99567579 26.77362875 88.08183354 26.82505554 C81.40045251 26.85401411 74.71909472 26.88497118 68.03774452 26.92053413 C61.73331467 26.95402917 55.42888191 26.98227549 49.12441063 27.00670624 C46.82565303 27.01650123 44.52690226 27.02812133 42.22816467 27.04183006 C28.10769625 27.12474351 14.10109093 26.78452894 0 26 C0 17.42 0 8.84 0 0 Z " fill="#5B5C5E" transform="translate(457,122)"/>
<path d="M0 0 C86.79 0 173.58 0 263 0 C263 8.58 263 17.16 263 26 C188.75 26 114.5 26 38 26 C38 25.67 38 25.34 38 25 C111.92 25 185.84 25 262 25 C262 17.08 262 9.16 262 1 C230.32 1.33 198.64 1.66 166 2 C165.34 3.65 164.68 5.3 164 7 C163.484375 7.474375 162.96875 7.94875 162.4375 8.4375 C160.3423475 10.71483967 160.33365644 12.99709203 160 16 C159.34 16 158.68 16 158 16 C158 16.66 158 17.32 158 18 C155.525 18.99 155.525 18.99 153 20 C153.33 19.34 153.66 18.68 154 18 C154.22858114 15.9625237 154.41024278 13.91959697 154.5625 11.875 C154.64628906 10.77929688 154.73007812 9.68359375 154.81640625 8.5546875 C154.87699219 7.71164063 154.93757812 6.86859375 155 6 C153.68 6 152.36 6 151 6 C151.01160156 6.78246094 151.02320313 7.56492188 151.03515625 8.37109375 C151.04417969 9.38300781 151.05320312 10.39492187 151.0625 11.4375 C151.07410156 12.44683594 151.08570313 13.45617187 151.09765625 14.49609375 C151 17 151 17 150 18 C147 18.125 147 18.125 144 18 C143 17 143 17 142.90234375 14.49609375 C142.91974609 12.98208984 142.91974609 12.98208984 142.9375 11.4375 C142.94652344 10.42558594 142.95554687 9.41367188 142.96484375 8.37109375 C142.98224609 7.19740234 142.98224609 7.19740234 143 6 C141.68 6 140.36 6 139 6 C139 9.96 139 13.92 139 18 C138.01 18 137.02 18 136 18 C135.67 17.67 135.34 17.34 135 17 C134.67 18.32 134.34 19.64 134 21 C132.35 21 130.7 21 129 21 C130.98 20.505 130.98 20.505 133 20 C132.649375 18.948125 132.29875 17.89625 131.9375 16.8125 C131.03871956 13.15745953 131.06697211 11.52477203 132 8 C130.05909174 6.05909174 126.52706098 6.60080565 123.9375 6.4375 C122.00197266 6.31181641 122.00197266 6.31181641 120.02734375 6.18359375 C118.52880859 6.09271484 118.52880859 6.09271484 117 6 C116.34 7.98 115.68 9.96 115 12 C114.01 11.67 113.02 11.34 112 11 C112 10.34 112 9.68 112 9 C110.68 9 109.36 9 108 9 C108 12.96 108 16.92 108 21 C106.35 21 104.7 21 103 21 C104.32 20.67 105.64 20.34 107 20 C107 16.04 107 12.08 107 8 C108.98 8 110.96 8 113 8 C113 7.01 113 6.02 113 5 C111.19402344 5.01740234 111.19402344 5.01740234 109.3515625 5.03515625 C107.77604321 5.04453434 106.20052225 5.05363452 104.625 5.0625 C103.43390625 5.07506836 103.43390625 5.07506836 102.21875 5.08789062 C96.2265625 5.11328125 96.2265625 5.11328125 94 4 C94 3.34 94 2.68 94 2 C91.69 2 89.38 2 87 2 C86.67 2.99 86.34 3.98 86 5 C82.4375 6.6875 82.4375 6.6875 79 8 C79.495 10.475 79.495 10.475 80 13 C84.95 13.99 84.95 13.99 90 15 C90 15.99 90 16.98 90 18 C87.36 18 84.72 18 82 18 C82 17.34 82 16.68 82 16 C80.68 16 79.36 16 78 16 C78 16.66 78 17.32 78 18 C76.35 17.67 74.7 17.34 73 17 C73 13.37 73 9.74 73 6 C71.68 6 70.36 6 69 6 C69 8.97 69 11.94 69 15 C66.03595495 12.19195732 63.55500981 9.81684226 62 6 C60.35 6 58.7 6 57 6 C57 10.62 57 15.24 57 20 C56.01 19.34 55.02 18.68 54 18 C53.01 18 52.02 18 51 18 C51.09765625 16.01432292 51.1953125 14.02864583 51.29296875 12.04296875 C51.15208443 9.9305175 51.15208443 9.9305175 49.76171875 8.29296875 C46.55201049 5.93728486 42.88957041 5.87673897 39 6 C36.14105962 7.24301756 34.49531304 8.50468696 32.3125 10.6875 C31.879375 11.120625 31.44625 11.55375 31 12 C30.34 12 29.68 12 29 12 C28.71125 11.360625 28.4225 10.72125 28.125 10.0625 C27.17176549 7.84793921 27.17176549 7.84793921 25 7 C23.35857459 6.85359499 21.7101859 6.77903411 20.0625 6.75 C19.18722656 6.72421875 18.31195313 6.6984375 17.41015625 6.671875 C14.96332008 6.81174788 14.96332008 6.81174788 13.2109375 8.296875 C11.16958267 11.16794179 11.57675041 13.61400324 12 17 C14.2527169 19.31116002 15.62283561 19.95175201 18.83984375 20.36328125 C19.86207031 20.34652344 20.88429688 20.32976562 21.9375 20.3125 C22.95714844 20.30863281 23.97679687 20.30476563 25.02734375 20.30078125 C28.04068201 19.99588369 30.21430408 19.12280601 33 18 C35.8125 18.875 35.8125 18.875 38 20 C37.67 21.98 37.34 23.96 37 26 C32.44620241 26.91014662 28.26874841 27.05131709 23.6328125 26.87890625 C22.61343094 26.84348976 22.61343094 26.84348976 21.57345581 26.80735779 C19.4237221 26.73138273 17.27441063 26.64707883 15.125 26.5625 C13.65887415 26.50921284 12.19272831 26.45647301 10.7265625 26.40429688 C7.15069936 26.27687641 3.57552812 26.13817439 0 26 C0 17.42 0 8.84 0 0 Z M48 19 C50 20 50 20 50 20 Z " fill="#545558" transform="translate(457,122)"/>
<path d="M0 0 C1.10666016 -0.01160156 2.21332031 -0.02320313 3.35351562 -0.03515625 C13.28029381 0.0000243 23.18154271 1.66457617 30.9375 8.375 C33.73365072 12.75318337 33.78863246 17.3533185 32.9375 22.375 C30.15345045 28.17327643 25.31386583 30.50550618 19.5 32.6484375 C12.7787051 34.55417051 6.18889922 34.59075497 -0.75 34.625 C-1.77544922 34.645625 -2.80089844 34.66625 -3.85742188 34.6875 C-13.87015132 34.73810129 -22.48697566 33.22286201 -30.50390625 26.97265625 C-33.43750589 23.9655328 -34.03229374 21.68713134 -34.4375 17.5 C-34.30812158 13.14965059 -32.93362239 10.6994575 -30.0625 7.375 C-21.67096717 0.21149637 -10.52839949 -0.11076049 0 0 Z M-11.0625 12.375 C-12.49985246 15.24970493 -12.44422649 17.19394588 -12.0625 20.375 C-8.34889741 24.08860259 -5.48625437 25.28163906 -0.25 25.625 C3.78489548 25.56555403 6.53370574 24.64419617 9.9375 22.375 C11.79266251 19.95522282 11.97258722 18.8545254 11.75 15.8125 C10.86865668 13.16847005 10.12854811 12.06042163 7.9375 10.375 C1.42196541 8.20315514 -5.27569317 8.51712878 -11.0625 12.375 Z " fill="#F7FCFC" transform="translate(266.0625,130.625)"/>
<path d="M0 0 C14.25763081 -0.14355975 14.25763081 -0.14355975 18.84106445 4.33227539 C21.52616842 7.64073762 23.64085361 11.2530638 25.70385742 14.97290039 C28.10875561 19.11851117 31.00679448 22.91419746 33.8293457 26.78149414 C39.0793457 34.14787279 39.0793457 34.14787279 39.0793457 35.34399414 C35.64228866 35.48904589 32.20601537 35.57797429 28.7668457 35.65649414 C27.79038086 35.69838867 26.81391602 35.7402832 25.80786133 35.78344727 C23.14469868 35.82920607 20.69815117 35.83895839 18.0793457 35.34399414 C17.60110352 34.52415039 17.12286133 33.70430664 16.63012695 32.85961914 C15.86249023 31.61438477 15.86249023 31.61438477 15.0793457 30.34399414 C11.25371655 29.55723132 7.47013449 29.69382107 3.5793457 29.78149414 C2.52102539 29.77053711 1.46270508 29.75958008 0.37231445 29.74829102 C-3.8073313 29.74785156 -3.8073313 29.74785156 -7.9206543 30.34399414 C-8.93166146 31.66900067 -9.93199485 33.00223027 -10.9206543 34.34399414 C-13.09716797 34.7980957 -13.09716797 34.7980957 -15.58862305 34.73461914 C-16.48129883 34.72172852 -17.37397461 34.70883789 -18.29370117 34.69555664 C-19.2224707 34.66204102 -20.15124023 34.62852539 -21.1081543 34.59399414 C-22.51871094 34.56692383 -22.51871094 34.56692383 -23.95776367 34.53930664 C-26.27975318 34.49215965 -28.59969119 34.42637645 -30.9206543 34.34399414 C-27.64502049 28.20218075 -23.64336123 22.80381088 -19.4206543 17.28149414 C-18.09623711 15.54175001 -16.77328103 13.80089245 -15.4519043 12.05883789 C-14.82413086 11.24608398 -14.19635742 10.43333008 -13.54956055 9.59594727 C-11.7424193 7.2230969 -11.7424193 7.2230969 -10.1394043 3.80883789 C-7.05843061 0.38613649 -4.49108298 0.30070697 0 0 Z " fill="#F7FCFC" transform="translate(382.920654296875,129.656005859375)"/>
<path d="M0 0 C20.46 0 40.92 0 62 0 C62 2.64 62 5.28 62 8 C55.07 8 48.14 8 41 8 C41 16.58 41 25.16 41 34 C34.4 34 27.8 34 21 34 C21 25.42 21 16.84 21 8 C14.07 8 7.14 8 0 8 C0 5.36 0 2.72 0 0 Z " fill="#FBFEFD" transform="translate(302,131)"/>
<path d="M0 0 C20.46 0 40.92 0 62 0 C62 2.64 62 5.28 62 8 C55.07 8 48.14 8 41 8 C41 16.58 41 25.16 41 34 C34.4 34 27.8 34 21 34 C21 25.42 21 16.84 21 8 C14.07 8 7.14 8 0 8 C0 5.36 0 2.72 0 0 Z " fill="#FBFEFE" transform="translate(168,131)"/>
<path d="M0 0 C6.6 0 13.2 0 20 0 C20 8.58 20 17.16 20 26 C30.56 26 41.12 26 52 26 C52 28.64 52 31.28 52 34 C34.84 34 17.68 34 0 34 C0 22.78 0 11.56 0 0 Z " fill="#FCFEFE" transform="translate(429,131)"/>
<path d="M0 0 C23.43 0 46.86 0 71 0 C69 6 69 6 67.4375 7.5 C65.30688452 9.72325093 65.3311577 12.01958067 65 15 C64.34 15 63.68 15 63 15 C63 15.66 63 16.32 63 17 C61.35 17.66 59.7 18.32 58 19 C58.33 18.34 58.66 17.68 59 17 C59.22858114 14.9625237 59.41024278 12.91959697 59.5625 10.875 C59.64628906 9.77929688 59.73007812 8.68359375 59.81640625 7.5546875 C59.90728516 6.29011719 59.90728516 6.29011719 60 5 C58.68 5 57.36 5 56 5 C56.01160156 5.78246094 56.02320313 6.56492188 56.03515625 7.37109375 C56.04417969 8.38300781 56.05320312 9.39492187 56.0625 10.4375 C56.07410156 11.44683594 56.08570313 12.45617187 56.09765625 13.49609375 C56 16 56 16 55 17 C52 17.125 52 17.125 49 17 C48 16 48 16 47.90234375 13.49609375 C47.91394531 12.48675781 47.92554688 11.47742188 47.9375 10.4375 C47.94652344 9.42558594 47.95554687 8.41367188 47.96484375 7.37109375 C47.97644531 6.58863281 47.98804688 5.80617187 48 5 C46.68 5 45.36 5 44 5 C44 8.96 44 12.92 44 17 C43.01 17 42.02 17 41 17 C40.67 16.67 40.34 16.34 40 16 C39.67 17.32 39.34 18.64 39 20 C37.35 20 35.7 20 34 20 C35.32 19.67 36.64 19.34 38 19 C37.649375 17.948125 37.29875 16.89625 36.9375 15.8125 C36.03871956 12.15745953 36.06697211 10.52477203 37 7 C35.05909174 5.05909174 31.52706098 5.60080565 28.9375 5.4375 C27.00197266 5.31181641 27.00197266 5.31181641 25.02734375 5.18359375 C23.52880859 5.09271484 23.52880859 5.09271484 22 5 C21.34 6.98 20.68 8.96 20 11 C19.01 10.67 18.02 10.34 17 10 C17 9.34 17 8.68 17 8 C15.68 8 14.36 8 13 8 C13 11.96 13 15.92 13 20 C11.35 20 9.7 20 8 20 C9.32 19.67 10.64 19.34 12 19 C12 15.04 12 11.08 12 7 C13.98 7 15.96 7 18 7 C18 6.01 18 5.02 18 4 C16.19402344 4.01740234 16.19402344 4.01740234 14.3515625 4.03515625 C12.77604321 4.04453434 11.20052225 4.05363452 9.625 4.0625 C8.43390625 4.07506836 8.43390625 4.07506836 7.21875 4.08789062 C1.2265625 4.11328125 1.2265625 4.11328125 -1 3 C-0.67 2.01 -0.34 1.02 0 0 Z " fill="#5E5F60" transform="translate(552,123)"/>
<path d="M0 0 C2.5625 1.6875 2.5625 1.6875 4 4 C4.7652998 7.99656562 4.34404561 9.48948071 2.0625 12.875 C-2.05199556 15.72995611 -5.13437919 15.70015309 -10 15 C-12.8125 14 -12.8125 14 -15 13 C-16.32 13 -17.64 13 -19 13 C-19.33 13.66 -19.66 14.32 -20 15 C-30.71978116 15.61548983 -30.71978116 15.61548983 -35.25 13.4375 C-37.67547804 10.05915558 -37.65373541 8.067687 -37 4 C-35.625 1.5625 -35.625 1.5625 -33 0 C-28.80426914 -0.76155389 -24.80802922 -1.02858356 -21.015625 1.12890625 C-19.375 2.5 -19.375 2.5 -17 5 C-16.236875 4.195625 -15.47375 3.39125 -14.6875 2.5625 C-10.1016992 -1.81000774 -5.86345064 -1.35473228 0 0 Z " fill="#5F6062" transform="translate(505,128)"/>
<path d="M0 0 C0.68698975 -0.0095874 1.37397949 -0.0191748 2.08178711 -0.02905273 C5.73978078 -0.0042053 8.45377222 0.24642097 11.5625 2.25 C7.3203562 3.08753401 3.24213103 3.37226325 -1.06201172 3.48950195 C-12.06621351 3.81898887 -22.87379388 4.55616245 -31.4375 12.25 C-32.74915257 14.36660427 -32.74915257 14.36660427 -33.4375 16.25 C-34.0975 16.25 -34.7575 16.25 -35.4375 16.25 C-35.7675 16.91 -36.0975 17.57 -36.4375 18.25 C-36.9325 16.27 -36.9325 16.27 -37.4375 14.25 C-43.0475 14.25 -48.6575 14.25 -54.4375 14.25 C-54.7675 22.17 -55.0975 30.09 -55.4375 38.25 C-63.3575 38.25 -71.2775 38.25 -79.4375 38.25 C-79.875 26.8125 -79.875 26.8125 -80.00561523 23.20141602 C-80.0627771 21.80427368 -80.0627771 21.80427368 -80.12109375 20.37890625 C-80.15775146 19.42056885 -80.19440918 18.46223145 -80.23217773 17.47485352 C-80.19584424 15.27861075 -80.19584424 15.27861075 -81.4375 14.25 C-82.77765221 14.09417697 -84.12508903 13.99955858 -85.47265625 13.93359375 C-86.28154297 13.89169922 -87.09042969 13.84980469 -87.92382812 13.80664062 C-88.77396484 13.76732422 -89.62410156 13.72800781 -90.5 13.6875 C-91.35400391 13.64431641 -92.20800781 13.60113281 -93.08789062 13.55664062 C-95.20422037 13.45023298 -97.32083813 13.34958269 -99.4375 13.25 C-100.5625 5.625 -100.5625 5.625 -99.4375 2.25 C-96.30753636 1.00646009 -93.13140349 1.12327125 -89.79858398 1.12060547 C-88.66738632 1.11745331 -87.53618866 1.11430115 -86.37071228 1.11105347 C-85.15396317 1.1130777 -83.93721405 1.11510193 -82.68359375 1.1171875 C-81.431194 1.11623077 -80.17879425 1.11527405 -78.88844299 1.11428833 C-76.24143006 1.1136079 -73.5945095 1.1149505 -70.94750977 1.11962891 C-67.55573816 1.12533176 -64.1640456 1.1220406 -60.77227688 1.11605644 C-57.53437966 1.11157408 -54.296492 1.11471213 -51.05859375 1.1171875 C-49.23043373 1.11415115 -49.23043373 1.11415115 -47.36534119 1.11105347 C-46.23729568 1.11420563 -45.10925018 1.11735779 -43.94702148 1.12060547 C-42.95314926 1.12140106 -41.95927704 1.12219666 -40.93528748 1.12301636 C-38.4375 1.25 -38.4375 1.25 -35.4375 2.25 C-34.9425 5.715 -34.9425 5.715 -34.4375 9.25 C-33.48230469 8.76789063 -32.52710938 8.28578125 -31.54296875 7.7890625 C-20.93164684 2.55028252 -11.87086832 0.14826898 0 0 Z M-98.4375 3.25 C-98.4375 5.89 -98.4375 8.53 -98.4375 11.25 C-91.5075 11.25 -84.5775 11.25 -77.4375 11.25 C-77.4375 19.83 -77.4375 28.41 -77.4375 37.25 C-70.8375 37.25 -64.2375 37.25 -57.4375 37.25 C-57.4375 28.67 -57.4375 20.09 -57.4375 11.25 C-50.5075 11.25 -43.5775 11.25 -36.4375 11.25 C-36.4375 8.61 -36.4375 5.97 -36.4375 3.25 C-56.8975 3.25 -77.3575 3.25 -98.4375 3.25 Z " fill="#4B6E81" transform="translate(266.4375,127.75)"/>
<path d="M0 0 C2.64 0 5.28 0 8 0 C7.67 0.99 7.34 1.98 7 3 C13.27 3.33 19.54 3.66 26 4 C26 4.99 26 5.98 26 7 C24.02 7 22.04 7 20 7 C20 10.96 20 14.92 20 19 C18.68 19 17.36 19 16 19 C16 15.37 16 11.74 16 8 C15.00097656 8.08378906 14.00195312 8.16757813 12.97265625 8.25390625 C11.68230469 8.35574219 10.39195312 8.45757812 9.0625 8.5625 C7.77472656 8.66691406 6.48695313 8.77132812 5.16015625 8.87890625 C4.11730469 8.91886719 3.07445312 8.95882812 2 9 C1.67 8.67 1.34 8.34 1 8 C-0.66617115 7.95936168 -2.33388095 7.957279 -4 8 C-4.33 8.66 -4.66 9.32 -5 10 C-1.37 10.66 2.26 11.32 6 12 C6.33 13.65 6.66 15.3 7 17 C2.50814656 20.36889008 -0.5733968 20.43762929 -6 20 C-6.99 19.34 -7.98 18.68 -9 18 C-9 17.01 -9 16.02 -9 15 C-7.68 15 -6.36 15 -5 15 C-5 15.66 -5 16.32 -5 17 C-2.36 17 0.28 17 3 17 C3 16.01 3 15.02 3 14 C2.30132813 13.95101562 1.60265625 13.90203125 0.8828125 13.8515625 C-0.02726563 13.77679688 -0.93734375 13.70203125 -1.875 13.625 C-2.77992188 13.55539063 -3.68484375 13.48578125 -4.6171875 13.4140625 C-7 13 -7 13 -9 11 C-8.8125 8.5 -8.8125 8.5 -8 6 C-5 4 -5 4 -1 4 C-0.67 2.68 -0.34 1.36 0 0 Z " fill="#656768" transform="translate(544,123)"/>
<path d="M0 0 C4.56944444 2.13888889 4.56944444 2.13888889 6 5 C6.52457223 8.93429172 6.30690703 10.54458957 4.0625 13.875 C0.46723516 16.36967356 -1.55701723 16.68900472 -5.83984375 16.41015625 C-9.28610825 15.75580223 -10.85200171 14.7716107 -13 12 C-13.70173599 9.16985817 -13.70734965 6.82939858 -13 4 C-9.43138568 -0.4607679 -5.36720759 -0.92164171 0 0 Z " fill="#E9EAEB" transform="translate(680,127)"/>
<path d="M0 0 C2.5625 1.6875 2.5625 1.6875 4 4 C4.7652998 7.99656562 4.34404561 9.48948071 2.0625 12.875 C-1.53276484 15.36967356 -3.55701723 15.68900472 -7.83984375 15.41015625 C-11.28610825 14.75580223 -12.85200171 13.7716107 -15 11 C-15.61295044 8.04236536 -15.3930429 6.09521287 -15 3 C-11.45962607 -2.22626628 -5.45744281 -1.26092542 0 0 Z " fill="#ECEDEE" transform="translate(505,128)"/>
<path d="M0 0 C6.6 0 13.2 0 20 0 C20 8.58 20 17.16 20 26 C30.56 26 41.12 26 52 26 C52 28.64 52 31.28 52 34 C34.84 34 17.68 34 0 34 C0 23.77 0 13.54 0 3 C2.67848546 5.67848546 2.30504006 7.13970861 2.4140625 10.8828125 C2.44967285 11.93355957 2.4852832 12.98430664 2.52197266 14.06689453 C2.55597168 15.40606934 2.5899707 16.74524414 2.625 18.125 C2.74875 22.37375 2.8725 26.6225 3 31 C18.84 31.33 34.68 31.66 51 32 C51 30.35 51 28.7 51 27 C40.44 27 29.88 27 19 27 C18.505 14.625 18.505 14.625 18 2 C12.06 2 6.12 2 0 2 C0 1.34 0 0.68 0 0 Z " fill="#C8E4ED" transform="translate(429,131)"/>
<path d="M0 0 C0.68698975 -0.0095874 1.37397949 -0.0191748 2.08178711 -0.02905273 C5.73978078 -0.0042053 8.45377222 0.24642097 11.5625 2.25 C7.3203562 3.08753401 3.24213103 3.37226325 -1.06201172 3.48950195 C-12.06621351 3.81898887 -22.87379388 4.55616245 -31.4375 12.25 C-32.74915257 14.36660427 -32.74915257 14.36660427 -33.4375 16.25 C-34.0975 16.25 -34.7575 16.25 -35.4375 16.25 C-35.7675 16.91 -36.0975 17.57 -36.4375 18.25 C-36.7675 16.93 -37.0975 15.61 -37.4375 14.25 C-43.0475 14.25 -48.6575 14.25 -54.4375 14.25 C-54.7675 22.17 -55.0975 30.09 -55.4375 38.25 C-55.7675 38.25 -56.0975 38.25 -56.4375 38.25 C-56.7675 29.34 -57.0975 20.43 -57.4375 11.25 C-50.5075 11.25 -43.5775 11.25 -36.4375 11.25 C-36.4375 8.61 -36.4375 5.97 -36.4375 3.25 C-35.7775 3.58 -35.1175 3.91 -34.4375 4.25 C-34.4375 5.9 -34.4375 7.55 -34.4375 9.25 C-33.48230469 8.76789063 -32.52710938 8.28578125 -31.54296875 7.7890625 C-20.93164684 2.55028252 -11.87086832 0.14826898 0 0 Z " fill="#5D7D96" transform="translate(266.4375,127.75)"/>
<path d="M0 0 C20.46 0 40.92 0 62 0 C62 2.64 62 5.28 62 8 C55.07 8 48.14 8 41 8 C41 16.58 41 25.16 41 34 C34.4 34 27.8 34 21 34 C21 25.75 21 17.5 21 9 C21.33 9 21.66 9 22 9 C22.02505615 9.59538574 22.0501123 10.19077148 22.07592773 10.80419922 C22.19177494 13.49469136 22.31455196 16.1848234 22.4375 18.875 C22.47681641 19.81214844 22.51613281 20.74929687 22.55664062 21.71484375 C22.59853516 22.61074219 22.64042969 23.50664062 22.68359375 24.4296875 C22.72025146 25.25710449 22.75690918 26.08452148 22.79467773 26.93701172 C22.88238327 29.06179429 22.88238327 29.06179429 24 31 C26.72220383 31.31330467 29.3322843 31.51264983 32.0625 31.625 C34.681875 31.74875 37.30125 31.8725 40 32 C40 23.75 40 15.5 40 7 C46.6 7 53.2 7 60 7 C60 5.35 60 3.7 60 2 C59.13375 2.2784375 59.13375 2.2784375 58.25 2.5625 C56 3 56 3 54.18035889 2.54017639 C51.685066 1.92197619 49.43455573 1.8392126 46.86425781 1.79467773 C45.84350159 1.77473251 44.82274536 1.75478729 43.77105713 1.73423767 C42.67613953 1.71752518 41.58122192 1.70081268 40.453125 1.68359375 C39.3267865 1.66281265 38.200448 1.64203156 37.03997803 1.62062073 C33.44338051 1.55525667 29.84671023 1.49630115 26.25 1.4375 C23.8111904 1.3943023 21.37238816 1.3506876 18.93359375 1.30664062 C12.955806 1.1995887 6.97794593 1.09779783 1 1 C1 3.31 1 5.62 1 8 C0.67 8 0.34 8 0 8 C0 5.36 0 2.72 0 0 Z " fill="#CFEAF1" transform="translate(168,131)"/>
<path d="M0 0 C20.46 0 40.92 0 62 0 C62 2.64 62 5.28 62 8 C61.67 8 61.34 8 61 8 C61 5.69 61 3.38 61 1 C41.2 1 21.4 1 1 1 C1.33 2.98 1.66 4.96 2 7 C8.6 6.67 15.2 6.34 22 6 C23.125 15 23.125 15 23.09765625 18.5 C23.09515869 19.1703125 23.09266113 19.840625 23.09008789 20.53125 C23.08098389 21.3459375 23.07187988 22.160625 23.0625 23 C23.041875 25.64 23.02125 28.28 23 31 C28.28 31.33 33.56 31.66 39 32 C38.97679687 30.51886719 38.95359375 29.03773438 38.9296875 27.51171875 C38.91093 25.57031753 38.89272978 23.62891087 38.875 21.6875 C38.85824219 20.71103516 38.84148437 19.73457031 38.82421875 18.72851562 C38.81455078 17.32182617 38.81455078 17.32182617 38.8046875 15.88671875 C38.78897705 14.59060669 38.78897705 14.59060669 38.77294922 13.26831055 C39 11 39 11 41 8 C41 16.58 41 25.16 41 34 C34.4 34 27.8 34 21 34 C21 25.42 21 16.84 21 8 C14.07 8 7.14 8 0 8 C0 5.36 0 2.72 0 0 Z " fill="#CDE9F1" transform="translate(302,131)"/>
<path d="M0 0 C10.7421875 -0.1953125 10.7421875 -0.1953125 14 0 C14.66 0.66 15.32 1.32 16 2 C15.71325582 4.00720923 15.38133299 6.0085944 15 8 C15.33 8.33 15.66 8.66 16 9 C16.04063832 10.66617115 16.042721 12.33388095 16 14 C14.68 14 13.36 14 12 14 C11.67 12.68 11.34 11.36 11 10 C8.69 9.67 6.38 9.34 4 9 C4 10.98 4 12.96 4 15 C2.68 15 1.36 15 0 15 C0 10.05 0 5.1 0 0 Z " fill="#F1F1F1" transform="translate(574,128)"/>
<path d="M0 0 C2.4375 0.6875 2.4375 0.6875 4.4375 1.6875 C4.1075 3.6675 3.7775 5.6475 3.4375 7.6875 C-1.04521914 8.57864296 -5.14833401 8.741891 -9.7109375 8.56640625 C-10.36832916 8.54279526 -11.02572083 8.51918427 -11.70303345 8.49485779 C-13.7814477 8.41891555 -15.85942192 8.33459817 -17.9375 8.25 C-19.35544796 8.19670952 -20.77341673 8.14396973 -22.19140625 8.09179688 C-25.64870103 7.96339634 -29.10565278 7.82748803 -32.5625 7.6875 C-32.5625 7.3575 -32.5625 7.0275 -32.5625 6.6875 C-29.2625 6.0275 -25.9625 5.3675 -22.5625 4.6875 C-22.2325 3.6975 -21.9025 2.7075 -21.5625 1.6875 C-20.44230469 1.71070313 -19.32210938 1.73390625 -18.16796875 1.7578125 C-16.69531916 1.77657237 -15.22266237 1.79477234 -13.75 1.8125 C-13.01201172 1.82925781 -12.27402344 1.84601563 -11.51367188 1.86328125 C-7.12075799 1.90303613 -3.89478297 -0.47497353 0 0 Z " fill="#545557" transform="translate(490.5625,140.3125)"/>
<path d="M0 0 C5 0 5 0 6.80078125 1.75 C7.29964844 2.4925 7.79851563 3.235 8.3125 4 C8.82425781 4.7425 9.33601562 5.485 9.86328125 6.25 C10.23839844 6.8275 10.61351562 7.405 11 8 C11.33 5.36 11.66 2.72 12 0 C13.32 0 14.64 0 16 0 C16 4.95 16 9.9 16 15 C10.375 13.875 10.375 13.875 7.6875 10.4375 C7.17574219 9.79683594 6.66398438 9.15617188 6.13671875 8.49609375 C5.76160156 8.00238281 5.38648438 7.50867188 5 7 C4.67 9.64 4.34 12.28 4 15 C2.68 15 1.36 15 0 15 C0 10.05 0 5.1 0 0 Z " fill="#F0F0F0" transform="translate(514,128)"/>
<path d="M0 0 C5 0 5 0 6.80078125 1.75 C7.29964844 2.4925 7.79851563 3.235 8.3125 4 C8.82425781 4.7425 9.33601562 5.485 9.86328125 6.25 C10.23839844 6.8275 10.61351562 7.405 11 8 C11.33 5.36 11.66 2.72 12 0 C13.32 0 14.64 0 16 0 C16 4.95 16 9.9 16 15 C10.375 13.875 10.375 13.875 7.6875 10.4375 C7.17574219 9.79683594 6.66398438 9.15617188 6.13671875 8.49609375 C5.76160156 8.00238281 5.38648438 7.50867188 5 7 C4.67 9.31 4.34 11.62 4 14 C2.68 14 1.36 14 0 14 C0 9.38 0 4.76 0 0 Z " fill="#F1F1F2" transform="translate(691,128)"/>
<path d="M0 0 C0.66 0.33 1.32 0.66 2 1 C2.625 4.0625 2.625 4.0625 3 7 C4.32 6.01 5.64 5.02 7 4 C7 7.60939525 6.21699061 8.40929056 4.078125 11.23828125 C3.46453125 12.05876953 2.8509375 12.87925781 2.21875 13.72460938 C1.5690625 14.57861328 0.919375 15.43261719 0.25 16.3125 C-1.01683851 17.99518082 -2.28249212 19.67875447 -3.546875 21.36328125 C-4.39523926 22.48150269 -4.39523926 22.48150269 -5.26074219 23.62231445 C-7.25924175 26.35440138 -9.12233373 29.1835006 -11 32 C-4.73 32.33 1.54 32.66 8 33 C8 33.33 8 33.66 8 34 C0.08 34 -7.84 34 -16 34 C-16 33.01 -16 32.02 -16 31 C-14.57159384 29.80164461 -13.1375108 28.60915481 -11.67041016 27.45849609 C-8.82036301 24.97001588 -6.81349745 21.91872834 -4.6875 18.8125 C-4.24599609 18.18408203 -3.80449219 17.55566406 -3.34960938 16.90820312 C-1.00353898 13.55842985 -1.00353898 13.55842985 1 10 C0.24976563 10.01160156 -0.50046875 10.02320313 -1.2734375 10.03515625 C-7.92337417 10.0937829 -14.40004873 9.81769308 -21 9 C-21 8.67 -21 8.34 -21 8 C-14.07 8 -7.14 8 0 8 C0 5.36 0 2.72 0 0 Z " fill="#618597" transform="translate(364,131)"/>
<path d="M0 0 C2.09765625 0.55859375 2.09765625 0.55859375 4.16015625 2.62109375 C4.46953125 3.26046875 4.77890625 3.89984375 5.09765625 4.55859375 C3.4315372 4.60131475 1.7638274 4.59923207 0.09765625 4.55859375 C-0.23234375 4.22859375 -0.56234375 3.89859375 -0.90234375 3.55859375 C-2.5685149 3.51795543 -4.2362247 3.51587275 -5.90234375 3.55859375 C-6.23234375 4.21859375 -6.56234375 4.87859375 -6.90234375 5.55859375 C-3.27234375 6.21859375 0.35765625 6.87859375 4.09765625 7.55859375 C4.42765625 9.20859375 4.75765625 10.85859375 5.09765625 12.55859375 C0.60580281 15.92748383 -2.47574055 15.99622304 -7.90234375 15.55859375 C-8.89234375 14.89859375 -9.88234375 14.23859375 -10.90234375 13.55859375 C-10.90234375 12.56859375 -10.90234375 11.57859375 -10.90234375 10.55859375 C-9.58234375 10.55859375 -8.26234375 10.55859375 -6.90234375 10.55859375 C-6.90234375 11.21859375 -6.90234375 11.87859375 -6.90234375 12.55859375 C-4.26234375 12.55859375 -1.62234375 12.55859375 1.09765625 12.55859375 C1.09765625 11.56859375 1.09765625 10.57859375 1.09765625 9.55859375 C0.39898438 9.50960937 -0.2996875 9.460625 -1.01953125 9.41015625 C-1.92960938 9.33539063 -2.8396875 9.260625 -3.77734375 9.18359375 C-4.68226563 9.11398438 -5.5871875 9.044375 -6.51953125 8.97265625 C-8.90234375 8.55859375 -8.90234375 8.55859375 -10.90234375 6.55859375 C-10.71484375 4.05859375 -10.71484375 4.05859375 -9.90234375 1.55859375 C-6.12333104 -0.96074805 -4.34062981 -0.57169271 0 0 Z " fill="#EFF0F1" transform="translate(545.90234375,127.44140625)"/>
<path d="M0 0 C11.88 0 23.76 0 36 0 C36 0.66 36 1.32 36 2 C32.63385703 4.24409531 30.97044339 4.36225007 27 4.625 C25.948125 4.69976562 24.89625 4.77453125 23.8125 4.8515625 C19.00152707 5.10547496 14.24166854 4.82961974 9.4375 4.5625 C8.65697266 4.52318359 7.87644531 4.48386719 7.07226562 4.44335938 C1.23159621 4.1157981 1.23159621 4.1157981 -1 3 C-0.67 2.01 -0.34 1.02 0 0 Z " fill="#58595B" transform="translate(552,123)"/>
<path d="M0 0 C0.66 0 1.32 0 2 0 C2.03758423 0.99181274 2.03758423 0.99181274 2.07592773 2.00366211 C2.19153102 4.98182305 2.31441754 7.9596392 2.4375 10.9375 C2.47681641 11.97841797 2.51613281 13.01933594 2.55664062 14.09179688 C2.59853516 15.08115234 2.64042969 16.07050781 2.68359375 17.08984375 C2.72025146 18.00628662 2.75690918 18.92272949 2.79467773 19.86694336 C2.77003864 21.9820728 2.77003864 21.9820728 4 23 C6.03663298 23.12184339 8.07715152 23.17974604 10.1171875 23.2109375 C11.98697266 23.25347656 11.98697266 23.25347656 13.89453125 23.296875 C16.54022539 23.34880226 19.18608024 23.39311957 21.83203125 23.4296875 C23.70568359 23.47609375 23.70568359 23.47609375 25.6171875 23.5234375 C26.76815918 23.54325684 27.91913086 23.56307617 29.10498047 23.58349609 C32 24 32 24 33.88330078 25.33837891 C35.58936601 27.8769622 35.25317213 30.02522753 35 33 C34.505 33.99 34.505 33.99 34 35 C33.34 35 32.68 35 32 35 C32 32.03 32 29.06 32 26 C21.44 26 10.88 26 0 26 C0 17.42 0 8.84 0 0 Z " fill="#4C6E83" transform="translate(449,131)"/>
<path d="M0 0 C0.33 0 0.66 0 1 0 C1.08636719 0.66386719 1.17273438 1.32773438 1.26171875 2.01171875 C1.94009072 6.27488203 2.51663223 9.32621462 5.0625 12.875 C17.47659873 21.85541184 33.50818356 21.33334932 48.19580078 19.765625 C55.20810165 18.6338281 60.79521991 16.31923652 65.75 11.1875 C67.42464239 8.25687581 68.18469447 5.26122214 69 2 C69.33 2 69.66 2 70 2 C70.45763495 7.72043683 69.71653644 10.59883843 66 15 C57.02443107 22.47964077 46.15504867 22.47440142 35 22.375 C33.69804687 22.38660156 32.39609375 22.39820313 31.0546875 22.41015625 C19.61123915 22.37547913 10.15468651 20.98834363 1.6875 12.75 C-0.5963027 9.02824745 -0.78586908 6.35399529 -1 2 C-0.67 1.34 -0.34 0.68 0 0 Z " fill="#3D5B6E" transform="translate(231,144)"/>
<path d="M0 0 C1.32 0 2.64 0 4 0 C4.33 3.63 4.66 7.26 5 11 C6.98 11 8.96 11 11 11 C11.33 7.37 11.66 3.74 12 0 C13.32 0 14.64 0 16 0 C16.10807131 1.93627769 16.1856225 3.87427756 16.25 5.8125 C16.29640625 6.89144531 16.3428125 7.97039062 16.390625 9.08203125 C16 12 16 12 14.234375 13.86328125 C11.92322126 15.03906051 10.56983353 15.40511524 8 15.375 C7.34 15.38273438 6.68 15.39046875 6 15.3984375 C3.24032834 14.84865916 1.94047441 14.04780153 0 12 C-0.390625 9.08203125 -0.390625 9.08203125 -0.25 5.8125 C-0.21390625 4.72582031 -0.1778125 3.63914063 -0.140625 2.51953125 C-0.09421875 1.68808594 -0.0478125 0.85664063 0 0 Z " fill="#F4F5F6" transform="translate(596,128)"/>
<path d="M0 0 C0.99 0.66 1.98 1.32 3 2 C3 2.99 3 3.98 3 5 C1.68 5 0.36 5 -1 5 C-1 4.34 -1 3.68 -1 3 C-3.64 3 -6.28 3 -9 3 C-9.04241723 5.33294775 -9.04092937 7.66702567 -9 10 C-7.87465895 11.35618499 -7.87465895 11.35618499 -4.9375 11.0625 C-3.968125 11.041875 -2.99875 11.02125 -2 11 C-1.67 10.34 -1.34 9.68 -1 9 C0.32 9 1.64 9 3 9 C2.6875 10.875 2.6875 10.875 2 13 C-1.70555362 15.47036908 -4.70302655 15.66042977 -9 15 C-12 13.4375 -12 13.4375 -14 11 C-14.62199068 7.12983577 -14.55866253 4.9903563 -12.625 1.5625 C-8.62977113 -0.81561242 -4.54395676 -0.65238778 0 0 Z " fill="#F1F2F3" transform="translate(482,128)"/>
<path d="M0 0 C2.3125 1.40234375 2.3125 1.40234375 4 3 C4 3.66 4 4.32 4 5 C2.35 5 0.7 5 -1 5 C-1 4.34 -1 3.68 -1 3 C-3.91652174 2.83318891 -3.91652174 2.83318891 -7 3 C-9.26839983 4.83265325 -9.26839983 4.83265325 -9.1875 7.5625 C-9.27003323 9.94689723 -9.27003323 9.94689723 -8 11 C-4.16680771 11.17423601 -0.73164314 10.87803368 3 10 C1.25 13.875 1.25 13.875 -1 15 C-8.02455546 15.69093988 -8.02455546 15.69093988 -12 12.875 C-14 10 -14 10 -14.5625 6.9375 C-14 4 -14 4 -12.625 1.625 C-8.65527525 -0.83244866 -4.55189962 -0.80971291 0 0 Z " fill="#F5F6F6" transform="translate(631,128)"/>
<path d="M0 0 C1.60101563 -0.05607422 1.60101563 -0.05607422 3.234375 -0.11328125 C6.11596731 -0.14594414 8.78852911 -0.14144593 11.625 0.375 C12.66684151 2.01583639 13.66896168 3.68273273 14.625 5.375 C18.02114829 6.04720425 21.36765687 5.84288848 24.8125 5.6875 C25.75287109 5.66494141 26.69324219 5.64238281 27.66210938 5.61914062 C29.98467473 5.56019227 32.30403776 5.47797785 34.625 5.375 C34.955 4.715 35.285 4.055 35.625 3.375 C36.615 4.695 37.605 6.015 38.625 7.375 C34.52096637 7.46194042 30.41716871 7.51537149 26.3125 7.5625 C24.56163086 7.60020508 24.56163086 7.60020508 22.77539062 7.63867188 C21.65712891 7.64833984 20.53886719 7.65800781 19.38671875 7.66796875 C18.35506592 7.6836792 17.32341309 7.69938965 16.26049805 7.71557617 C13.625 7.375 13.625 7.375 11.76489258 5.98168945 C10.625 4.375 10.625 4.375 10.625 2.375 C7.18626184 2.42679764 3.75005092 2.52185105 0.3125 2.625 C-0.66396484 2.63917969 -1.64042969 2.65335938 -2.64648438 2.66796875 C-3.58427734 2.70019531 -4.52207031 2.73242188 -5.48828125 2.765625 C-6.78439331 2.7970459 -6.78439331 2.7970459 -8.10668945 2.82910156 C-10.549795 3.15709016 -10.549795 3.15709016 -11.83398438 5.38867188 C-13.375 7.375 -13.375 7.375 -15.91870117 7.82910156 C-16.90845947 7.8081543 -17.89821777 7.78720703 -18.91796875 7.765625 C-19.99111328 7.75273437 -21.06425781 7.73984375 -22.16992188 7.7265625 C-23.28947266 7.69304687 -24.40902344 7.65953125 -25.5625 7.625 C-26.69365234 7.60695312 -27.82480469 7.58890625 -28.99023438 7.5703125 C-31.78600376 7.52312652 -34.58007972 7.45730595 -37.375 7.375 C-35.375 5.375 -35.375 5.375 -33.22021484 5.23974609 C-32.35090332 5.29211426 -31.4815918 5.34448242 -30.5859375 5.3984375 C-29.17441406 5.47578125 -29.17441406 5.47578125 -27.734375 5.5546875 C-26.25710938 5.65136719 -26.25710938 5.65136719 -24.75 5.75 C-23.75742187 5.80671875 -22.76484375 5.8634375 -21.7421875 5.921875 C-19.28575233 6.06359241 -16.83030265 6.21502277 -14.375 6.375 C-14.065625 5.570625 -13.75625 4.76625 -13.4375 3.9375 C-11.11073097 -1.67411941 -5.42380909 0.07153705 0 0 Z " fill="#3B5D70" transform="translate(386.375,158.625)"/>
<path d="M0 0 C1.75957031 0.00966797 1.75957031 0.00966797 3.5546875 0.01953125 C13.31433367 0.47868309 13.31433367 0.47868309 16.42578125 3.19921875 C17.42158203 4.52373047 17.42158203 4.52373047 18.4375 5.875 C19.18902344 6.86113281 19.94054687 7.84726563 20.71484375 8.86328125 C21.52043097 9.96975446 22.32371549 11.0779069 23.125 12.1875 C23.56344238 12.78481934 24.00188477 13.38213867 24.45361328 13.99755859 C33.85002581 26.80778779 33.85002581 26.80778779 36.125 31.1875 C35.795 31.8475 35.465 32.5075 35.125 33.1875 C33.87134979 31.52889061 32.61861186 29.86958563 31.36987305 28.20727539 C30.27853635 26.76230284 29.17821754 25.32407573 28.06958008 23.89233398 C25.38261351 20.38579819 22.92150333 16.9831607 20.91015625 13.04296875 C17.89467989 7.35901608 17.89467989 7.35901608 13.125 3.1875 C5.64753073 1.25849015 -2.22873844 1.67698441 -9.875 2.1875 C-10.16375 2.826875 -10.4525 3.46625 -10.75 4.125 C-11.875 6.1875 -11.875 6.1875 -13.875 7.1875 C-13.1875 4.8125 -13.1875 4.8125 -11.875 2.1875 C-7.90483281 0.0619114 -4.45055067 -0.05356243 0 0 Z " fill="#3C5D6F" transform="translate(384.875,128.8125)"/>
<path d="M0 0 C4.61900533 2.23801066 4.61900533 2.23801066 6 5 C6.58394161 12.24087591 6.58394161 12.24087591 4.125 15.4375 C0.34571665 18.21638481 -2.75238719 18.24729343 -7.3125 18.3125 C-8.62863281 18.34988281 -9.94476563 18.38726562 -11.30078125 18.42578125 C-15.50222832 17.94219336 -17.06376487 16.96928843 -20 14 C-21.58939347 10.82121306 -21.41576711 8.5043228 -21 5 C-16.1402385 -1.9214785 -7.70438257 -1.01484732 0 0 Z M-18 4 C-19.43735246 6.87470493 -19.38172649 8.81894588 -19 12 C-15.28639741 15.71360259 -12.42375437 16.90663906 -7.1875 17.25 C-3.15260452 17.19055403 -0.40379426 16.26919617 3 14 C4.85516251 11.58022282 5.03508722 10.4795254 4.8125 7.4375 C3.93115668 4.79347005 3.19104811 3.68542163 1 2 C-5.51553459 -0.17184486 -12.21319317 0.14212878 -18 4 Z " fill="#3F5F76" transform="translate(273,139)"/>
<path d="M0 0 C3.0625 0.3125 3.0625 0.3125 5 1.4375 C6.60193488 4.26444391 5.85834319 6.26176777 5.0625 9.3125 C4.0625 10.3125 4.0625 10.3125 0.625 10.5 C-2.9375 10.3125 -2.9375 10.3125 -4.9375 8.3125 C-5.1875 5.3125 -5.1875 5.3125 -4.9375 2.3125 C-2.9375 0.3125 -2.9375 0.3125 0 0 Z " fill="#5F6062" transform="translate(498.9375,129.6875)"/>
<path d="M0 0 C3.0625 0.3125 3.0625 0.3125 5 1.4375 C6.60193488 4.26444391 5.85834319 6.26176777 5.0625 9.3125 C4.0625 10.3125 4.0625 10.3125 0.625 10.5 C-2.9375 10.3125 -2.9375 10.3125 -4.9375 8.3125 C-5.1875 5.3125 -5.1875 5.3125 -4.9375 2.3125 C-2.9375 0.3125 -2.9375 0.3125 0 0 Z " fill="#5F6062" transform="translate(675.9375,129.6875)"/>
<path d="M0 0 C3.3 0 6.6 0 10 0 C10 0.33 10 0.66 10 1 C7.69 1.33 5.38 1.66 3 2 C3.00785522 2.98395752 3.00785522 2.98395752 3.01586914 3.98779297 C3.03661272 6.95018563 3.04965176 9.91256303 3.0625 12.875 C3.07087891 13.90753906 3.07925781 14.94007813 3.08789062 16.00390625 C3.09272461 17.48310547 3.09272461 17.48310547 3.09765625 18.9921875 C3.10551147 20.35899658 3.10551147 20.35899658 3.11352539 21.75341797 C3 24 3 24 2 26 C-5.92 26 -13.84 26 -22 26 C-22 25.34 -22 24.68 -22 24 C-14.74 24.33 -7.48 24.66 0 25 C0 16.75 0 8.5 0 0 Z " fill="#3D5F78" transform="translate(343,140)"/>
<path d="M0 0 C7 8.44827586 7 8.44827586 7 12 C2.71 12 -1.58 12 -6 12 C-4.24858504 7.6214626 -2.37016034 4.02927258 0 0 Z " fill="#65889A" transform="translate(386,140)"/>
<path d="M0 0 C2 2 2 2 2.046875 3.91015625 C1.89992187 4.97556641 1.89992187 4.97556641 1.75 6.0625 C1.66234375 6.77535156 1.5746875 7.48820313 1.484375 8.22265625 C1.24460938 9.10244141 1.24460938 9.10244141 1 10 C-2.30571917 11.65285959 -5.995378 11.1005118 -9.625 11.0625 C-12.38875 11.041875 -15.1525 11.02125 -18 11 C-18.33 18.92 -18.66 26.84 -19 35 C-19.33 35 -19.66 35 -20 35 C-20.33 26.09 -20.66 17.18 -21 8 C-14.07 8 -7.14 8 0 8 C0 5.36 0 2.72 0 0 Z " fill="#6A8C9E" transform="translate(230,131)"/>
<path d="M0 0 C6.93 0 13.86 0 21 0 C21 8.25 21 16.5 21 25 C20.34 25 19.68 25 19 25 C18.97494385 24.36908447 18.9498877 23.73816895 18.92407227 23.08813477 C18.80845863 20.24603175 18.68557684 17.40428917 18.5625 14.5625 C18.52318359 13.56927734 18.48386719 12.57605469 18.44335938 11.55273438 C18.40146484 10.60849609 18.35957031 9.66425781 18.31640625 8.69140625 C18.27974854 7.81685791 18.24309082 6.94230957 18.20532227 6.04125977 C18.21818934 4.0072598 18.21818934 4.0072598 17 3 C14.14471393 2.599617 11.30263513 2.2481773 8.4375 1.9375 C7.63119141 1.84662109 6.82488281 1.75574219 5.99414062 1.66210938 C3.99652623 1.43752551 1.9983144 1.21826764 0 1 C0 0.67 0 0.34 0 0 Z " fill="#658595" transform="translate(302,139)"/>
<path d="M0 0 C5.28 0 10.56 0 16 0 C16 0.66 16 1.32 16 2 C14.02 2 12.04 2 10 2 C10 5.96 10 9.92 10 14 C8.68 14 7.36 14 6 14 C6 10.04 6 6.08 6 2 C4.02 2 2.04 2 0 2 C0 1.34 0 0.68 0 0 Z " fill="#FCFDFE" transform="translate(638,128)"/>
<path d="M0 0 C5.28 0 10.56 0 16 0 C16 0.66 16 1.32 16 2 C14.02 2 12.04 2 10 2 C10 5.96 10 9.92 10 14 C8.68 14 7.36 14 6 14 C6 10.04 6 6.08 6 2 C4.02 2 2.04 2 0 2 C0 1.34 0 0.68 0 0 Z " fill="#FCFEFE" transform="translate(554,128)"/>
<path d="M0 0 C0.33 0 0.66 0 1 0 C1 11.88 1 23.76 1 36 C-3.94366102 34.02253559 -5.07854402 33.11167879 -8 29 C-7.67 28.34 -7.34 27.68 -7 27 C-5.02 28.65 -3.04 30.3 -1 32 C-1.01160156 31.19820312 -1.02320313 30.39640625 -1.03515625 29.5703125 C-1.11366971 19.67761686 -0.62664124 9.86959959 0 0 Z " fill="#7696AC" transform="translate(427,130)"/>
<path d="M0 0 C0.33 0.66 0.66 1.32 1 2 C3.31 2 5.62 2 8 2 C8 4.64 8 7.28 8 10 C2.25 11.125 2.25 11.125 0 10 C-1.25 7.75 -1.25 7.75 -2 5 C-1.125 2.1875 -1.125 2.1875 0 0 Z " fill="#57585A" transform="translate(635,129)"/>
<path d="M0 0 C0.99 0.33 1.98 0.66 3 1 C2.87431641 1.95712891 2.87431641 1.95712891 2.74609375 2.93359375 C2.64425781 3.75988281 2.54242188 4.58617187 2.4375 5.4375 C2.33308594 6.26121094 2.22867187 7.08492187 2.12109375 7.93359375 C2.08113281 8.61550781 2.04117187 9.29742187 2 10 C3.96822886 11.96822886 7.34808709 11.66248381 10 12 C9.67 12.66 9.34 13.32 9 14 C7.56344146 14.08131463 6.1255517 14.13933559 4.6875 14.1875 C3.48673828 14.23970703 3.48673828 14.23970703 2.26171875 14.29296875 C0 14 0 14 -1.76953125 12.73828125 C-3.90008044 9.72845779 -3.57489677 6.53782629 -3 3 C-1.5 1 -1.5 1 0 0 Z " fill="#F3F4F5" transform="translate(493,128)"/>
<path d="M0 0 C0.433125 0.495 0.86625 0.99 1.3125 1.5 C2.99740483 3.33218192 2.99740483 3.33218192 6 3 C6 3.66 6 4.32 6 5 C7.95901454 4.88617347 9.9172338 4.75858875 11.875 4.625 C13.51082031 4.52058594 13.51082031 4.52058594 15.1796875 4.4140625 C18.13046474 4.26746509 18.13046474 4.26746509 20 2 C20.99 3.65 21.98 5.3 23 7 C16.07 7 9.14 7 2 7 C1.01 5.02 0.02 3.04 -1 1 C-0.67 0.67 -0.34 0.34 0 0 Z " fill="#C9E3EB" transform="translate(399,158)"/>
<path d="M0 0 C1.32 0 2.64 0 4 0 C4 4.95 4 9.9 4 15 C2.68 15 1.36 15 0 15 C0 10.05 0 5.1 0 0 Z " fill="#F7F7F8" transform="translate(658,128)"/>
<path d="M0 0 C1.32 0 2.64 0 4 0 C4.05389087 1.95803507 4.09274217 3.91648909 4.125 5.875 C4.14820313 6.96554688 4.17140625 8.05609375 4.1953125 9.1796875 C4 12 4 12 2 14 C-1.625 14.125 -1.625 14.125 -5 14 C-3.68 13.67 -2.36 13.34 -1 13 C-0.67 8.71 -0.34 4.42 0 0 Z " fill="#FCFDFD" transform="translate(608,128)"/>
<path d="M0 0 C0.66 0 1.32 0 2 0 C2.01981934 0.65073486 2.03963867 1.30146973 2.06005859 1.97192383 C2.15529299 4.91919151 2.26497818 7.86574885 2.375 10.8125 C2.4059375 11.83666016 2.436875 12.86082031 2.46875 13.91601562 C2.50742187 14.89892578 2.54609375 15.88183594 2.5859375 16.89453125 C2.6173584 17.80050049 2.6487793 18.70646973 2.68115234 19.63989258 C2.86027919 22.26525392 2.86027919 22.26525392 5 25 C3.35 25.33 1.7 25.66 0 26 C0 17.42 0 8.84 0 0 Z " fill="#68899A" transform="translate(449,131)"/>
<path d="M0 0 C1.79158489 -0.02696365 3.58328473 -0.04637917 5.375 -0.0625 C6.37273437 -0.07410156 7.37046875 -0.08570313 8.3984375 -0.09765625 C11 0 11 0 13 1 C15.80196291 1.09861981 18.57354047 1.13896076 21.375 1.125 C22.14328125 1.12886719 22.9115625 1.13273438 23.703125 1.13671875 C24.82074219 1.13478516 24.82074219 1.13478516 25.9609375 1.1328125 C26.63946777 1.13168457 27.31799805 1.13055664 28.01708984 1.12939453 C30.11532836 0.99247426 31.96391697 0.50914616 34 0 C36.33300933 -0.03888349 38.66709801 -0.0448635 41 0 C34.84721204 4.10185864 27.27892084 3.18314317 20.125 3.1875 C19.07441406 3.19974609 18.02382813 3.21199219 16.94140625 3.22460938 C10.92921997 3.23589633 5.75669707 2.75475224 0 1 C0 0.67 0 0.34 0 0 Z " fill="#D9F2F7" transform="translate(245,162)"/>
<path d="M0 0 C1.09570312 0.00902344 2.19140625 0.01804687 3.3203125 0.02734375 C4.16335938 0.03894531 5.00640625 0.05054687 5.875 0.0625 C5.875 0.3925 5.875 0.7225 5.875 1.0625 C2.245 1.0625 -1.385 1.0625 -5.125 1.0625 C-5.785 3.0425 -6.445 5.0225 -7.125 7.0625 C-8.115 6.7325 -9.105 6.4025 -10.125 6.0625 C-10.125 5.4025 -10.125 4.7425 -10.125 4.0625 C-11.445 4.0625 -12.765 4.0625 -14.125 4.0625 C-14.125 8.0225 -14.125 11.9825 -14.125 16.0625 C-15.775 16.0625 -17.425 16.0625 -19.125 16.0625 C-17.805 15.7325 -16.485 15.4025 -15.125 15.0625 C-15.125 11.1025 -15.125 7.1425 -15.125 3.0625 C-13.145 3.0625 -11.165 3.0625 -9.125 3.0625 C-8.795 2.4025 -8.465 1.7425 -8.125 1.0625 C-5.36047967 -0.31976016 -3.0788637 -0.03275387 0 0 Z " fill="#797A7A" transform="translate(579.125,126.9375)"/>
<path d="M0 0 C0.66 0.66 1.32 1.32 2 2 C0.35 4.31 -1.3 6.62 -3 9 C3.27 9.33 9.54 9.66 16 10 C16 10.33 16 10.66 16 11 C8.08 11 0.16 11 -8 11 C-8 10.01 -8 9.02 -8 8 C-6.53311963 6.72445185 -5.06023134 5.45118883 -3.5078125 4.28125 C-1.72500021 2.88527155 -1.72500021 2.88527155 0 0 Z " fill="#7699AC" transform="translate(356,154)"/>
<path d="M0 0 C3.77043032 -0.14496508 7.54014742 -0.23395607 11.3125 -0.3125 C12.9202832 -0.3753418 12.9202832 -0.3753418 14.56054688 -0.43945312 C15.58857422 -0.45556641 16.61660156 -0.47167969 17.67578125 -0.48828125 C18.62364502 -0.51446533 19.57150879 -0.54064941 20.5480957 -0.56762695 C23 0 23 0 24.83276367 2.53051758 C25.21795166 3.34544678 25.60313965 4.16037598 26 5 C25.18917969 4.6803125 24.37835938 4.360625 23.54296875 4.03125 C18.6912671 2.61906782 14.03663809 2.57869218 9.01367188 2.43359375 C5.19737116 2.27865127 3.24734427 2.16489618 0 0 Z " fill="#D4EEF4" transform="translate(375,131)"/>
<path d="M0 0 C0.7115625 -0.00773437 1.423125 -0.01546875 2.15625 -0.0234375 C5.92429832 -0.00937762 8.80489203 0.15321039 12 2.25 C4.29065524 3.96318772 -4.29065524 3.96318772 -12 2.25 C-8.21376149 -0.23471902 -4.36674546 -0.04746462 0 0 Z " fill="#638399" transform="translate(266,127.75)"/>
<path d="M0 0 C-0.33 0.66 -0.66 1.32 -1 2 C-12.385 1.505 -12.385 1.505 -24 1 C-24.66 2.32 -25.32 3.64 -26 5 C-26.99 5.495 -26.99 5.495 -28 6 C-27.3125 3.625 -27.3125 3.625 -26 1 C-18.54071059 -2.99363045 -8.08870226 -1.54070519 0 0 Z " fill="#2C5465" transform="translate(399,130)"/>
<path d="M0 0 C0.66 0 1.32 0 2 0 C2.04125 1.093125 2.0825 2.18625 2.125 3.3125 C2.60565398 7.24996333 2.60565398 7.24996333 6.0625 8.9375 C7.031875 9.288125 8.00125 9.63875 9 10 C9 10.33 9 10.66 9 11 C1.64321608 11.36180905 1.64321608 11.36180905 -1 9.875 C-2.45670212 7.14368353 -2.32339354 5.03989923 -2 2 C-1.34 1.34 -0.68 0.68 0 0 Z " fill="#F8F8F9" transform="translate(669,131)"/>
<path d="M0 0 C0.66 0.66 1.32 1.32 2 2 C-0.11866825 4.81732115 -2.24597694 7.62799805 -4.375 10.4375 C-4.97828125 11.23994141 -5.5815625 12.04238281 -6.203125 12.86914062 C-6.78320312 13.63291016 -7.36328125 14.39667969 -7.9609375 15.18359375 C-8.49509277 15.89056396 -9.02924805 16.59753418 -9.57958984 17.32592773 C-11 19 -11 19 -13 20 C-11.66420283 15.99260849 -9.68497171 13.04033457 -7.12109375 9.74609375 C-5.88788231 8.03751131 -5.88788231 8.03751131 -5.5078125 5.92578125 C-4.7088158 2.89573992 -2.46092061 1.7668148 0 0 Z " fill="#446C82" transform="translate(370,135)"/>
<path d="M0 0 C2.43933105 2.43933105 2.37608173 3.31589028 2.5 6.6875 C2.40671965 11.64570915 1.12252155 14.1727811 -2.33203125 17.66015625 C-4.41839752 19.33608981 -6.41494801 20.31572153 -9 21 C-9 20.34 -9 19.68 -9 19 C-8.34 19 -7.68 19 -7 19 C-6.67 17.68 -6.34 16.36 -6 15 C-4.68 15 -3.36 15 -2 15 C0.59227518 10.13948404 0.18689553 5.34728867 0 0 Z " fill="#E3F8FB" transform="translate(297,141)"/>
<path d="M0 0 C1.70840281 1.63412443 2.93453047 2.86906094 4 5 C10.6 5 17.2 5 24 5 C24.33 4.34 24.66 3.68 25 3 C25.99 4.32 26.98 5.64 28 7 C23.89596637 7.08694042 19.79216871 7.14037149 15.6875 7.1875 C13.93663086 7.22520508 13.93663086 7.22520508 12.15039062 7.26367188 C11.03212891 7.27333984 9.91386719 7.28300781 8.76171875 7.29296875 C7.73006592 7.3086792 6.69841309 7.32438965 5.63549805 7.34057617 C3 7 3 7 1.13989258 5.73168945 C0 4 0 4 0 0 Z " fill="#3F667B" transform="translate(397,159)"/>
<path d="M0 0 C1.65 0.33 3.3 0.66 5 1 C6.19354869 4.72983966 6.40965996 8.10823039 6 12 C3.45862841 15.15954305 1.85377341 16.71540886 -2 18 C-2 17.34 -2 16.68 -2 16 C-1.360625 15.71125 -0.72125 15.4225 -0.0625 15.125 C2.15206079 14.17176549 2.15206079 14.17176549 3 12 C3.48445696 6.4604157 3.48445696 6.4604157 1.5 1.5 C1.005 1.005 0.51 0.51 0 0 Z " fill="#DEF1F5" transform="translate(275,140)"/>
<path d="M0 0 C2.31 1.65 4.62 3.3 7 5 C7 3.68 7 2.36 7 1 C7.66 1 8.32 1 9 1 C9 3.64 9 6.28 9 9 C4.5937814 7.65365543 2.56922298 5.80625626 0 2 C0 1.34 0 0.68 0 0 Z " fill="#84A0BA" transform="translate(419,157)"/>
<path d="M0 0 C0.99 0.495 0.99 0.495 2 1 C2.2475 2.11375 2.495 3.2275 2.75 4.375 C3.65661832 8.24258366 3.65661832 8.24258366 7.125 9.9375 C8.548125 10.4634375 8.548125 10.4634375 10 11 C8.02 11.99 8.02 11.99 6 13 C1.125 9.25 1.125 9.25 0 7 C-0.04022391 4.6670134 -0.04320247 2.33293334 0 0 Z " fill="#517A8A" transform="translate(252,144)"/>
<path d="M0 0 C3.85645121 -0.22036864 6.49223216 0.39644899 10 2 C9.67 2.99 9.34 3.98 9 5 C5.7 4.34 2.4 3.68 -1 3 C-0.67 2.01 -0.34 1.02 0 0 Z " fill="#67686A" transform="translate(540,130)"/>
<path d="M0 0 C2.31 0 4.62 0 7 0 C7.33 1.32 7.66 2.64 8 4 C5.36 4 2.72 4 0 4 C0 2.68 0 1.36 0 0 Z " fill="#717171" transform="translate(578,130)"/>
<path d="M0 0 C-1.75 3.875 -1.75 3.875 -4 5 C-6.6723621 5.13415472 -9.32250488 5.04318541 -12 5 C-8.55392327 1.00980589 -5.20909181 0 0 0 Z " fill="#E8E9EB" transform="translate(634,138)"/>
<path d="M0 0 C3.3 0.33 6.6 0.66 10 1 C10 1.99 10 2.98 10 4 C7.36 4 4.72 4 2 4 C1.34 2.68 0.68 1.36 0 0 Z " fill="#626365" transform="translate(537,136)"/>
<path d="M0 0 C6.7281627 -0.22262303 12.53991163 0.04978464 19 2 C19 2.33 19 2.66 19 3 C12.2718373 3.22262303 6.46008837 2.95021536 0 1 C0 0.67 0 0.34 0 0 Z " fill="#CEE5EC" transform="translate(245,162)"/>
<path d="M0 0 C0.33 0 0.66 0 1 0 C1.93213141 6.26039609 2.20927172 11.02197063 0 17 C-0.33 17 -0.66 17 -1 17 C-1.33 13.37 -1.66 9.74 -2 6 C-1.34 6 -0.68 6 0 6 C0 4.02 0 2.04 0 0 Z " fill="#6E96AA" transform="translate(300,133)"/>
<path d="M0 0 C8.35010941 0.35010941 8.35010941 0.35010941 11.0625 3.0625 C11.371875 3.701875 11.68125 4.34125 12 5 C6.92387682 5.61528766 4.17017994 3.61658349 0 1 C0 0.67 0 0.34 0 0 Z " fill="#E2E3E4" transform="translate(539,127)"/>
<path d="M0 0 C0.7425 0.804375 1.485 1.60875 2.25 2.4375 C6.75030049 6.28558303 12.33545068 5.89917469 18 6 C18 6.33 18 6.66 18 7 C15.75059705 7.08119503 13.50035129 7.13927819 11.25 7.1875 C9.99703125 7.22230469 8.7440625 7.25710937 7.453125 7.29296875 C3.84604814 6.98693847 2.39288374 6.68897289 0 4 C0 2.68 0 1.36 0 0 Z " fill="#CFE9EF" transform="translate(252,151)"/>
<path d="M0 0 C0.33 0 0.66 0 1 0 C1.34203764 4.27547053 1.21269922 6.59660493 -0.8125 10.4375 C-1.534375 11.283125 -2.25625 12.12875 -3 13 C-3.99 13 -4.98 13 -6 13 C-5.071875 11.7315625 -5.071875 11.7315625 -4.125 10.4375 C-1.86952264 7.08627655 -0.93874355 3.91143146 0 0 Z " fill="#476776" transform="translate(300,146)"/>
<path d="M0 0 C2.96404505 2.80804268 5.44499019 5.18315774 7 9 C4 9 4 9 1.8125 7.3125 C-0.31050198 4.6038423 -0.37254569 3.35291118 0 0 Z " fill="#DFF4F7" transform="translate(405,142)"/>
<path d="M0 0 C1.32 0 2.64 0 4 0 C3.6875 1.875 3.6875 1.875 3 4 C2.01 4.66 1.02 5.32 0 6 C-0.99 5.67 -1.98 5.34 -3 5 C-1.75 2.5 -1.75 2.5 0 0 Z " fill="#DFE0E1" transform="translate(481,137)"/>
<path d="M0 0 C1.18851563 0.00902344 2.37703125 0.01804688 3.6015625 0.02734375 C4.51679688 0.03894531 5.43203125 0.05054688 6.375 0.0625 C6.375 0.3925 6.375 0.7225 6.375 1.0625 C1.425 1.7225 -3.525 2.3825 -8.625 3.0625 C-8.625 2.4025 -8.625 1.7425 -8.625 1.0625 C-5.74084117 -0.37957941 -3.20778472 -0.03144887 0 0 Z " fill="#466C87" transform="translate(253.625,129.9375)"/>
<path d="M0 0 C1.32 0.66 2.64 1.32 4 2 C4 2.99 4 3.98 4 5 C2.02 5 0.04 5 -2 5 C-1.34 3.35 -0.68 1.7 0 0 Z " fill="#B1C7DC" transform="translate(386,145)"/>
<path d="M0 0 C3.82669043 3.42388092 5.72278474 6.00724943 7 11 C3.71211176 7.88983545 1.16264012 4.98381075 -1 1 C-0.67 0.67 -0.34 0.34 0 0 Z " fill="#4C697F" transform="translate(414,151)"/>
<path d="M0 0 C1.18851562 0.10183594 2.37703125 0.20367187 3.6015625 0.30859375 C4.51679688 0.39238281 5.43203125 0.47617188 6.375 0.5625 C6.375 0.8925 6.375 1.2225 6.375 1.5625 C5.12783203 1.65337891 5.12783203 1.65337891 3.85546875 1.74609375 C2.22544922 1.87177734 2.22544922 1.87177734 0.5625 2 C-1.05591797 2.12181641 -1.05591797 2.12181641 -2.70703125 2.24609375 C-5.68489905 2.46462461 -5.68489905 2.46462461 -8.625 3.5625 C-8.625 2.5725 -8.625 1.5825 -8.625 0.5625 C-5.68113377 -0.90943312 -3.25109964 -0.28686173 0 0 Z " fill="#C1DAE2" transform="translate(263.625,137.4375)"/>
<path d="M0 0 C2.5 1.375 2.5 1.375 5 3 C5 3.66 5 4.32 5 5 C3.35 5 1.7 5 0 5 C0 4.34 0 3.68 0 3 C-0.66 2.67 -1.32 2.34 -2 2 C-1.34 2 -0.68 2 0 2 C0 1.34 0 0.68 0 0 Z " fill="#DDDEE0" transform="translate(630,128)"/>
<path d="M0 0 C0.33 0.99 0.66 1.98 1 3 C0.07421875 4.82421875 0.07421875 4.82421875 -1.3125 6.6875 C-1.76238281 7.31011719 -2.21226562 7.93273437 -2.67578125 8.57421875 C-3.11277344 9.04472656 -3.54976563 9.51523438 -4 10 C-4.66 10 -5.32 10 -6 10 C-4.34832443 6.4213696 -2.21713508 3.25179812 0 0 Z " fill="#DCF0F4" transform="translate(373,134)"/>
</svg>
